RecursiveSans-CasualMediumItalic.ufo
<glyph name="exclam" format="1">
  <advance width="350"/>
  <unicode hex="0021"/>
  <outline>
    <contour>
      <point x="216" y="264" type="line"/>
      <point x="245" y="336"/>
      <point x="277" y="427"/>
      <point x="295" y="499" type="curve"/>
      <point x="334" y="656" type="line" smooth="yes"/>
      <point x="344" y="695"/>
      <point x="314" y="710"/>
      <point x="258" y="710" type="curve" smooth="yes"/>
      <point x="241" y="710"/>
      <point x="228" y="709"/>
      <point x="213" y="705" type="curve"/>
      <point x="212" y="670"/>
      <point x="205" y="634"/>
      <point x="196" y="595" type="curve" smooth="yes"/>
      <point x="172" y="501" type="line"/>
      <point x="147" y="400"/>
      <point x="131" y="303"/>
      <point x="144" y="285" type="curve" smooth="yes"/>
      <point x="155" y="271"/>
      <point x="176" y="264"/>
      <point x="207" y="264" type="curve"/>
    </contour>
    <contour>
      <point x="191" y="2" type="curve"/>
      <point x="216" y="101" type="line" smooth="yes"/>
      <point x="228" y="149"/>
      <point x="187" y="164"/>
      <point x="131" y="164" type="curve" smooth="yes"/>
      <point x="109" y="164"/>
      <point x="85" y="161"/>
      <point x="65" y="154" type="curve"/>
      <point x="40" y="55" type="line" smooth="yes"/>
      <point x="28" y="7"/>
      <point x="69" y="-8"/>
      <point x="125" y="-8" type="curve" smooth="yes"/>
      <point x="147" y="-8"/>
      <point x="171" y="-4"/>
    </contour>
  </outline>
</glyph>
<glyph name="quotedbl" format="1">
  <advance width="600"/>
  <unicode hex="0022"/>
  <outline>
    <contour>
      <point x="276" y="442" type="curve"/>
      <point x="343" y="665" type="line" smooth="yes"/>
      <point x="362" y="725"/>
      <point x="340" y="754"/>
      <point x="271" y="754" type="curve" smooth="yes"/>
      <point x="256" y="754"/>
      <point x="243" y="752"/>
      <point x="231" y="750" type="curve"/>
      <point x="234" y="726"/>
      <point x="232" y="708"/>
      <point x="222" y="654" type="curve" smooth="yes"/>
      <point x="190" y="486" type="line" smooth="yes"/>
      <point x="183" y="452"/>
      <point x="198" y="439"/>
      <point x="242" y="439" type="curve" smooth="yes"/>
      <point x="255" y="439"/>
      <point x="266" y="440"/>
    </contour>
    <contour>
      <point x="505" y="442" type="curve"/>
      <point x="573" y="659" type="line" smooth="yes"/>
      <point x="594" y="725"/>
      <point x="571" y="754"/>
      <point x="507" y="754" type="curve" smooth="yes"/>
      <point x="494" y="754"/>
      <point x="484" y="753"/>
      <point x="471" y="750" type="curve"/>
      <point x="421" y="486" type="line"/>
      <point x="414" y="452"/>
      <point x="429" y="439"/>
      <point x="473" y="439" type="curve" smooth="yes"/>
      <point x="486" y="439"/>
      <point x="496" y="440"/>
    </contour>
  </outline>
</glyph>
<glyph name="numbersign" format="1">
  <advance width="600"/>
  <unicode hex="0023"/>
  <outline>
    <contour>
      <point x="306" y="715" type="curve"/>
      <point x="255" y="513"/>
      <point x="158" y="239"/>
      <point x="-12" y="-11" type="curve"/>
      <point x="-4" y="-17"/>
      <point x="3" y="-20"/>
      <point x="22" y="-20" type="curve"/>
      <point x="49" y="-20"/>
      <point x="69" y="-14"/>
      <point x="83" y="7" type="curve" smooth="yes"/>
      <point x="245" y="255"/>
      <point x="337" y="511"/>
      <point x="382" y="693" type="curve" smooth="yes"/>
      <point x="388" y="714"/>
      <point x="368" y="720"/>
      <point x="342" y="720" type="curve" smooth="yes"/>
      <point x="330" y="720"/>
      <point x="318" y="718"/>
    </contour>
    <contour>
      <point x="518" y="715" type="curve"/>
      <point x="468" y="515"/>
      <point x="370" y="239"/>
      <point x="200" y="-11" type="curve"/>
      <point x="208" y="-17"/>
      <point x="215" y="-20"/>
      <point x="234" y="-20" type="curve"/>
      <point x="261" y="-20"/>
      <point x="281" y="-14"/>
      <point x="295" y="7" type="curve" smooth="yes"/>
      <point x="457" y="255"/>
      <point x="549" y="511"/>
      <point x="594" y="693" type="curve" smooth="yes"/>
      <point x="600" y="714"/>
      <point x="580" y="720"/>
      <point x="554" y="720" type="curve" smooth="yes"/>
      <point x="542" y="720"/>
      <point x="530" y="718"/>
    </contour>
    <contour>
      <point x="617" y="435" type="line"/>
      <point x="618" y="440"/>
      <point x="619" y="445"/>
      <point x="620" y="450" type="curve" smooth="yes"/>
      <point x="628" y="481"/>
      <point x="627" y="500"/>
      <point x="618" y="512" type="curve" smooth="yes"/>
      <point x="611" y="521"/>
      <point x="600" y="524"/>
      <point x="575" y="524" type="curve"/>
      <point x="128" y="524" type="line"/>
      <point x="124" y="513"/>
      <point x="119" y="499"/>
      <point x="116" y="489" type="curve" smooth="yes"/>
      <point x="107" y="452"/>
      <point x="114" y="435"/>
      <point x="150" y="435" type="curve"/>
    </contour>
    <contour>
      <point x="25" y="265" type="line"/>
      <point x="24" y="260"/>
      <point x="23" y="255"/>
      <point x="21" y="250" type="curve" smooth="yes"/>
      <point x="13" y="218"/>
      <point x="15" y="200"/>
      <point x="24" y="188" type="curve" smooth="yes"/>
      <point x="31" y="179"/>
      <point x="42" y="176"/>
      <point x="67" y="176" type="curve"/>
      <point x="513" y="176" type="line"/>
      <point x="518" y="187"/>
      <point x="523" y="201"/>
      <point x="526" y="211" type="curve" smooth="yes"/>
      <point x="535" y="247"/>
      <point x="528" y="265"/>
      <point x="492" y="265" type="curve"/>
    </contour>
  </outline>
</glyph>
<glyph name="percent" format="1">
  <advance width="600"/>
  <unicode hex="0025"/>
  <outline>
    <contour>
      <point x="234" y="666" type="curve"/>
      <point x="309" y="666"/>
      <point x="338" y="632"/>
      <point x="317" y="548" type="curve" smooth="yes"/>
      <point x="316" y="543" type="line" smooth="yes"/>
      <point x="299" y="478"/>
      <point x="259" y="441"/>
      <point x="197" y="441" type="curve" smooth="yes"/>
      <point x="167" y="441"/>
      <point x="152" y="450"/>
      <point x="136" y="476" type="curve"/>
      <point x="83" y="431"/>
      <point x="136" y="356"/>
      <point x="192" y="356" type="curve" smooth="yes"/>
      <point x="289" y="356"/>
      <point x="368" y="424"/>
      <point x="395" y="531" type="curve" smooth="yes"/>
      <point x="396" y="537" type="line" smooth="yes"/>
      <point x="422" y="639"/>
      <point x="377" y="710"/>
      <point x="288" y="710" type="curve" smooth="yes"/>
      <point x="263" y="710"/>
      <point x="240" y="691"/>
    </contour>
    <contour>
      <point x="238" y="405" type="curve"/>
      <point x="168" y="405"/>
      <point x="137" y="453"/>
      <point x="154" y="521" type="curve" smooth="yes"/>
      <point x="155" y="526" type="line" smooth="yes"/>
      <point x="172" y="595"/>
      <point x="220" y="642"/>
      <point x="274" y="642" type="curve" smooth="yes"/>
      <point x="309" y="642"/>
      <point x="326" y="637"/>
      <point x="348" y="611" type="curve"/>
      <point x="388" y="644"/>
      <point x="345" y="710"/>
      <point x="288" y="710" type="curve" smooth="yes"/>
      <point x="194" y="710"/>
      <point x="113" y="637"/>
      <point x="85" y="529" type="curve" smooth="yes"/>
      <point x="84" y="523" type="line" smooth="yes"/>
      <point x="58" y="420"/>
      <point x="99" y="356"/>
      <point x="192" y="356" type="curve" smooth="yes"/>
      <point x="215" y="356"/>
      <point x="231" y="378"/>
    </contour>
    <contour>
      <point x="394" y="300" type="curve"/>
      <point x="469" y="300"/>
      <point x="498" y="266"/>
      <point x="477" y="182" type="curve" smooth="yes"/>
      <point x="475" y="177" type="line" smooth="yes"/>
      <point x="459" y="112"/>
      <point x="419" y="75"/>
      <point x="357" y="75" type="curve" smooth="yes"/>
      <point x="327" y="75"/>
      <point x="312" y="84"/>
      <point x="296" y="110" type="curve"/>
      <point x="243" y="65"/>
      <point x="296" y="-10"/>
      <point x="352" y="-10" type="curve" smooth="yes"/>
      <point x="449" y="-10"/>
      <point x="528" y="58"/>
      <point x="555" y="165" type="curve" smooth="yes"/>
      <point x="556" y="171" type="line" smooth="yes"/>
      <point x="582" y="273"/>
      <point x="537" y="344"/>
      <point x="448" y="344" type="curve" smooth="yes"/>
      <point x="423" y="344"/>
      <point x="400" y="325"/>
    </contour>
    <contour>
      <point x="398" y="39" type="curve"/>
      <point x="327" y="39"/>
      <point x="297" y="87"/>
      <point x="314" y="155" type="curve" smooth="yes"/>
      <point x="315" y="160" type="line" smooth="yes"/>
      <point x="332" y="229"/>
      <point x="380" y="276"/>
      <point x="434" y="276" type="curve" smooth="yes"/>
      <point x="468" y="276"/>
      <point x="486" y="271"/>
      <point x="508" y="245" type="curve"/>
      <point x="548" y="278"/>
      <point x="505" y="344"/>
      <point x="448" y="344" type="curve" smooth="yes"/>
      <point x="354" y="344"/>
      <point x="272" y="271"/>
      <point x="245" y="163" type="curve" smooth="yes"/>
      <point x="244" y="157" type="line" smooth="yes"/>
      <point x="218" y="54"/>
      <point x="259" y="-10"/>
      <point x="352" y="-10" type="curve" smooth="yes"/>
      <point x="375" y="-10"/>
      <point x="391" y="12"/>
    </contour>
    <contour>
      <point x="395" y="414" type="curve"/>
      <point x="407" y="406"/>
      <point x="421" y="402"/>
      <point x="443" y="402" type="curve" smooth="yes"/>
      <point x="464" y="402"/>
      <point x="475" y="406"/>
      <point x="493" y="420" type="curve" smooth="yes"/>
      <point x="575" y="486"/>
      <point x="641" y="582"/>
      <point x="661" y="663" type="curve" smooth="yes"/>
      <point x="669" y="692"/>
      <point x="651" y="709"/>
      <point x="609" y="709" type="curve" smooth="yes"/>
      <point x="591" y="709"/>
      <point x="580" y="708"/>
      <point x="565" y="703" type="curve"/>
      <point x="529" y="594"/>
      <point x="483" y="506"/>
    </contour>
    <contour>
      <point x="247" y="285" type="curve"/>
      <point x="235" y="294"/>
      <point x="220" y="298"/>
      <point x="199" y="298" type="curve" smooth="yes"/>
      <point x="177" y="298"/>
      <point x="166" y="293"/>
      <point x="148" y="279" type="curve" smooth="yes"/>
      <point x="67" y="214"/>
      <point x="1" y="118"/>
      <point x="-20" y="37" type="curve" smooth="yes"/>
      <point x="-27" y="8"/>
      <point x="-9" y="-10"/>
      <point x="33" y="-10" type="curve" smooth="yes"/>
      <point x="51" y="-10"/>
      <point x="62" y="-8"/>
      <point x="77" y="-3" type="curve"/>
      <point x="113" y="105"/>
      <point x="159" y="193"/>
    </contour>
  </outline>
</glyph>
<glyph name="ampersand" format="1">
  <advance width="600"/>
  <unicode hex="0026"/>
  <outline>
    <contour>
      <point x="433" y="710" type="curve" smooth="yes"/>
      <point x="309" y="710"/>
      <point x="201" y="625"/>
      <point x="179" y="533" type="curve" smooth="yes"/>
      <point x="171" y="503"/>
      <point x="184" y="471"/>
      <point x="242" y="471" type="curve"/>
      <point x="242" y="483"/>
      <point x="243" y="491"/>
      <point x="247" y="506" type="curve" smooth="yes"/>
      <point x="262" y="566"/>
      <point x="328" y="611"/>
      <point x="409" y="611" type="curve" smooth="yes"/>
      <point x="475" y="611"/>
      <point x="516" y="597"/>
      <point x="545" y="571" type="curve"/>
      <point x="549" y="571" type="line"/>
      <point x="557" y="583"/>
      <point x="563" y="597"/>
      <point x="567" y="614" type="curve"/>
      <point x="574" y="641"/>
      <point x="572" y="663"/>
      <point x="561" y="678" type="curve" smooth="yes"/>
      <point x="546" y="697"/>
      <point x="505" y="710"/>
    </contour>
    <contour>
      <point x="275" y="370" type="curve" smooth="yes"/>
      <point x="260" y="429"/>
      <point x="260" y="487"/>
      <point x="270" y="528" type="curve" smooth="yes"/>
      <point x="279" y="565"/>
      <point x="291" y="589"/>
      <point x="315" y="619" type="curve"/>
      <point x="264" y="634"/>
      <point x="193" y="592"/>
      <point x="179" y="533" type="curve" smooth="yes"/>
      <point x="178" y="530" type="line" smooth="yes"/>
      <point x="164" y="473"/>
      <point x="169" y="407"/>
      <point x="189" y="336" type="curve" smooth="yes"/>
      <point x="215" y="245"/>
      <point x="261" y="151"/>
      <point x="313" y="83" type="curve" smooth="yes"/>
      <point x="366" y="11"/>
      <point x="408" y="-10"/>
      <point x="447" y="-10" type="curve" smooth="yes"/>
      <point x="451" y="-10" type="line" smooth="yes"/>
      <point x="489" y="-10"/>
      <point x="511" y="11"/>
      <point x="523" y="61" type="curve" smooth="yes"/>
      <point x="528" y="79"/>
      <point x="530" y="95"/>
      <point x="530" y="108" type="curve"/>
      <point x="526" y="108" type="line"/>
      <point x="512" y="97"/>
      <point x="499" y="93"/>
      <point x="478" y="93" type="curve" smooth="yes"/>
      <point x="445" y="93"/>
      <point x="407" y="117"/>
      <point x="378" y="156" type="curve" smooth="yes"/>
      <point x="331" y="218"/>
      <point x="293" y="298"/>
    </contour>
    <contour>
      <point x="140" y="-10" type="curve" smooth="yes"/>
      <point x="228" y="-10"/>
      <point x="287" y="25"/>
      <point x="333" y="77" type="curve" smooth="yes"/>
      <point x="346" y="94"/>
      <point x="338" y="123"/>
      <point x="315" y="138" type="curve"/>
      <point x="270" y="96"/>
      <point x="234" y="79"/>
      <point x="175" y="79" type="curve" smooth="yes"/>
      <point x="113" y="79"/>
      <point x="91" y="125"/>
      <point x="106" y="183" type="curve" smooth="yes"/>
      <point x="106" y="186" type="line" smooth="yes"/>
      <point x="123" y="252"/>
      <point x="173" y="284"/>
      <point x="240" y="296" type="curve"/>
      <point x="239" y="321"/>
      <point x="233" y="361"/>
      <point x="206" y="356" type="curve" smooth="yes"/>
      <point x="131" y="340"/>
      <point x="37" y="282"/>
      <point x="9" y="168" type="curve" smooth="yes"/>
      <point x="8" y="164" type="line" smooth="yes"/>
      <point x="-18" y="63"/>
      <point x="30" y="-10"/>
    </contour>
    <contour>
      <point x="487" y="401" type="curve" smooth="yes"/>
      <point x="477" y="401"/>
      <point x="469" y="400"/>
      <point x="463" y="399" type="curve"/>
      <point x="460" y="388"/>
      <point x="457" y="378"/>
      <point x="455" y="367" type="curve" smooth="yes"/>
      <point x="435" y="289"/>
      <point x="404" y="231"/>
      <point x="349" y="172" type="curve" smooth="yes"/>
      <point x="332" y="152"/>
      <point x="352" y="127"/>
      <point x="385" y="123" type="curve"/>
      <point x="476" y="197"/>
      <point x="531" y="274"/>
      <point x="549" y="344" type="curve" smooth="yes"/>
      <point x="552" y="356" type="line" smooth="yes"/>
      <point x="559" y="385"/>
      <point x="535" y="401"/>
    </contour>
  </outline>
</glyph>
<glyph name="quotesingle" format="1">
  <advance width="250"/>
  <unicode hex="0027"/>
  <outline>
    <contour>
      <point x="223" y="442" type="curve"/>
      <point x="290" y="659" type="line" smooth="yes"/>
      <point x="310" y="725"/>
      <point x="288" y="754"/>
      <point x="216" y="754" type="curve" smooth="yes"/>
      <point x="203" y="754"/>
      <point x="191" y="752"/>
      <point x="179" y="750" type="curve"/>
      <point x="182" y="726"/>
      <point x="180" y="708"/>
      <point x="170" y="654" type="curve" smooth="yes"/>
      <point x="138" y="486" type="line" smooth="yes"/>
      <point x="131" y="452"/>
      <point x="146" y="439"/>
      <point x="190" y="439" type="curve" smooth="yes"/>
      <point x="203" y="439"/>
      <point x="214" y="440"/>
    </contour>
  </outline>
</glyph>
<glyph name="parenleft" format="1">
  <advance width="400"/>
  <unicode hex="0028"/>
  <outline>
    <contour>
      <point x="381" y="740" type="curve" smooth="yes"/>
      <point x="248" y="633"/>
      <point x="150" y="478"/>
      <point x="106" y="302" type="curve" smooth="yes"/>
      <point x="105" y="296" type="line" smooth="yes"/>
      <point x="61" y="120"/>
      <point x="81" y="-36"/>
      <point x="161" y="-142" type="curve" smooth="yes"/>
      <point x="177" y="-163"/>
      <point x="193" y="-172"/>
      <point x="216" y="-172" type="curve" smooth="yes"/>
      <point x="251" y="-172"/>
      <point x="280" y="-162"/>
      <point x="302" y="-149" type="curve"/>
      <point x="303" y="-145" type="line"/>
      <point x="196" y="-29"/>
      <point x="171" y="125"/>
      <point x="213" y="296" type="curve" smooth="yes"/>
      <point x="215" y="302" type="line" smooth="yes"/>
      <point x="257" y="471"/>
      <point x="360" y="627"/>
      <point x="525" y="742" type="curve"/>
      <point x="526" y="746" type="line"/>
      <point x="510" y="760"/>
      <point x="487" y="770"/>
      <point x="452" y="770" type="curve" smooth="yes"/>
      <point x="429" y="770"/>
      <point x="408" y="761"/>
    </contour>
  </outline>
</glyph>
<glyph name="parenright" format="1">
  <advance width="400"/>
  <unicode hex="0029"/>
  <outline>
    <contour>
      <point x="35" y="-140" type="curve" smooth="yes"/>
      <point x="168" y="-34"/>
      <point x="266" y="122"/>
      <point x="310" y="297" type="curve" smooth="yes"/>
      <point x="312" y="304" type="line" smooth="yes"/>
      <point x="356" y="480"/>
      <point x="335" y="636"/>
      <point x="256" y="741" type="curve" smooth="yes"/>
      <point x="240" y="763"/>
      <point x="224" y="772"/>
      <point x="200" y="772" type="curve" smooth="yes"/>
      <point x="165" y="772"/>
      <point x="137" y="761"/>
      <point x="115" y="748" type="curve"/>
      <point x="114" y="744" type="line"/>
      <point x="221" y="629"/>
      <point x="246" y="474"/>
      <point x="203" y="304" type="curve" smooth="yes"/>
      <point x="202" y="297" type="line" smooth="yes"/>
      <point x="159" y="128"/>
      <point x="57" y="-28"/>
      <point x="-108" y="-143" type="curve"/>
      <point x="-109" y="-147" type="line"/>
      <point x="-93" y="-160"/>
      <point x="-70" y="-171"/>
      <point x="-35" y="-171" type="curve" smooth="yes"/>
      <point x="-12" y="-171"/>
      <point x="9" y="-161"/>
    </contour>
  </outline>
</glyph>
<glyph name="asterisk" format="1">
  <advance width="500"/>
  <unicode hex="002A"/>
  <outline>
    <contour>
      <point x="328" y="764" type="curve"/>
      <point x="330" y="746"/>
      <point x="331" y="729"/>
      <point x="327" y="704" type="curve" smooth="yes"/>
      <point x="304" y="556" type="line"/>
      <point x="248" y="412" type="line" smooth="yes"/>
      <point x="228" y="368"/>
      <point x="237" y="342"/>
      <point x="282" y="342" type="curve"/>
      <point x="293" y="342"/>
      <point x="305" y="344"/>
      <point x="317" y="348" type="curve"/>
      <point x="315" y="366"/>
      <point x="314" y="383"/>
      <point x="317" y="407" type="curve" smooth="yes"/>
      <point x="341" y="556" type="line"/>
      <point x="397" y="699" type="line" smooth="yes"/>
      <point x="417" y="745"/>
      <point x="408" y="770"/>
      <point x="363" y="770" type="curve" smooth="yes"/>
      <point x="352" y="769"/>
      <point x="340" y="768"/>
    </contour>
    <contour>
      <point x="520" y="694" type="curve"/>
      <point x="314" y="573" type="line"/>
      <point x="137" y="503" type="line" smooth="yes"/>
      <point x="114" y="494"/>
      <point x="105" y="469"/>
      <point x="114" y="444" type="curve"/>
      <point x="117" y="434"/>
      <point x="121" y="427"/>
      <point x="126" y="420" type="curve"/>
      <point x="331" y="542" type="line"/>
      <point x="509" y="613" type="line" smooth="yes"/>
      <point x="532" y="622"/>
      <point x="540" y="644"/>
      <point x="532" y="671" type="curve" smooth="yes"/>
      <point x="530" y="679"/>
      <point x="527" y="686"/>
    </contour>
    <contour>
      <point x="505" y="486" type="curve"/>
      <point x="339" y="572" type="line"/>
      <point x="219" y="677" type="line" smooth="yes"/>
      <point x="203" y="691"/>
      <point x="181" y="683"/>
      <point x="158" y="657" type="curve"/>
      <point x="151" y="649"/>
      <point x="146" y="638"/>
      <point x="140" y="629" type="curve"/>
      <point x="306" y="542" type="line"/>
      <point x="426" y="437" type="line" smooth="yes"/>
      <point x="442" y="422"/>
      <point x="464" y="431"/>
      <point x="487" y="458" type="curve"/>
      <point x="493" y="466"/>
      <point x="499" y="474"/>
    </contour>
  </outline>
</glyph>
<glyph name="plus" format="1">
  <advance width="600"/>
  <unicode hex="002B"/>
  <outline>
    <contour>
      <point x="75" y="349" type="line"/>
      <point x="74" y="345"/>
      <point x="73" y="340"/>
      <point x="72" y="335" type="curve" smooth="yes"/>
      <point x="63" y="298"/>
      <point x="62" y="276"/>
      <point x="72" y="263" type="curve" smooth="yes"/>
      <point x="79" y="254"/>
      <point x="90" y="251"/>
      <point x="114" y="251" type="curve"/>
      <point x="543" y="251" type="line"/>
      <point x="548" y="262"/>
      <point x="553" y="276"/>
      <point x="555" y="286" type="curve" smooth="yes"/>
      <point x="566" y="330"/>
      <point x="560" y="349"/>
      <point x="524" y="349" type="curve"/>
    </contour>
    <contour>
      <point x="298" y="58" type="curve"/>
      <point x="396" y="451" type="line" smooth="yes"/>
      <point x="406" y="490"/>
      <point x="406" y="509"/>
      <point x="394" y="525" type="curve" smooth="yes"/>
      <point x="382" y="540"/>
      <point x="358" y="545"/>
      <point x="338" y="545" type="curve" smooth="yes"/>
      <point x="328" y="545"/>
      <point x="318" y="544"/>
      <point x="308" y="541" type="curve"/>
      <point x="309" y="510"/>
      <point x="307" y="488"/>
      <point x="296" y="445" type="curve" smooth="yes"/>
      <point x="209" y="97" type="line" smooth="yes"/>
      <point x="200" y="62"/>
      <point x="225" y="55"/>
      <point x="264" y="55" type="curve" smooth="yes"/>
      <point x="276" y="55"/>
      <point x="288" y="56"/>
    </contour>
  </outline>
</glyph>
<glyph name="comma" format="1">
  <advance width="350"/>
  <unicode hex="002C"/>
  <outline>
    <contour>
      <point x="28" y="-195" type="curve" smooth="yes"/>
      <point x="45" y="-195"/>
      <point x="54" y="-192"/>
      <point x="64" y="-183" type="curve"/>
      <point x="131" y="-130"/>
      <point x="208" y="-20"/>
      <point x="236" y="90" type="curve"/>
      <point x="246" y="131"/>
      <point x="220" y="146"/>
      <point x="167" y="146" type="curve" smooth="yes"/>
      <point x="147" y="146"/>
      <point x="133" y="144"/>
      <point x="112" y="139" type="curve"/>
      <point x="77" y="-3"/>
      <point x="36" y="-84"/>
      <point x="-40" y="-172" type="curve"/>
      <point x="-22" y="-188"/>
      <point x="-4" y="-195"/>
    </contour>
  </outline>
</glyph>
<glyph name="hyphen" format="1">
  <advance width="600"/>
  <unicode hex="002D"/>
  <outline>
    <contour>
      <point x="126" y="349" type="line"/>
      <point x="125" y="344"/>
      <point x="123" y="339"/>
      <point x="122" y="334" type="curve" smooth="yes"/>
      <point x="113" y="297"/>
      <point x="113" y="275"/>
      <point x="122" y="263" type="curve" smooth="yes"/>
      <point x="129" y="254"/>
      <point x="140" y="250"/>
      <point x="165" y="250" type="curve"/>
      <point x="493" y="250" type="line"/>
      <point x="498" y="262"/>
      <point x="503" y="275"/>
      <point x="506" y="286" type="curve" smooth="yes"/>
      <point x="516" y="329"/>
      <point x="510" y="349"/>
      <point x="474" y="349" type="curve"/>
    </contour>
  </outline>
</glyph>
<glyph name="period" format="1">
  <advance width="300"/>
  <unicode hex="002E"/>
  <outline>
    <contour>
      <point x="166" y="2" type="curve"/>
      <point x="191" y="101" type="line" smooth="yes"/>
      <point x="203" y="149"/>
      <point x="162" y="164"/>
      <point x="106" y="164" type="curve" smooth="yes"/>
      <point x="84" y="164"/>
      <point x="60" y="161"/>
      <point x="40" y="154" type="curve"/>
      <point x="15" y="55" type="line" smooth="yes"/>
      <point x="3" y="7"/>
      <point x="44" y="-8"/>
      <point x="100" y="-8" type="curve" smooth="yes"/>
      <point x="122" y="-8"/>
      <point x="146" y="-4"/>
    </contour>
  </outline>
</glyph>
<glyph name="zero" format="1">
  <advance width="600"/>
  <unicode hex="0030"/>
  <outline>
    <contour>
      <point x="408" y="720" type="curve" smooth="yes"/>
      <point x="271" y="720"/>
      <point x="148" y="612"/>
      <point x="91" y="379" type="curve" smooth="yes"/>
      <point x="80" y="333" type="line" smooth="yes"/>
      <point x="27" y="119"/>
      <point x="94" y="-20"/>
      <point x="234" y="-20" type="curve"/>
      <point x="266" y="-20"/>
      <point x="288" y="8"/>
      <point x="296" y="41" type="curve"/>
      <point x="152" y="51"/>
      <point x="143" y="183"/>
      <point x="175" y="316" type="curve" smooth="yes"/>
      <point x="185" y="360" type="line" smooth="yes"/>
      <point x="223" y="520"/>
      <point x="296" y="624"/>
      <point x="398" y="624" type="curve" smooth="yes"/>
      <point x="440" y="624"/>
      <point x="469" y="615"/>
      <point x="495" y="597" type="curve"/>
      <point x="528" y="634"/>
      <point x="484" y="720"/>
    </contour>
    <contour>
      <point x="234" y="-20" type="curve" smooth="yes"/>
      <point x="372" y="-20"/>
      <point x="490" y="81"/>
      <point x="544" y="301" type="curve" smooth="yes"/>
      <point x="555" y="347" type="line" smooth="yes"/>
      <point x="612" y="578"/>
      <point x="549" y="720"/>
      <point x="408" y="720" type="curve"/>
      <point x="377" y="720"/>
      <point x="355" y="692"/>
      <point x="347" y="659" type="curve"/>
      <point x="490" y="649"/>
      <point x="498" y="513"/>
      <point x="461" y="362" type="curve" smooth="yes"/>
      <point x="450" y="318" type="line" smooth="yes"/>
      <point x="414" y="173"/>
      <point x="348" y="76"/>
      <point x="245" y="76" type="curve" smooth="yes"/>
      <point x="203" y="76"/>
      <point x="169" y="85"/>
      <point x="142" y="106" type="curve"/>
      <point x="109" y="66"/>
      <point x="159" y="-20"/>
    </contour>
  </outline>
</glyph>
<glyph name="one" format="1">
  <advance width="600"/>
  <unicode hex="0031"/>
  <outline>
    <contour>
      <point x="334" y="48" type="curve"/>
      <point x="387" y="257"/>
      <point x="440" y="468"/>
      <point x="492" y="676" type="curve" smooth="yes"/>
      <point x="498" y="702"/>
      <point x="463" y="710"/>
      <point x="419" y="710" type="curve" smooth="yes"/>
      <point x="402" y="710" type="line"/>
      <point x="356" y="529"/>
      <point x="309" y="342"/>
      <point x="264" y="161" type="curve" smooth="yes"/>
      <point x="243" y="77"/>
      <point x="277" y="48"/>
    </contour>
    <contour>
      <point x="42" y="96" type="line"/>
      <point x="39" y="91"/>
      <point x="37" y="86"/>
      <point x="36" y="79" type="curve" smooth="yes"/>
      <point x="27" y="44"/>
      <point x="28" y="26"/>
      <point x="37" y="13" type="curve" smooth="yes"/>
      <point x="44" y="3"/>
      <point x="55" y="0"/>
      <point x="83" y="0" type="curve" smooth="yes"/>
      <point x="493" y="0" type="line"/>
      <point x="497" y="8"/>
      <point x="500" y="16"/>
      <point x="502" y="25" type="curve" smooth="yes"/>
      <point x="513" y="67"/>
      <point x="450" y="96"/>
      <point x="329" y="96" type="curve" smooth="yes"/>
    </contour>
    <contour>
      <point x="171" y="445" type="curve" smooth="yes"/>
      <point x="198" y="445"/>
      <point x="253" y="476"/>
      <point x="298" y="512" type="curve" smooth="yes"/>
      <point x="356" y="558"/>
      <point x="406" y="622"/>
      <point x="417" y="667" type="curve" smooth="yes"/>
      <point x="424" y="696"/>
      <point x="415" y="710"/>
      <point x="404" y="710" type="curve"/>
      <point x="381" y="710" type="line"/>
      <point x="350" y="675"/>
      <point x="321" y="645"/>
      <point x="284" y="615" type="curve"/>
      <point x="240" y="580"/>
      <point x="200" y="556"/>
      <point x="154" y="536" type="curve"/>
      <point x="149" y="520" type="line" smooth="yes"/>
      <point x="135" y="470"/>
      <point x="153" y="445"/>
    </contour>
  </outline>
</glyph>
<glyph name="two" format="1">
  <advance width="600"/>
  <unicode hex="0032"/>
  <outline>
    <contour>
      <point x="457" y="641" type="curve"/>
      <point x="484" y="604"/>
      <point x="496" y="573"/>
      <point x="483" y="522" type="curve" smooth="yes"/>
      <point x="465" y="447"/>
      <point x="410" y="396"/>
      <point x="273" y="321" type="curve" smooth="yes"/>
      <point x="105" y="229"/>
      <point x="38" y="169"/>
      <point x="16" y="79" type="curve" smooth="yes"/>
      <point x="10" y="54"/>
      <point x="38" y="45"/>
      <point x="98" y="45" type="curve"/>
      <point x="118" y="125"/>
      <point x="157" y="161"/>
      <point x="332" y="253" type="curve" smooth="yes"/>
      <point x="482" y="333"/>
      <point x="556" y="395"/>
      <point x="584" y="508" type="curve" smooth="yes"/>
      <point x="586" y="517" type="line" smooth="yes"/>
      <point x="608" y="603"/>
      <point x="558" y="676"/>
    </contour>
    <contour>
      <point x="468" y="0" type="line"/>
      <point x="473" y="11"/>
      <point x="477" y="24"/>
      <point x="480" y="36" type="curve" smooth="yes"/>
      <point x="490" y="77"/>
      <point x="484" y="96"/>
      <point x="448" y="96" type="curve" smooth="yes"/>
      <point x="119" y="96" type="line" smooth="yes"/>
      <point x="78" y="96"/>
      <point x="47" y="93"/>
      <point x="16" y="79" type="curve"/>
      <point x="16" y="77"/>
      <point x="15" y="76"/>
      <point x="15" y="75" type="curve" smooth="yes"/>
      <point x="7" y="44"/>
      <point x="19" y="0"/>
      <point x="43" y="0" type="curve" smooth="yes"/>
    </contour>
    <contour>
      <point x="414" y="720" type="curve" smooth="yes"/>
      <point x="337" y="720"/>
      <point x="272" y="705"/>
      <point x="228" y="671" type="curve" smooth="yes"/>
      <point x="194" y="644"/>
      <point x="169" y="609"/>
      <point x="159" y="570" type="curve" smooth="yes"/>
      <point x="154" y="547"/>
      <point x="159" y="521"/>
      <point x="167" y="507" type="curve"/>
      <point x="172" y="507" type="line"/>
      <point x="232" y="586"/>
      <point x="303" y="624"/>
      <point x="394" y="624" type="curve" smooth="yes"/>
      <point x="487" y="624"/>
      <point x="538" y="575"/>
      <point x="523" y="516" type="curve" smooth="yes"/>
      <point x="518" y="496"/>
      <point x="511" y="477"/>
      <point x="500" y="457" type="curve"/>
      <point x="540" y="457"/>
      <point x="577" y="480"/>
      <point x="586" y="517" type="curve" smooth="yes"/>
      <point x="617" y="641"/>
      <point x="542" y="720"/>
    </contour>
  </outline>
</glyph>
<glyph name="three" format="1">
  <advance width="600"/>
  <unicode hex="0033"/>
  <outline>
    <contour>
      <point x="374" y="623" type="curve" smooth="yes"/>
      <point x="493" y="623"/>
      <point x="535" y="559"/>
      <point x="513" y="475" type="curve" smooth="yes"/>
      <point x="511" y="464"/>
      <point x="507" y="453"/>
      <point x="501" y="441" type="curve"/>
      <point x="530" y="442"/>
      <point x="580" y="479"/>
      <point x="588" y="512" type="curve" smooth="yes"/>
      <point x="591" y="524" type="line" smooth="yes"/>
      <point x="618" y="630"/>
      <point x="545" y="719"/>
      <point x="399" y="719" type="curve" smooth="yes"/>
      <point x="313" y="719"/>
      <point x="252" y="702"/>
      <point x="210" y="671" type="curve" smooth="yes"/>
      <point x="180" y="647"/>
      <point x="166" y="631"/>
      <point x="158" y="597" type="curve" smooth="yes"/>
      <point x="153" y="579"/>
      <point x="154" y="559"/>
      <point x="157" y="540" type="curve"/>
      <point x="161" y="540" type="line"/>
      <point x="231" y="604"/>
      <point x="286" y="623"/>
    </contour>
    <contour>
      <point x="217" y="310" type="curve" smooth="yes"/>
      <point x="419" y="310"/>
      <point x="557" y="391"/>
      <point x="588" y="512" type="curve" smooth="yes"/>
      <point x="596" y="545"/>
      <point x="544" y="591"/>
      <point x="514" y="592" type="curve"/>
      <point x="513" y="582"/>
      <point x="511" y="573"/>
      <point x="508" y="560" type="curve" smooth="yes"/>
      <point x="475" y="422"/>
      <point x="351" y="369"/>
      <point x="199" y="369" type="curve"/>
      <point x="194" y="358"/>
      <point x="190" y="350"/>
      <point x="188" y="336" type="curve" smooth="yes"/>
      <point x="183" y="319"/>
      <point x="204" y="310"/>
    </contour>
    <contour>
      <point x="208" y="283" type="curve" smooth="yes"/>
      <point x="348" y="279"/>
      <point x="443" y="231"/>
      <point x="420" y="140" type="curve" smooth="yes"/>
      <point x="418" y="129"/>
      <point x="416" y="123"/>
      <point x="412" y="115" type="curve"/>
      <point x="452" y="117"/>
      <point x="504" y="134"/>
      <point x="511" y="158" type="curve" smooth="yes"/>
      <point x="542" y="286"/>
      <point x="415" y="348"/>
      <point x="194" y="348" type="curve"/>
      <point x="190" y="343"/>
      <point x="189" y="341"/>
      <point x="188" y="336" type="curve" smooth="yes"/>
      <point x="179" y="303"/>
      <point x="183" y="285"/>
    </contour>
    <contour>
      <point x="242" y="76" type="curve" smooth="yes"/>
      <point x="145" y="76"/>
      <point x="91" y="104"/>
      <point x="50" y="169" type="curve"/>
      <point x="46" y="169" type="line"/>
      <point x="38" y="153"/>
      <point x="33" y="141"/>
      <point x="28" y="120" type="curve" smooth="yes"/>
      <point x="19" y="85"/>
      <point x="21" y="68"/>
      <point x="37" y="47" type="curve" smooth="yes"/>
      <point x="65" y="10"/>
      <point x="135" y="-20"/>
      <point x="232" y="-20" type="curve" smooth="yes"/>
      <point x="382" y="-20"/>
      <point x="481" y="39"/>
      <point x="508" y="146" type="curve" smooth="yes"/>
      <point x="511" y="158" type="line" smooth="yes"/>
      <point x="519" y="190"/>
      <point x="480" y="237"/>
      <point x="452" y="239" type="curve"/>
      <point x="451" y="230"/>
      <point x="448" y="220"/>
      <point x="446" y="209" type="curve" smooth="yes"/>
      <point x="424" y="123"/>
      <point x="364" y="76"/>
    </contour>
  </outline>
</glyph>
<glyph name="four" format="1">
  <advance width="600"/>
  <unicode hex="0034"/>
  <outline>
    <contour>
      <point x="114" y="211" type="curve"/>
      <point x="219" y="377"/>
      <point x="439" y="588"/>
      <point x="614" y="681" type="curve"/>
      <point x="615" y="685" type="line"/>
      <point x="600" y="702"/>
      <point x="570" y="713"/>
      <point x="524" y="713" type="curve" smooth="yes"/>
      <point x="492" y="713"/>
      <point x="467" y="706"/>
      <point x="398" y="655" type="curve" smooth="yes"/>
      <point x="223" y="524"/>
      <point x="60" y="323"/>
      <point x="39" y="239" type="curve" smooth="yes"/>
      <point x="34" y="220"/>
      <point x="80" y="211"/>
    </contour>
    <contour>
      <point x="537" y="152" type="line"/>
      <point x="540" y="161"/>
      <point x="544" y="172"/>
      <point x="546" y="180" type="curve" smooth="yes"/>
      <point x="554" y="213"/>
      <point x="556" y="248"/>
      <point x="529" y="248" type="curve" smooth="yes"/>
      <point x="312" y="248" type="line"/>
      <point x="232" y="248"/>
      <point x="127" y="246"/>
      <point x="39" y="239" type="curve"/>
      <point x="36" y="229" type="line" smooth="yes"/>
      <point x="29" y="198"/>
      <point x="33" y="176"/>
      <point x="42" y="162" type="curve" smooth="yes"/>
      <point x="48" y="155"/>
      <point x="54" y="152"/>
      <point x="68" y="152" type="curve" smooth="yes"/>
    </contour>
    <contour>
      <point x="428" y="-4" type="curve"/>
      <point x="428" y="30"/>
      <point x="432" y="55"/>
      <point x="442" y="98" type="curve" smooth="yes"/>
      <point x="507" y="357" type="line" smooth="yes"/>
      <point x="511" y="375"/>
      <point x="487" y="396"/>
      <point x="449" y="396" type="curve" smooth="yes"/>
      <point x="442" y="396" type="line"/>
      <point x="413" y="334"/>
      <point x="378" y="255"/>
      <point x="363" y="194" type="curve"/>
      <point x="329" y="58" type="line" smooth="yes"/>
      <point x="317" y="9"/>
      <point x="339" y="-8"/>
      <point x="384" y="-8" type="curve" smooth="yes"/>
      <point x="404" y="-8"/>
      <point x="418" y="-7"/>
    </contour>
  </outline>
</glyph>
<glyph name="six" format="1">
  <advance width="600"/>
  <unicode hex="0036"/>
  <outline>
    <contour>
      <point x="117" y="140" type="curve"/>
      <point x="84" y="66"/>
      <point x="164" y="-20"/>
      <point x="260" y="-20" type="curve"/>
      <point x="399" y="-20"/>
      <point x="480" y="51"/>
      <point x="513" y="183" type="curve" smooth="yes"/>
      <point x="515" y="188" type="line" smooth="yes"/>
      <point x="543" y="298"/>
      <point x="472" y="357"/>
      <point x="410" y="324" type="curve"/>
      <point x="430" y="288"/>
      <point x="432" y="248"/>
      <point x="418" y="196" type="curve" smooth="yes"/>
      <point x="417" y="191" type="line" smooth="yes"/>
      <point x="399" y="118"/>
      <point x="351" y="74"/>
      <point x="265" y="74" type="curve" smooth="yes"/>
      <point x="201" y="74"/>
      <point x="158" y="93"/>
    </contour>
    <contour>
      <point x="236" y="551" type="curve"/>
      <point x="302" y="599"/>
      <point x="360" y="624"/>
      <point x="434" y="624" type="curve" smooth="yes"/>
      <point x="497" y="624"/>
      <point x="544" y="609"/>
      <point x="578" y="579" type="curve"/>
      <point x="582" y="579" type="line"/>
      <point x="588" y="590"/>
      <point x="592" y="601"/>
      <point x="597" y="617" type="curve" smooth="yes"/>
      <point x="606" y="653"/>
      <point x="601" y="670"/>
      <point x="593" y="680" type="curve" smooth="yes"/>
      <point x="579" y="700"/>
      <point x="528" y="720"/>
      <point x="451" y="720" type="curve" smooth="yes"/>
      <point x="339" y="720"/>
      <point x="218" y="645"/>
    </contour>
    <contour>
      <point x="83" y="348" type="curve" smooth="yes"/>
      <point x="80" y="338" type="line" smooth="yes"/>
      <point x="25" y="109"/>
      <point x="104" y="-20"/>
      <point x="260" y="-20" type="curve" smooth="yes"/>
      <point x="270" y="-20"/>
      <point x="292" y="-9"/>
      <point x="302" y="26" type="curve"/>
      <point x="177" y="41"/>
      <point x="135" y="150"/>
      <point x="180" y="334" type="curve" smooth="yes"/>
      <point x="183" y="344" type="line" smooth="yes"/>
      <point x="239" y="570"/>
      <point x="307" y="639"/>
      <point x="474" y="676" type="curve"/>
      <point x="481" y="701"/>
      <point x="470" y="720"/>
      <point x="451" y="720" type="curve" smooth="yes"/>
      <point x="279" y="719"/>
      <point x="151" y="630"/>
    </contour>
    <contour>
      <point x="351" y="394" type="curve" smooth="yes"/>
      <point x="277" y="394"/>
      <point x="205" y="369"/>
      <point x="163" y="336" type="curve" smooth="yes"/>
      <point x="145" y="321"/>
      <point x="136" y="301"/>
      <point x="123" y="256" type="curve"/>
      <point x="187" y="292"/>
      <point x="254" y="310"/>
      <point x="319" y="310" type="curve" smooth="yes"/>
      <point x="427" y="310"/>
      <point x="475" y="250"/>
      <point x="454" y="165" type="curve" smooth="yes"/>
      <point x="451" y="152"/>
      <point x="447" y="139"/>
      <point x="440" y="129" type="curve"/>
      <point x="470" y="129"/>
      <point x="507" y="155"/>
      <point x="515" y="187" type="curve" smooth="yes"/>
      <point x="548" y="320"/>
      <point x="467" y="394"/>
    </contour>
  </outline>
</glyph>
<glyph name="seven" format="1">
  <advance width="600"/>
  <unicode hex="0037"/>
  <outline>
    <contour>
      <point x="523" y="604" type="line" smooth="yes"/>
      <point x="559" y="604"/>
      <point x="594" y="606"/>
      <point x="625" y="610" type="curve"/>
      <point x="628" y="621" type="line"/>
      <point x="636" y="654"/>
      <point x="630" y="700"/>
      <point x="605" y="700" type="curve"/>
      <point x="208" y="700" type="line"/>
      <point x="204" y="682" type="line" smooth="yes"/>
      <point x="191" y="632"/>
      <point x="196" y="604"/>
      <point x="223" y="604" type="curve" smooth="yes"/>
    </contour>
    <contour>
      <point x="259" y="-10" type="line"/>
      <point x="320" y="234"/>
      <point x="589" y="466"/>
      <point x="625" y="610" type="curve" smooth="yes"/>
      <point x="629" y="627"/>
      <point x="580" y="636"/>
      <point x="524" y="635" type="curve"/>
      <point x="488" y="490"/>
      <point x="216" y="239"/>
      <point x="167" y="43" type="curve" smooth="yes"/>
      <point x="158" y="7"/>
      <point x="205" y="-10"/>
      <point x="241" y="-10" type="curve" smooth="yes"/>
    </contour>
    <contour>
      <point x="216" y="465" type="curve"/>
      <point x="243" y="575"/>
      <point x="282" y="647"/>
      <point x="290" y="682" type="curve"/>
      <point x="297" y="708"/>
      <point x="255" y="720"/>
      <point x="215" y="720" type="curve" smooth="yes"/>
      <point x="207" y="720" type="line"/>
      <point x="171" y="649"/>
      <point x="145" y="575"/>
      <point x="128" y="504" type="curve"/>
      <point x="118" y="469"/>
      <point x="144" y="463"/>
      <point x="182" y="463" type="curve" smooth="yes"/>
      <point x="195" y="463"/>
      <point x="207" y="464"/>
    </contour>
  </outline>
</glyph>
<glyph name="eight" format="1">
  <advance width="600"/>
  <unicode hex="0038"/>
  <outline>
    <contour>
      <point x="393" y="332" type="curve" smooth="yes"/>
      <point x="313" y="364" type="line" smooth="yes"/>
      <point x="225" y="400"/>
      <point x="211" y="460"/>
      <point x="226" y="517" type="curve" smooth="yes"/>
      <point x="231" y="538"/>
      <point x="239" y="566"/>
      <point x="254" y="599" type="curve"/>
      <point x="202" y="593"/>
      <point x="149" y="573"/>
      <point x="136" y="523" type="curve" smooth="yes"/>
      <point x="118" y="448"/>
      <point x="141" y="355"/>
      <point x="268" y="303" type="curve" smooth="yes"/>
      <point x="348" y="270" type="line" smooth="yes"/>
      <point x="424" y="239"/>
      <point x="435" y="197"/>
      <point x="416" y="121" type="curve" smooth="yes"/>
      <point x="414" y="112"/>
      <point x="412" y="103"/>
      <point x="409" y="92" type="curve"/>
      <point x="446" y="95"/>
      <point x="502" y="123"/>
      <point x="510" y="151" type="curve"/>
      <point x="523" y="206"/>
      <point x="505" y="288"/>
    </contour>
    <contour>
      <point x="240" y="-20" type="curve" smooth="yes"/>
      <point x="398" y="-20"/>
      <point x="479" y="35"/>
      <point x="507" y="142" type="curve" smooth="yes"/>
      <point x="510" y="151" type="line" smooth="yes"/>
      <point x="515" y="170"/>
      <point x="482" y="213"/>
      <point x="455" y="215" type="curve"/>
      <point x="454" y="208"/>
      <point x="454" y="203"/>
      <point x="451" y="192" type="curve" smooth="yes"/>
      <point x="433" y="115"/>
      <point x="367" y="74"/>
      <point x="252" y="74" type="curve" smooth="yes"/>
      <point x="158" y="74"/>
      <point x="126" y="106"/>
      <point x="94" y="162" type="curve"/>
      <point x="25" y="90"/>
      <point x="106" y="-20"/>
    </contour>
    <contour>
      <point x="408" y="720" type="curve" smooth="yes"/>
      <point x="264" y="720"/>
      <point x="164" y="645"/>
      <point x="138" y="529" type="curve" smooth="yes"/>
      <point x="136" y="523" type="line" smooth="yes"/>
      <point x="129" y="489"/>
      <point x="169" y="451"/>
      <point x="215" y="448" type="curve"/>
      <point x="217" y="468"/>
      <point x="220" y="493"/>
      <point x="226" y="517" type="curve" smooth="yes"/>
      <point x="247" y="603"/>
      <point x="326" y="631"/>
      <point x="395" y="631" type="curve" smooth="yes"/>
      <point x="453" y="631"/>
      <point x="502" y="610"/>
      <point x="532" y="571" type="curve"/>
      <point x="594" y="627"/>
      <point x="487" y="720"/>
    </contour>
    <contour>
      <point x="360" y="319" type="curve" smooth="yes"/>
      <point x="439" y="319"/>
      <point x="564" y="397"/>
      <point x="593" y="508" type="curve" smooth="yes"/>
      <point x="595" y="516" type="line" smooth="yes"/>
      <point x="626" y="637"/>
      <point x="543" y="720"/>
      <point x="408" y="720" type="curve" smooth="yes"/>
      <point x="393" y="720"/>
      <point x="373" y="712"/>
      <point x="359" y="670" type="curve"/>
      <point x="464" y="670"/>
      <point x="525" y="611"/>
      <point x="501" y="515" type="curve" smooth="yes"/>
      <point x="499" y="507" type="line" smooth="yes"/>
      <point x="480" y="431"/>
      <point x="416" y="384"/>
      <point x="297" y="345" type="curve"/>
      <point x="317" y="327"/>
      <point x="334" y="319"/>
    </contour>
    <contour>
      <point x="298" y="33" type="curve"/>
      <point x="155" y="33"/>
      <point x="110" y="100"/>
      <point x="121" y="146" type="curve" smooth="yes"/>
      <point x="123" y="154" type="line" smooth="yes"/>
      <point x="140" y="228"/>
      <point x="208" y="272"/>
      <point x="331" y="299" type="curve"/>
      <point x="312" y="319"/>
      <point x="301" y="331"/>
      <point x="271" y="331" type="curve" smooth="yes"/>
      <point x="183" y="331"/>
      <point x="64" y="274"/>
      <point x="40" y="176" type="curve" smooth="yes"/>
      <point x="38" y="168" type="line" smooth="yes"/>
      <point x="13" y="72"/>
      <point x="81" y="-20"/>
      <point x="240" y="-20" type="curve" smooth="yes"/>
      <point x="268" y="-20"/>
      <point x="290" y="2"/>
    </contour>
  </outline>
</glyph>
<glyph name="nine" format="1">
  <advance width="600"/>
  <unicode hex="0039"/>
  <outline>
    <contour>
      <point x="527" y="560" type="curve"/>
      <point x="571" y="624"/>
      <point x="493" y="720"/>
      <point x="397" y="720" type="curve"/>
      <point x="261" y="720"/>
      <point x="155" y="640"/>
      <point x="115" y="479" type="curve" smooth="yes"/>
      <point x="112" y="469" type="line" smooth="yes"/>
      <point x="83" y="352"/>
      <point x="158" y="280"/>
      <point x="222" y="314" type="curve"/>
      <point x="192" y="353"/>
      <point x="193" y="398"/>
      <point x="207" y="456" type="curve" smooth="yes"/>
      <point x="208" y="462" type="line" smooth="yes"/>
      <point x="234" y="563"/>
      <point x="299" y="626"/>
      <point x="388" y="626" type="curve" smooth="yes"/>
      <point x="451" y="626"/>
      <point x="491" y="607"/>
    </contour>
    <contour>
      <point x="417" y="154" type="curve"/>
      <point x="347" y="99"/>
      <point x="285" y="76"/>
      <point x="209" y="76" type="curve" smooth="yes"/>
      <point x="145" y="76"/>
      <point x="98" y="93"/>
      <point x="62" y="123" type="curve"/>
      <point x="58" y="123" type="line"/>
      <point x="51" y="112"/>
      <point x="46" y="101"/>
      <point x="43" y="85" type="curve" smooth="yes"/>
      <point x="36" y="52"/>
      <point x="40" y="35"/>
      <point x="49" y="23" type="curve" smooth="yes"/>
      <point x="65" y="3"/>
      <point x="119" y="-20"/>
      <point x="200" y="-20" type="curve" smooth="yes"/>
      <point x="315" y="-20"/>
      <point x="430" y="58"/>
    </contour>
    <contour>
      <point x="559" y="356" type="curve" smooth="yes"/>
      <point x="561" y="366" type="line" smooth="yes"/>
      <point x="618" y="596"/>
      <point x="552" y="720"/>
      <point x="397" y="720" type="curve" smooth="yes"/>
      <point x="383" y="720"/>
      <point x="364" y="712"/>
      <point x="353" y="669" type="curve"/>
      <point x="488" y="650"/>
      <point x="508" y="554"/>
      <point x="462" y="369" type="curve" smooth="yes"/>
      <point x="459" y="359" type="line" smooth="yes"/>
      <point x="402" y="130"/>
      <point x="338" y="60"/>
      <point x="173" y="32" type="curve"/>
      <point x="166" y="-1"/>
      <point x="181" y="-20"/>
      <point x="200" y="-20" type="curve" smooth="yes"/>
      <point x="370" y="-20"/>
      <point x="485" y="62"/>
    </contour>
    <contour>
      <point x="276" y="236" type="curve" smooth="yes"/>
      <point x="347" y="236"/>
      <point x="410" y="252"/>
      <point x="452" y="288" type="curve" smooth="yes"/>
      <point x="470" y="304"/>
      <point x="479" y="324"/>
      <point x="488" y="373" type="curve"/>
      <point x="427" y="335"/>
      <point x="367" y="318"/>
      <point x="302" y="318" type="curve" smooth="yes"/>
      <point x="195" y="318"/>
      <point x="144" y="380"/>
      <point x="169" y="478" type="curve" smooth="yes"/>
      <point x="174" y="498"/>
      <point x="179" y="513"/>
      <point x="189" y="530" type="curve"/>
      <point x="157" y="530"/>
      <point x="123" y="511"/>
      <point x="112" y="469" type="curve" smooth="yes"/>
      <point x="75" y="321"/>
      <point x="149" y="236"/>
    </contour>
  </outline>
</glyph>
<glyph name="colon" format="1">
  <advance width="300"/>
  <unicode hex="003A"/>
  <outline>
    <contour>
      <point x="261" y="380" type="curve"/>
      <point x="285" y="478" type="line" smooth="yes"/>
      <point x="297" y="526"/>
      <point x="256" y="542"/>
      <point x="201" y="542" type="curve" smooth="yes"/>
      <point x="178" y="542"/>
      <point x="154" y="538"/>
      <point x="134" y="532" type="curve"/>
      <point x="109" y="433" type="line" smooth="yes"/>
      <point x="97" y="385"/>
      <point x="139" y="370"/>
      <point x="194" y="370" type="curve" smooth="yes"/>
      <point x="217" y="370"/>
      <point x="240" y="373"/>
    </contour>
    <contour>
      <point x="166" y="2" type="curve"/>
      <point x="191" y="101" type="line" smooth="yes"/>
      <point x="203" y="149"/>
      <point x="162" y="164"/>
      <point x="106" y="164" type="curve" smooth="yes"/>
      <point x="84" y="164"/>
      <point x="60" y="161"/>
      <point x="40" y="154" type="curve"/>
      <point x="15" y="55" type="line" smooth="yes"/>
      <point x="3" y="7"/>
      <point x="44" y="-8"/>
      <point x="100" y="-8" type="curve" smooth="yes"/>
      <point x="122" y="-8"/>
      <point x="146" y="-4"/>
    </contour>
  </outline>
</glyph>
<glyph name="semicolon" format="1">
  <advance width="350"/>
  <unicode hex="003B"/>
  <outline>
    <contour>
      <point x="283" y="378" type="curve"/>
      <point x="308" y="477" type="line" smooth="yes"/>
      <point x="320" y="525"/>
      <point x="278" y="540"/>
      <point x="223" y="540" type="curve" smooth="yes"/>
      <point x="200" y="540"/>
      <point x="177" y="537"/>
      <point x="156" y="530" type="curve"/>
      <point x="131" y="431" type="line" smooth="yes"/>
      <point x="119" y="383"/>
      <point x="161" y="368"/>
      <point x="216" y="368" type="curve" smooth="yes"/>
      <point x="239" y="368"/>
      <point x="262" y="372"/>
    </contour>
    <contour>
      <point x="-5" y="-195" type="curve" smooth="yes"/>
      <point x="12" y="-195"/>
      <point x="21" y="-192"/>
      <point x="32" y="-183" type="curve"/>
      <point x="99" y="-130"/>
      <point x="176" y="-20"/>
      <point x="203" y="90" type="curve"/>
      <point x="214" y="131"/>
      <point x="188" y="146"/>
      <point x="134" y="146" type="curve" smooth="yes"/>
      <point x="114" y="146"/>
      <point x="100" y="144"/>
      <point x="80" y="139" type="curve"/>
      <point x="44" y="-3"/>
      <point x="4" y="-84"/>
      <point x="-72" y="-172" type="curve"/>
      <point x="-55" y="-188"/>
      <point x="-36" y="-195"/>
    </contour>
  </outline>
</glyph>
<glyph name="less" format="1">
  <advance width="600"/>
  <unicode hex="003C"/>
  <outline>
    <contour>
      <point x="583" y="487" type="curve"/>
      <point x="587" y="504" type="line"/>
      <point x="595" y="538"/>
      <point x="586" y="574"/>
      <point x="562" y="574" type="curve" smooth="yes"/>
      <point x="549" y="574"/>
      <point x="516" y="567"/>
      <point x="468" y="550" type="curve" smooth="yes"/>
      <point x="314" y="497"/>
      <point x="183" y="417"/>
      <point x="84" y="327" type="curve"/>
      <point x="78" y="300" type="line"/>
      <point x="72" y="277"/>
      <point x="96" y="268"/>
      <point x="151" y="275" type="curve"/>
      <point x="278" y="380"/>
      <point x="374" y="441"/>
    </contour>
    <contour>
      <point x="459" y="19" type="curve"/>
      <point x="465" y="29"/>
      <point x="469" y="40"/>
      <point x="473" y="56" type="curve" smooth="yes"/>
      <point x="482" y="91"/>
      <point x="479" y="118"/>
      <point x="461" y="124" type="curve" smooth="yes"/>
      <point x="300" y="176"/>
      <point x="237" y="226"/>
      <point x="156" y="331" type="curve" smooth="yes"/>
      <point x="151" y="338"/>
      <point x="150" y="344"/>
      <point x="151" y="350" type="curve" smooth="yes"/>
      <point x="152" y="354"/>
      <point x="154" y="360"/>
      <point x="156" y="368" type="curve"/>
      <point x="107" y="344"/>
      <point x="83" y="322"/>
      <point x="79" y="304" type="curve" smooth="yes"/>
      <point x="76" y="295" type="line" smooth="yes"/>
      <point x="70" y="272"/>
      <point x="74" y="259"/>
      <point x="98" y="230" type="curve" smooth="yes"/>
      <point x="178" y="141"/>
      <point x="263" y="68"/>
    </contour>
  </outline>
</glyph>
<glyph name="greater" format="1">
  <advance width="550"/>
  <unicode hex="003E"/>
  <outline>
    <contour>
      <point x="34" y="113" type="curve"/>
      <point x="30" y="97" type="line"/>
      <point x="22" y="63"/>
      <point x="31" y="26"/>
      <point x="55" y="26" type="curve" smooth="yes"/>
      <point x="68" y="26"/>
      <point x="101" y="34"/>
      <point x="149" y="50" type="curve" smooth="yes"/>
      <point x="303" y="103"/>
      <point x="434" y="183"/>
      <point x="533" y="274" type="curve"/>
      <point x="539" y="300" type="line"/>
      <point x="545" y="324"/>
      <point x="521" y="333"/>
      <point x="466" y="325" type="curve"/>
      <point x="339" y="221"/>
      <point x="243" y="159"/>
    </contour>
    <contour>
      <point x="158" y="581" type="curve"/>
      <point x="152" y="571"/>
      <point x="148" y="560"/>
      <point x="144" y="545" type="curve" smooth="yes"/>
      <point x="135" y="510"/>
      <point x="138" y="482"/>
      <point x="156" y="476" type="curve" smooth="yes"/>
      <point x="317" y="424"/>
      <point x="380" y="374"/>
      <point x="461" y="270" type="curve" smooth="yes"/>
      <point x="466" y="263"/>
      <point x="467" y="256"/>
      <point x="466" y="251" type="curve" smooth="yes"/>
      <point x="464" y="247"/>
      <point x="463" y="241"/>
      <point x="461" y="233" type="curve"/>
      <point x="510" y="257"/>
      <point x="534" y="279"/>
      <point x="538" y="296" type="curve" smooth="yes"/>
      <point x="541" y="306" type="line" smooth="yes"/>
      <point x="547" y="329"/>
      <point x="543" y="342"/>
      <point x="519" y="370" type="curve" smooth="yes"/>
      <point x="439" y="460"/>
      <point x="354" y="533"/>
    </contour>
  </outline>
</glyph>
<glyph name="question" format="1">
  <advance width="600"/>
  <unicode hex="003F"/>
  <outline>
    <contour>
      <point x="418" y="720" type="curve" smooth="yes"/>
      <point x="342" y="720"/>
      <point x="273" y="698"/>
      <point x="229" y="663" type="curve" smooth="yes"/>
      <point x="196" y="637"/>
      <point x="171" y="602"/>
      <point x="162" y="564" type="curve" smooth="yes"/>
      <point x="156" y="543"/>
      <point x="160" y="528"/>
      <point x="167" y="514" type="curve"/>
      <point x="171" y="514" type="line"/>
      <point x="231" y="580"/>
      <point x="303" y="622"/>
      <point x="397" y="622" type="curve" smooth="yes"/>
      <point x="491" y="622"/>
      <point x="531" y="586"/>
      <point x="519" y="537" type="curve" smooth="yes"/>
      <point x="513" y="514"/>
      <point x="509" y="501"/>
      <point x="500" y="485" type="curve"/>
      <point x="551" y="482"/>
      <point x="583" y="517"/>
      <point x="590" y="545" type="curve" smooth="yes"/>
      <point x="612" y="633"/>
      <point x="571" y="720"/>
    </contour>
    <contour>
      <point x="475" y="657" type="curve"/>
      <point x="494" y="619"/>
      <point x="503" y="595"/>
      <point x="492" y="550" type="curve" smooth="yes"/>
      <point x="481" y="507"/>
      <point x="458" y="473"/>
      <point x="388" y="430" type="curve" smooth="yes"/>
      <point x="362" y="414" type="line" smooth="yes"/>
      <point x="287" y="369"/>
      <point x="250" y="333"/>
      <point x="241" y="296" type="curve" smooth="yes"/>
      <point x="240" y="292" type="line" smooth="yes"/>
      <point x="234" y="269"/>
      <point x="255" y="244"/>
      <point x="310" y="244" type="curve" smooth="yes"/>
      <point x="317" y="244" type="line"/>
      <point x="319" y="251" type="line" smooth="yes"/>
      <point x="328" y="286"/>
      <point x="346" y="309"/>
      <point x="409" y="347" type="curve" smooth="yes"/>
      <point x="439" y="364" type="line" smooth="yes"/>
      <point x="527" y="415"/>
      <point x="572" y="472"/>
      <point x="589" y="539" type="curve" smooth="yes"/>
      <point x="590" y="545" type="line" smooth="yes"/>
      <point x="606" y="606"/>
      <point x="563" y="683"/>
    </contour>
    <contour>
      <point x="298" y="2" type="curve"/>
      <point x="320" y="91" type="line" smooth="yes"/>
      <point x="332" y="139"/>
      <point x="291" y="155"/>
      <point x="235" y="155" type="curve" smooth="yes"/>
      <point x="213" y="155"/>
      <point x="189" y="151"/>
      <point x="169" y="144" type="curve"/>
      <point x="146" y="55" type="line" smooth="yes"/>
      <point x="134" y="7"/>
      <point x="176" y="-8"/>
      <point x="231" y="-8" type="curve" smooth="yes"/>
      <point x="254" y="-8"/>
      <point x="277" y="-4"/>
    </contour>
  </outline>
</glyph>
<glyph name="B" format="1">
  <advance width="600"/>
  <unicode hex="0042"/>
  <outline>
    <contour>
      <point x="130" y="23" type="curve"/>
      <point x="263" y="556" type="line" smooth="yes"/>
      <point x="280" y="621"/>
      <point x="253" y="648"/>
      <point x="183" y="648" type="curve"/>
      <point x="35" y="56" type="line"/>
      <point x="30" y="36"/>
      <point x="74" y="23"/>
    </contour>
    <contour>
      <point x="146" y="700" type="curve"/>
      <point x="142" y="690"/>
      <point x="139" y="680"/>
      <point x="136" y="667" type="curve" smooth="yes"/>
      <point x="129" y="640"/>
      <point x="129" y="623"/>
      <point x="137" y="612" type="curve" smooth="yes"/>
      <point x="142" y="606"/>
      <point x="147" y="605"/>
      <point x="154" y="605" type="curve" smooth="yes"/>
      <point x="163" y="605"/>
      <point x="176" y="607"/>
      <point x="201" y="611" type="curve" smooth="yes"/>
      <point x="251" y="618"/>
      <point x="316" y="625"/>
      <point x="376" y="625" type="curve" smooth="yes"/>
      <point x="461" y="625"/>
      <point x="501" y="613"/>
      <point x="539" y="570" type="curve"/>
      <point x="596" y="619"/>
      <point x="519" y="720"/>
      <point x="408" y="720" type="curve" smooth="yes"/>
      <point x="326" y="720"/>
      <point x="243" y="715"/>
    </contour>
    <contour>
      <point x="592" y="507" type="curve" smooth="yes"/>
      <point x="598" y="529" type="line" smooth="yes"/>
      <point x="621" y="621"/>
      <point x="565" y="720"/>
      <point x="408" y="720" type="curve" smooth="yes"/>
      <point x="397" y="720"/>
      <point x="384" y="705"/>
      <point x="376" y="671" type="curve"/>
      <point x="488" y="671"/>
      <point x="519" y="607"/>
      <point x="496" y="516" type="curve" smooth="yes"/>
      <point x="491" y="498" type="line" smooth="yes"/>
      <point x="468" y="407"/>
      <point x="393" y="359"/>
      <point x="255" y="359" type="curve" smooth="yes"/>
      <point x="221" y="359"/>
      <point x="209" y="362"/>
      <point x="189" y="371" type="curve"/>
      <point x="179" y="363"/>
      <point x="175" y="356"/>
      <point x="173" y="344" type="curve" smooth="yes"/>
      <point x="165" y="312"/>
      <point x="195" y="281"/>
      <point x="234" y="281" type="curve" smooth="yes"/>
      <point x="246" y="281" type="line" smooth="yes"/>
      <point x="417" y="281"/>
      <point x="554" y="358"/>
    </contour>
    <contour>
      <point x="508" y="190" type="curve" smooth="yes"/>
      <point x="513" y="210" type="line" smooth="yes"/>
      <point x="531" y="283"/>
      <point x="478" y="352"/>
      <point x="413" y="352" type="curve" smooth="yes"/>
      <point x="407" y="352" type="line" smooth="yes"/>
      <point x="373" y="352"/>
      <point x="345" y="334"/>
      <point x="342" y="320" type="curve"/>
      <point x="341" y="317" type="line"/>
      <point x="348" y="317" type="line"/>
      <point x="400" y="317"/>
      <point x="430" y="272"/>
      <point x="415" y="213" type="curve" smooth="yes"/>
      <point x="411" y="198" type="line" smooth="yes"/>
      <point x="392" y="121"/>
      <point x="309" y="83"/>
      <point x="226" y="83" type="curve" smooth="yes"/>
      <point x="145" y="83"/>
      <point x="115" y="96"/>
      <point x="83" y="122" type="curve"/>
      <point x="56" y="100"/>
      <point x="40" y="77"/>
      <point x="35" y="56" type="curve" smooth="yes"/>
      <point x="27" y="23"/>
      <point x="87" y="-10"/>
      <point x="195" y="-10" type="curve" smooth="yes"/>
      <point x="205" y="-10" type="line" smooth="yes"/>
      <point x="349" y="-10"/>
      <point x="476" y="63"/>
    </contour>
  </outline>
</glyph>
<glyph name="C" format="1">
  <advance width="600"/>
  <unicode hex="0043"/>
  <outline>
    <contour>
      <point x="448" y="632" type="curve" smooth="yes"/>
      <point x="516" y="632"/>
      <point x="554" y="607"/>
      <point x="541" y="508" type="curve"/>
      <point x="574" y="508"/>
      <point x="585" y="515"/>
      <point x="588" y="528" type="curve" smooth="yes"/>
      <point x="606" y="598"/>
      <point x="601" y="642"/>
      <point x="578" y="673" type="curve" smooth="yes"/>
      <point x="558" y="700"/>
      <point x="526" y="720"/>
      <point x="460" y="720" type="curve" smooth="yes"/>
      <point x="288" y="720"/>
      <point x="147" y="573"/>
      <point x="81" y="305" type="curve" smooth="yes"/>
      <point x="73" y="277" type="line" smooth="yes"/>
      <point x="59" y="219"/>
      <point x="96" y="131"/>
      <point x="151" y="133" type="curve"/>
      <point x="149" y="178"/>
      <point x="158" y="229"/>
      <point x="169" y="273" type="curve" smooth="yes"/>
      <point x="173" y="291" type="line" smooth="yes"/>
      <point x="233" y="531"/>
      <point x="350" y="632"/>
    </contour>
    <contour>
      <point x="272" y="-20" type="curve" smooth="yes"/>
      <point x="349" y="-20"/>
      <point x="405" y="-7"/>
      <point x="453" y="32" type="curve" smooth="yes"/>
      <point x="479" y="53"/>
      <point x="492" y="83"/>
      <point x="502" y="123" type="curve" smooth="yes"/>
      <point x="505" y="136"/>
      <point x="507" y="153"/>
      <point x="507" y="168" type="curve"/>
      <point x="503" y="168" type="line"/>
      <point x="441" y="102"/>
      <point x="370" y="75"/>
      <point x="284" y="75" type="curve" smooth="yes"/>
      <point x="153" y="75"/>
      <point x="132" y="177"/>
      <point x="168" y="321" type="curve"/>
      <point x="105" y="321"/>
      <point x="85" y="324"/>
      <point x="73" y="277" type="curve" smooth="yes"/>
      <point x="31" y="107"/>
      <point x="102" y="-20"/>
    </contour>
    <contour>
      <point x="560" y="415" type="curve"/>
      <point x="588" y="528" type="line" smooth="yes"/>
      <point x="613" y="627"/>
      <point x="573" y="676"/>
      <point x="522" y="665" type="curve"/>
      <point x="508" y="607"/>
      <point x="497" y="572"/>
      <point x="485" y="524" type="curve" smooth="yes"/>
      <point x="467" y="453" type="line"/>
      <point x="464" y="441"/>
      <point x="466" y="433"/>
      <point x="472" y="425" type="curve" smooth="yes"/>
      <point x="479" y="415"/>
      <point x="495" y="411"/>
      <point x="523" y="411" type="curve"/>
      <point x="539" y="411"/>
      <point x="550" y="412"/>
    </contour>
    <contour>
      <point x="441" y="711" type="move" name="top"/>
    </contour>
    <contour>
      <point x="260" y="-6" type="move" name="bottom"/>
    </contour>
  </outline>
</glyph>
<glyph name="D" format="1">
  <advance width="650"/>
  <unicode hex="0044"/>
  <outline>
    <contour>
      <point x="133" y="29" type="curve"/>
      <point x="264" y="555" type="line" smooth="yes"/>
      <point x="281" y="621"/>
      <point x="254" y="648"/>
      <point x="184" y="648" type="curve"/>
      <point x="39" y="67" type="line" smooth="yes"/>
      <point x="33" y="47"/>
      <point x="74" y="29"/>
    </contour>
    <contour>
      <point x="148" y="700" type="curve"/>
      <point x="143" y="690"/>
      <point x="139" y="680"/>
      <point x="137" y="667" type="curve"/>
      <point x="129" y="638"/>
      <point x="130" y="620"/>
      <point x="138" y="608" type="curve" smooth="yes"/>
      <point x="142" y="603"/>
      <point x="147" y="602"/>
      <point x="154" y="602" type="curve" smooth="yes"/>
      <point x="163" y="602"/>
      <point x="176" y="604"/>
      <point x="201" y="607" type="curve" smooth="yes"/>
      <point x="251" y="615"/>
      <point x="311" y="622"/>
      <point x="371" y="622" type="curve"/>
      <point x="464" y="622"/>
      <point x="521" y="602"/>
      <point x="567" y="541" type="curve"/>
      <point x="615" y="609"/>
      <point x="544" y="720"/>
      <point x="393" y="720" type="curve" smooth="yes"/>
      <point x="307" y="720"/>
      <point x="243" y="716"/>
    </contour>
    <contour>
      <point x="605" y="355" type="curve" smooth="yes"/>
      <point x="611" y="376" type="line" smooth="yes"/>
      <point x="663" y="588"/>
      <point x="592" y="720"/>
      <point x="393" y="720" type="curve" smooth="yes"/>
      <point x="371" y="720"/>
      <point x="347" y="704"/>
      <point x="338" y="668" type="curve"/>
      <point x="545" y="655"/>
      <point x="554" y="553"/>
      <point x="512" y="385" type="curve" smooth="yes"/>
      <point x="508" y="371" type="line" smooth="yes"/>
      <point x="462" y="189"/>
      <point x="340" y="91"/>
      <point x="203" y="91" type="curve" smooth="yes"/>
      <point x="138" y="91"/>
      <point x="110" y="97"/>
      <point x="69" y="120" type="curve"/>
      <point x="53" y="106"/>
      <point x="45" y="92"/>
      <point x="39" y="67" type="curve" smooth="yes"/>
      <point x="30" y="31"/>
      <point x="99" y="-10"/>
      <point x="182" y="-10" type="curve" smooth="yes"/>
      <point x="187" y="-10" type="line" smooth="yes"/>
      <point x="397" y="-10"/>
      <point x="547" y="117"/>
    </contour>
    <contour>
      <point x="423" y="711" type="move" name="top"/>
    </contour>
  </outline>
</glyph>
<glyph name="E" format="1">
  <advance width="550"/>
  <unicode hex="0045"/>
  <outline>
    <contour>
      <point x="147" y="700" type="line"/>
      <point x="146" y="695"/>
      <point x="144" y="688"/>
      <point x="143" y="683" type="curve" smooth="yes"/>
      <point x="135" y="651"/>
      <point x="132" y="620"/>
      <point x="141" y="608" type="curve" smooth="yes"/>
      <point x="144" y="604"/>
      <point x="147" y="602"/>
      <point x="154" y="602" type="curve" smooth="yes"/>
      <point x="585" y="602" type="line"/>
      <point x="591" y="612"/>
      <point x="595" y="623"/>
      <point x="598" y="636" type="curve" smooth="yes"/>
      <point x="602" y="651"/>
      <point x="605" y="678"/>
      <point x="595" y="692" type="curve" smooth="yes"/>
      <point x="590" y="698"/>
      <point x="585" y="700"/>
      <point x="574" y="700" type="curve" smooth="yes"/>
    </contour>
    <contour>
      <point x="138" y="50" type="curve"/>
      <point x="260" y="541" type="line" smooth="yes"/>
      <point x="277" y="606"/>
      <point x="257" y="631"/>
      <point x="180" y="631" type="curve"/>
      <point x="44" y="88" type="line"/>
      <point x="36" y="58"/>
      <point x="80" y="50"/>
    </contour>
    <contour>
      <point x="46" y="98" type="line"/>
      <point x="43" y="85" type="line" smooth="yes"/>
      <point x="33" y="46"/>
      <point x="58" y="0"/>
      <point x="90" y="0" type="curve" smooth="yes"/>
      <point x="437" y="0" type="line"/>
      <point x="441" y="9"/>
      <point x="445" y="21"/>
      <point x="447" y="33" type="curve" smooth="yes"/>
      <point x="459" y="79"/>
      <point x="451" y="98"/>
      <point x="422" y="98" type="curve" smooth="yes"/>
    </contour>
    <contour>
      <point x="160" y="374" type="line"/>
      <point x="144" y="312"/>
      <point x="146" y="285"/>
      <point x="176" y="285" type="curve" smooth="yes"/>
      <point x="443" y="285" type="line"/>
      <point x="446" y="291"/>
      <point x="448" y="297"/>
      <point x="449" y="303" type="curve" smooth="yes"/>
      <point x="454" y="323"/>
      <point x="454" y="346"/>
      <point x="441" y="363" type="curve" smooth="yes"/>
      <point x="435" y="372"/>
      <point x="429" y="374"/>
      <point x="415" y="374" type="curve" smooth="yes"/>
    </contour>
    <contour>
      <point x="384" y="711" type="move" name="top"/>
    </contour>
    <contour>
      <point x="394" y="-1" type="move" name="ogonek"/>
    </contour>
    <contour>
      <point x="205" y="-1" type="move" name="bottom"/>
    </contour>
  </outline>
</glyph>
<glyph name="F" format="1">
  <advance width="550"/>
  <unicode hex="0046"/>
  <outline>
    <contour>
      <point x="142" y="-7" type="curve"/>
      <point x="142" y="26"/>
      <point x="146" y="48"/>
      <point x="156" y="88" type="curve" smooth="yes"/>
      <point x="269" y="541" type="line"/>
      <point x="286" y="609"/>
      <point x="266" y="635"/>
      <point x="189" y="635" type="curve"/>
      <point x="43" y="48" type="line" smooth="yes"/>
      <point x="33" y="10"/>
      <point x="60" y="-7"/>
      <point x="131" y="-7" type="curve" smooth="yes"/>
      <point x="135" y="-7"/>
      <point x="138" y="-7"/>
    </contour>
    <contour>
      <point x="146" y="700" type="line"/>
      <point x="145" y="695"/>
      <point x="143" y="688"/>
      <point x="142" y="683" type="curve" smooth="yes"/>
      <point x="132" y="646"/>
      <point x="132" y="619"/>
      <point x="140" y="608" type="curve" smooth="yes"/>
      <point x="143" y="603"/>
      <point x="147" y="602"/>
      <point x="153" y="602" type="curve"/>
      <point x="588" y="602" type="line"/>
      <point x="594" y="610"/>
      <point x="598" y="622"/>
      <point x="602" y="636" type="curve" smooth="yes"/>
      <point x="607" y="658"/>
      <point x="607" y="681"/>
      <point x="599" y="692" type="curve" smooth="yes"/>
      <point x="594" y="698"/>
      <point x="590" y="700"/>
      <point x="578" y="700" type="curve"/>
    </contour>
    <contour>
      <point x="132" y="324" type="line"/>
      <point x="116" y="262"/>
      <point x="115" y="226"/>
      <point x="146" y="226" type="curve"/>
      <point x="453" y="226" type="line"/>
      <point x="455" y="232"/>
      <point x="457" y="238"/>
      <point x="459" y="245" type="curve"/>
      <point x="465" y="270"/>
      <point x="462" y="296"/>
      <point x="451" y="311" type="curve" smooth="yes"/>
      <point x="442" y="322"/>
      <point x="436" y="324"/>
      <point x="419" y="324" type="curve"/>
    </contour>
  </outline>
</glyph>
<glyph name="G" format="1">
  <advance width="650"/>
  <unicode hex="0047"/>
  <outline>
    <contour>
      <point x="482" y="627" type="curve" smooth="yes"/>
      <point x="563" y="627"/>
      <point x="583" y="590"/>
      <point x="567" y="526" type="curve"/>
      <point x="606" y="526"/>
      <point x="627" y="553"/>
      <point x="631" y="569" type="curve" smooth="yes"/>
      <point x="640" y="606"/>
      <point x="636" y="644"/>
      <point x="614" y="673" type="curve" smooth="yes"/>
      <point x="593" y="700"/>
      <point x="557" y="720"/>
      <point x="496" y="720" type="curve" smooth="yes"/>
      <point x="308" y="720"/>
      <point x="145" y="576"/>
      <point x="70" y="284" type="curve" smooth="yes"/>
      <point x="66" y="267" type="line" smooth="yes"/>
      <point x="48" y="195"/>
      <point x="88" y="128"/>
      <point x="150" y="119" type="curve"/>
      <point x="145" y="164"/>
      <point x="150" y="210"/>
      <point x="163" y="260" type="curve" smooth="yes"/>
      <point x="167" y="279" type="line" smooth="yes"/>
      <point x="225" y="509"/>
      <point x="357" y="627"/>
    </contour>
    <contour>
      <point x="289" y="78" type="curve" smooth="yes"/>
      <point x="164" y="78"/>
      <point x="120" y="159"/>
      <point x="162" y="318" type="curve"/>
      <point x="112" y="318"/>
      <point x="77" y="311"/>
      <point x="66" y="267" type="curve" smooth="yes"/>
      <point x="26" y="107"/>
      <point x="97" y="-20"/>
      <point x="285" y="-20" type="curve" smooth="yes"/>
      <point x="428" y="-20"/>
      <point x="516" y="47"/>
      <point x="545" y="163" type="curve" smooth="yes"/>
      <point x="547" y="171" type="line" smooth="yes"/>
      <point x="562" y="233"/>
      <point x="542" y="286"/>
      <point x="492" y="286" type="curve"/>
      <point x="492" y="265"/>
      <point x="489" y="243"/>
      <point x="481" y="212" type="curve" smooth="yes"/>
      <point x="459" y="127"/>
      <point x="385" y="78"/>
    </contour>
    <contour>
      <point x="351" y="327" type="line"/>
      <point x="349" y="322"/>
      <point x="347" y="316"/>
      <point x="345" y="310" type="curve" smooth="yes"/>
      <point x="339" y="284"/>
      <point x="342" y="268"/>
      <point x="350" y="257" type="curve" smooth="yes"/>
      <point x="360" y="244"/>
      <point x="375" y="238"/>
      <point x="416" y="238" type="curve"/>
      <point x="601" y="238" type="line"/>
      <point x="603" y="248" type="line" smooth="yes"/>
      <point x="618" y="306"/>
      <point x="611" y="327"/>
      <point x="578" y="327" type="curve" smooth="yes"/>
    </contour>
    <contour>
      <point x="606" y="468" type="curve"/>
      <point x="631" y="569" type="line" smooth="yes"/>
      <point x="644" y="621"/>
      <point x="611" y="663"/>
      <point x="560" y="657" type="curve"/>
      <point x="547" y="617"/>
      <point x="535" y="581"/>
      <point x="529" y="556" type="curve" smooth="yes"/>
      <point x="517" y="507" type="line" smooth="yes"/>
      <point x="510" y="475"/>
      <point x="525" y="464"/>
      <point x="569" y="464" type="curve" smooth="yes"/>
      <point x="583" y="464"/>
      <point x="596" y="465"/>
    </contour>
    <contour>
      <point x="446" y="711" type="move" name="top"/>
    </contour>
    <contour>
      <point x="268" y="-1" type="move" name="bottom"/>
    </contour>
  </outline>
</glyph>
<glyph name="H" format="1">
  <advance width="650"/>
  <unicode hex="0048"/>
  <outline>
    <contour>
      <point x="194" y="705" type="curve"/>
      <point x="192" y="670"/>
      <point x="185" y="634"/>
      <point x="176" y="595" type="curve" smooth="yes"/>
      <point x="35" y="34" type="line" smooth="yes"/>
      <point x="28" y="3"/>
      <point x="53" y="-10"/>
      <point x="104" y="-10" type="curve" smooth="yes"/>
      <point x="114" y="-10"/>
      <point x="122" y="-10"/>
      <point x="128" y="-9" type="curve"/>
      <point x="292" y="645" type="line" smooth="yes"/>
      <point x="298" y="669"/>
      <point x="299" y="684"/>
      <point x="290" y="695" type="curve" smooth="yes"/>
      <point x="282" y="706"/>
      <point x="268" y="710"/>
      <point x="236" y="710" type="curve" smooth="yes"/>
      <point x="221" y="710"/>
      <point x="208" y="709"/>
    </contour>
    <contour>
      <point x="509" y="-5" type="curve"/>
      <point x="511" y="30"/>
      <point x="518" y="66"/>
      <point x="527" y="105" type="curve" smooth="yes"/>
      <point x="668" y="666" type="line" smooth="yes"/>
      <point x="675" y="696"/>
      <point x="646" y="710"/>
      <point x="589" y="710" type="curve" smooth="yes"/>
      <point x="583" y="710"/>
      <point x="579" y="710"/>
      <point x="575" y="710" type="curve"/>
      <point x="412" y="55" type="line" smooth="yes"/>
      <point x="406" y="31"/>
      <point x="405" y="16"/>
      <point x="413" y="5" type="curve" smooth="yes"/>
      <point x="421" y="-6"/>
      <point x="435" y="-10"/>
      <point x="467" y="-10" type="curve" smooth="yes"/>
      <point x="482" y="-10"/>
      <point x="495" y="-9"/>
    </contour>
    <contour>
      <point x="59" y="348" type="line"/>
      <point x="55" y="331" type="line" smooth="yes"/>
      <point x="47" y="298"/>
      <point x="48" y="273"/>
      <point x="60" y="256" type="curve" smooth="yes"/>
      <point x="64" y="252"/>
      <point x="67" y="250"/>
      <point x="73" y="250" type="curve"/>
      <point x="492" y="250" type="line"/>
      <point x="511" y="323"/>
      <point x="489" y="348"/>
      <point x="425" y="348" type="curve" smooth="yes"/>
    </contour>
    <contour>
      <point x="419" y="711" type="move" name="top"/>
    </contour>
  </outline>
</glyph>
<glyph name="I" format="1">
  <advance width="500"/>
  <unicode hex="0049"/>
  <outline>
    <contour>
      <point x="249" y="55" type="curve"/>
      <point x="371" y="541" type="line" smooth="yes"/>
      <point x="387" y="606"/>
      <point x="368" y="631"/>
      <point x="290" y="631" type="curve"/>
      <point x="173" y="161" type="line" smooth="yes"/>
      <point x="155" y="89"/>
      <point x="171" y="55"/>
    </contour>
    <contour>
      <point x="169" y="700" type="line"/>
      <point x="165" y="694"/>
      <point x="161" y="685"/>
      <point x="159" y="674" type="curve"/>
      <point x="152" y="650"/>
      <point x="154" y="631"/>
      <point x="164" y="618" type="curve" smooth="yes"/>
      <point x="173" y="605"/>
      <point x="190" y="602"/>
      <point x="228" y="602" type="curve" smooth="yes"/>
      <point x="525" y="602" type="line"/>
      <point x="531" y="613"/>
      <point x="536" y="626"/>
      <point x="538" y="637" type="curve" smooth="yes"/>
      <point x="548" y="674"/>
      <point x="546" y="700"/>
      <point x="512" y="700" type="curve" smooth="yes"/>
    </contour>
    <contour>
      <point x="20" y="98" type="line"/>
      <point x="14" y="89"/>
      <point x="9" y="77"/>
      <point x="6" y="65" type="curve"/>
      <point x="1" y="44"/>
      <point x="-1" y="24"/>
      <point x="9" y="12" type="curve" smooth="yes"/>
      <point x="16" y="3"/>
      <point x="23" y="0"/>
      <point x="45" y="0" type="curve" smooth="yes"/>
      <point x="376" y="0" type="line"/>
      <point x="380" y="9"/>
      <point x="384" y="21"/>
      <point x="388" y="33" type="curve" smooth="yes"/>
      <point x="397" y="72"/>
      <point x="396" y="98"/>
      <point x="362" y="98" type="curve" smooth="yes"/>
    </contour>
    <contour>
      <point x="362" y="711" type="move" name="top"/>
    </contour>
    <contour>
      <point x="376" y="-1" type="move" name="ogonek"/>
    </contour>
    <contour>
      <point x="184" y="-1" type="move" name="bottom"/>
    </contour>
  </outline>
</glyph>
<glyph name="J" format="1">
  <advance width="500"/>
  <unicode hex="004A"/>
  <outline>
    <contour>
      <point x="185" y="700" type="line"/>
      <point x="182" y="694"/>
      <point x="179" y="686"/>
      <point x="176" y="677" type="curve" smooth="yes"/>
      <point x="170" y="651"/>
      <point x="171" y="631"/>
      <point x="181" y="617" type="curve" smooth="yes"/>
      <point x="190" y="605"/>
      <point x="204" y="602"/>
      <point x="239" y="602" type="curve" smooth="yes"/>
      <point x="472" y="602" type="line"/>
      <point x="490" y="673"/>
      <point x="481" y="700"/>
      <point x="448" y="700" type="curve"/>
    </contour>
    <contour>
      <point x="414" y="182" type="curve" smooth="yes"/>
      <point x="534" y="662" type="line" smooth="yes"/>
      <point x="540" y="686"/>
      <point x="519" y="700"/>
      <point x="462" y="700" type="curve" smooth="yes"/>
      <point x="441" y="700" type="line"/>
      <point x="323" y="230" type="line" smooth="yes"/>
      <point x="300" y="136"/>
      <point x="272" y="90"/>
      <point x="216" y="42" type="curve"/>
      <point x="274" y="14"/>
      <point x="385" y="68"/>
    </contour>
    <contour>
      <point x="171" y="78" type="curve" smooth="yes"/>
      <point x="96" y="78"/>
      <point x="71" y="94"/>
      <point x="19" y="131" type="curve"/>
      <point x="15" y="131" type="line"/>
      <point x="9" y="120"/>
      <point x="4" y="108"/>
      <point x="2" y="96" type="curve"/>
      <point x="-6" y="55"/>
      <point x="-2" y="39"/>
      <point x="8" y="26" type="curve" smooth="yes"/>
      <point x="30" y="0"/>
      <point x="78" y="-20"/>
      <point x="150" y="-20" type="curve" smooth="yes"/>
      <point x="156" y="-20" type="line" smooth="yes"/>
      <point x="290" y="-20"/>
      <point x="382" y="54"/>
      <point x="414" y="182" type="curve"/>
      <point x="419" y="205"/>
      <point x="419" y="254"/>
      <point x="370" y="271" type="curve"/>
      <point x="334" y="129"/>
      <point x="268" y="78"/>
    </contour>
    <contour>
      <point x="366" y="711" type="move" name="top"/>
    </contour>
  </outline>
</glyph>
<glyph name="L" format="1">
  <advance width="550"/>
  <unicode hex="004C"/>
  <outline>
    <contour>
      <point x="131" y="46" type="curve"/>
      <point x="281" y="645" type="line" smooth="yes"/>
      <point x="287" y="669"/>
      <point x="287" y="684"/>
      <point x="279" y="695" type="curve" smooth="yes"/>
      <point x="271" y="706"/>
      <point x="256" y="710"/>
      <point x="225" y="710" type="curve" smooth="yes"/>
      <point x="210" y="710"/>
      <point x="198" y="709"/>
      <point x="182" y="705" type="curve"/>
      <point x="181" y="670"/>
      <point x="175" y="634"/>
      <point x="165" y="595" type="curve" smooth="yes"/>
      <point x="38" y="89" type="line" smooth="yes"/>
      <point x="31" y="58"/>
      <point x="68" y="46"/>
    </contour>
    <contour>
      <point x="41" y="98" type="line"/>
      <point x="37" y="85" type="line" smooth="yes"/>
      <point x="28" y="46"/>
      <point x="52" y="0"/>
      <point x="84" y="0" type="curve" smooth="yes"/>
      <point x="435" y="0" type="line"/>
      <point x="439" y="9"/>
      <point x="443" y="21"/>
      <point x="446" y="33" type="curve" smooth="yes"/>
      <point x="457" y="79"/>
      <point x="449" y="98"/>
      <point x="420" y="98" type="curve" smooth="yes"/>
    </contour>
    <contour>
      <point x="464" y="551" type="move" name="caronslovak"/>
    </contour>
    <contour>
      <point x="247" y="711" type="move" name="top"/>
    </contour>
    <contour>
      <point x="472" y="400" type="move" name="dot"/>
    </contour>
    <contour>
      <point x="221" y="-1" type="move" name="bottom"/>
    </contour>
  </outline>
</glyph>
<glyph name="M" format="1">
  <advance width="800"/>
  <unicode hex="004D"/>
  <outline>
    <contour>
      <point x="102" y="-9" type="curve"/>
      <point x="109" y="28"/>
      <point x="117" y="64"/>
      <point x="127" y="102" type="curve" smooth="yes"/>
      <point x="167" y="264"/>
      <point x="234" y="477"/>
      <point x="315" y="659" type="curve" smooth="yes"/>
      <point x="321" y="674"/>
      <point x="317" y="687"/>
      <point x="312" y="694" type="curve" smooth="yes"/>
      <point x="303" y="706"/>
      <point x="285" y="710"/>
      <point x="253" y="710" type="curve" smooth="yes"/>
      <point x="238" y="710"/>
      <point x="225" y="709"/>
      <point x="210" y="706" type="curve"/>
      <point x="206" y="666"/>
      <point x="201" y="642"/>
      <point x="184" y="597" type="curve" smooth="yes"/>
      <point x="113" y="409"/>
      <point x="55" y="232"/>
      <point x="6" y="34" type="curve" smooth="yes"/>
      <point x="3" y="24"/>
      <point x="4" y="15"/>
      <point x="9" y="9" type="curve" smooth="yes"/>
      <point x="19" y="-4"/>
      <point x="44" y="-10"/>
      <point x="79" y="-10" type="curve" smooth="yes"/>
      <point x="89" y="-10"/>
      <point x="97" y="-10"/>
    </contour>
    <contour>
      <point x="677" y="-5" type="curve"/>
      <point x="677" y="32"/>
      <point x="684" y="72"/>
      <point x="694" y="111" type="curve" smooth="yes"/>
      <point x="741" y="309"/>
      <point x="765" y="483"/>
      <point x="783" y="657" type="curve"/>
      <point x="785" y="672"/>
      <point x="783" y="682"/>
      <point x="777" y="689" type="curve" smooth="yes"/>
      <point x="766" y="703"/>
      <point x="730" y="710"/>
      <point x="690" y="710" type="curve" smooth="yes"/>
      <point x="687" y="710" type="line"/>
      <point x="686" y="689"/>
      <point x="683" y="667"/>
      <point x="681" y="645" type="curve"/>
      <point x="667" y="475"/>
      <point x="637" y="301"/>
      <point x="604" y="162" type="curve" smooth="yes"/>
      <point x="596" y="122"/>
      <point x="586" y="85"/>
      <point x="576" y="52" type="curve" smooth="yes"/>
      <point x="568" y="24"/>
      <point x="571" y="14"/>
      <point x="578" y="5" type="curve" smooth="yes"/>
      <point x="586" y="-6"/>
      <point x="601" y="-10"/>
      <point x="632" y="-10" type="curve" smooth="yes"/>
      <point x="649" y="-10"/>
      <point x="661" y="-9"/>
    </contour>
    <contour>
      <point x="362" y="672" type="curve" smooth="yes"/>
      <point x="363" y="694"/>
      <point x="329" y="710"/>
      <point x="263" y="710" type="curve"/>
      <point x="254" y="710" type="line"/>
      <point x="271" y="688"/>
      <point x="283" y="659"/>
      <point x="280" y="637" type="curve" smooth="yes"/>
      <point x="247" y="348"/>
      <point x="302" y="163"/>
      <point x="329" y="128" type="curve"/>
      <point x="338" y="115"/>
      <point x="346" y="112"/>
      <point x="367" y="112" type="curve" smooth="yes"/>
      <point x="387" y="112"/>
      <point x="401" y="133"/>
      <point x="409" y="172" type="curve"/>
      <point x="359" y="320"/>
      <point x="351" y="437"/>
    </contour>
    <contour>
      <point x="641" y="706" type="curve"/>
      <point x="538" y="463"/>
      <point x="450" y="320"/>
      <point x="345" y="195" type="curve"/>
      <point x="324" y="170"/>
      <point x="340" y="112"/>
      <point x="367" y="112" type="curve"/>
      <point x="391" y="112" type="line"/>
      <point x="538" y="279"/>
      <point x="682" y="555"/>
      <point x="711" y="670" type="curve" smooth="yes"/>
      <point x="717" y="695"/>
      <point x="710" y="710"/>
      <point x="687" y="710" type="curve" smooth="yes"/>
      <point x="673" y="710"/>
      <point x="656" y="709"/>
    </contour>
  </outline>
</glyph>
<glyph name="N" format="1">
  <advance width="700"/>
  <unicode hex="004E"/>
  <outline>
    <contour>
      <point x="119" y="-6" type="curve"/>
      <point x="217" y="384" type="line"/>
      <point x="261" y="560"/>
      <point x="277" y="679"/>
      <point x="261" y="699" type="curve" smooth="yes"/>
      <point x="258" y="705"/>
      <point x="250" y="710"/>
      <point x="243" y="710" type="curve"/>
      <point x="226" y="710"/>
      <point x="211" y="709"/>
      <point x="188" y="704" type="curve"/>
      <point x="187" y="669"/>
      <point x="179" y="626"/>
      <point x="171" y="595" type="curve" smooth="yes"/>
      <point x="30" y="34" type="line"/>
      <point x="22" y="1"/>
      <point x="58" y="-10"/>
      <point x="87" y="-10" type="curve"/>
      <point x="100" y="-10"/>
      <point x="109" y="-9"/>
    </contour>
    <contour>
      <point x="548" y="-10" type="line"/>
      <point x="718" y="670" type="line"/>
      <point x="725" y="698"/>
      <point x="693" y="710"/>
      <point x="648" y="710" type="curve"/>
      <point x="630" y="710" type="line"/>
      <point x="516" y="255" type="line"/>
      <point x="484" y="116"/>
      <point x="476" y="29"/>
      <point x="490" y="10" type="curve" smooth="yes"/>
      <point x="500" y="-3"/>
      <point x="516" y="-10"/>
      <point x="530" y="-10" type="curve"/>
    </contour>
    <contour>
      <point x="243" y="710" type="line"/>
      <point x="252" y="686"/>
      <point x="250" y="652"/>
      <point x="250" y="619" type="curve"/>
      <point x="256" y="343"/>
      <point x="366" y="134"/>
      <point x="454" y="16" type="curve"/>
      <point x="467" y="-1"/>
      <point x="494" y="-10"/>
      <point x="530" y="-10" type="curve" smooth="yes"/>
      <point x="534" y="-10"/>
      <point x="533" y="-10"/>
      <point x="537" y="-10" type="curve"/>
      <point x="541" y="-10"/>
      <point x="547" y="11"/>
      <point x="548" y="55" type="curve"/>
      <point x="403" y="243"/>
      <point x="342" y="431"/>
      <point x="321" y="676" type="curve"/>
      <point x="320" y="697"/>
      <point x="286" y="710"/>
      <point x="245" y="710" type="curve"/>
    </contour>
    <contour>
      <point x="459" y="711" type="move" name="top"/>
    </contour>
    <contour>
      <point x="281" y="-1" type="move" name="bottom"/>
    </contour>
  </outline>
</glyph>
<glyph name="O" format="1">
  <advance width="650"/>
  <unicode hex="004F"/>
  <outline>
    <contour>
      <point x="427" y="720" type="curve" smooth="yes"/>
      <point x="260" y="720"/>
      <point x="154" y="615"/>
      <point x="93" y="376" type="curve" smooth="yes"/>
      <point x="85" y="342" type="line" smooth="yes"/>
      <point x="27" y="114"/>
      <point x="96" y="-20"/>
      <point x="269" y="-20" type="curve" smooth="yes"/>
      <point x="298" y="-20"/>
      <point x="319" y="9"/>
      <point x="330" y="53" type="curve"/>
      <point x="174" y="52"/>
      <point x="137" y="153"/>
      <point x="180" y="331" type="curve" smooth="yes"/>
      <point x="188" y="361" type="line" smooth="yes"/>
      <point x="237" y="561"/>
      <point x="312" y="622"/>
      <point x="413" y="622" type="curve" smooth="yes"/>
      <point x="461" y="622"/>
      <point x="499" y="609"/>
      <point x="535" y="586" type="curve"/>
      <point x="576" y="626"/>
      <point x="508" y="720"/>
    </contour>
    <contour>
      <point x="269" y="-20" type="curve" smooth="yes"/>
      <point x="439" y="-20"/>
      <point x="545" y="91"/>
      <point x="603" y="328" type="curve" smooth="yes"/>
      <point x="611" y="361" type="line" smooth="yes"/>
      <point x="666" y="585"/>
      <point x="596" y="720"/>
      <point x="427" y="720" type="curve" smooth="yes"/>
      <point x="398" y="720"/>
      <point x="376" y="691"/>
      <point x="365" y="647" type="curve"/>
      <point x="521" y="647"/>
      <point x="558" y="540"/>
      <point x="514" y="368" type="curve" smooth="yes"/>
      <point x="507" y="337" type="line" smooth="yes"/>
      <point x="457" y="143"/>
      <point x="383" y="78"/>
      <point x="282" y="78" type="curve" smooth="yes"/>
      <point x="236" y="78"/>
      <point x="195" y="90"/>
      <point x="161" y="114" type="curve"/>
      <point x="119" y="74"/>
      <point x="188" y="-20"/>
    </contour>
    <contour>
      <point x="437" y="711" type="move" name="top"/>
    </contour>
    <contour>
      <point x="359" y="-1" type="move" name="ogonek"/>
    </contour>
    <contour>
      <point x="259" y="-1" type="move" name="bottom"/>
    </contour>
  </outline>
</glyph>
<glyph name="P" format="1">
  <advance width="600"/>
  <unicode hex="0050"/>
  <outline>
    <contour>
      <point x="133" y="-5" type="curve"/>
      <point x="134" y="30"/>
      <point x="141" y="66"/>
      <point x="151" y="105" type="curve" smooth="yes"/>
      <point x="264" y="558" type="line" smooth="yes"/>
      <point x="280" y="624"/>
      <point x="254" y="650"/>
      <point x="184" y="650" type="curve"/>
      <point x="35" y="55" type="line" smooth="yes"/>
      <point x="29" y="31"/>
      <point x="28" y="16"/>
      <point x="36" y="5" type="curve" smooth="yes"/>
      <point x="44" y="-6"/>
      <point x="58" y="-10"/>
      <point x="90" y="-10" type="curve" smooth="yes"/>
      <point x="105" y="-10"/>
      <point x="118" y="-9"/>
    </contour>
    <contour>
      <point x="146" y="700" type="curve"/>
      <point x="142" y="690"/>
      <point x="139" y="680"/>
      <point x="136" y="667" type="curve"/>
      <point x="129" y="640"/>
      <point x="129" y="623"/>
      <point x="137" y="612" type="curve" smooth="yes"/>
      <point x="141" y="606"/>
      <point x="147" y="605"/>
      <point x="154" y="605" type="curve" smooth="yes"/>
      <point x="163" y="605"/>
      <point x="176" y="607"/>
      <point x="201" y="611" type="curve" smooth="yes"/>
      <point x="249" y="618"/>
      <point x="311" y="625"/>
      <point x="369" y="625" type="curve" smooth="yes"/>
      <point x="458" y="625"/>
      <point x="491" y="610"/>
      <point x="532" y="564" type="curve"/>
      <point x="584" y="617"/>
      <point x="507" y="720"/>
      <point x="409" y="720" type="curve" smooth="yes"/>
      <point x="327" y="720"/>
      <point x="242" y="715"/>
    </contour>
    <contour>
      <point x="586" y="466" type="curve" smooth="yes"/>
      <point x="597" y="508" type="line" smooth="yes"/>
      <point x="627" y="630"/>
      <point x="556" y="720"/>
      <point x="409" y="720" type="curve"/>
      <point x="379" y="720"/>
      <point x="364" y="703"/>
      <point x="357" y="675" type="curve"/>
      <point x="477" y="666"/>
      <point x="521" y="616"/>
      <point x="495" y="508" type="curve" smooth="yes"/>
      <point x="487" y="476" type="line" smooth="yes"/>
      <point x="453" y="342"/>
      <point x="348" y="266"/>
      <point x="237" y="266" type="curve" smooth="yes"/>
      <point x="203" y="266"/>
      <point x="193" y="268"/>
      <point x="178" y="271" type="curve"/>
      <point x="171" y="265"/>
      <point x="167" y="260"/>
      <point x="165" y="250" type="curve" smooth="yes"/>
      <point x="156" y="219"/>
      <point x="198" y="175"/>
      <point x="241" y="175" type="curve" smooth="yes"/>
      <point x="244" y="175" type="line" smooth="yes"/>
      <point x="401" y="175"/>
      <point x="537" y="271"/>
    </contour>
  </outline>
</glyph>
<glyph name="Q" format="1">
  <advance width="650"/>
  <unicode hex="0051"/>
  <outline>
    <contour>
      <point x="427" y="720" type="curve" smooth="yes"/>
      <point x="260" y="720"/>
      <point x="154" y="615"/>
      <point x="93" y="376" type="curve" smooth="yes"/>
      <point x="85" y="342" type="line" smooth="yes"/>
      <point x="27" y="114"/>
      <point x="96" y="-20"/>
      <point x="269" y="-20" type="curve" smooth="yes"/>
      <point x="298" y="-20"/>
      <point x="319" y="9"/>
      <point x="331" y="53" type="curve"/>
      <point x="174" y="52"/>
      <point x="137" y="153"/>
      <point x="180" y="331" type="curve" smooth="yes"/>
      <point x="188" y="361" type="line" smooth="yes"/>
      <point x="237" y="561"/>
      <point x="312" y="622"/>
      <point x="413" y="622" type="curve" smooth="yes"/>
      <point x="461" y="622"/>
      <point x="499" y="609"/>
      <point x="535" y="586" type="curve"/>
      <point x="576" y="626"/>
      <point x="508" y="720"/>
    </contour>
    <contour>
      <point x="269" y="-20" type="curve" smooth="yes"/>
      <point x="439" y="-20"/>
      <point x="545" y="91"/>
      <point x="603" y="328" type="curve" smooth="yes"/>
      <point x="611" y="361" type="line" smooth="yes"/>
      <point x="666" y="585"/>
      <point x="596" y="720"/>
      <point x="427" y="720" type="curve" smooth="yes"/>
      <point x="398" y="720"/>
      <point x="376" y="691"/>
      <point x="366" y="647" type="curve"/>
      <point x="521" y="647"/>
      <point x="558" y="540"/>
      <point x="514" y="368" type="curve" smooth="yes"/>
      <point x="507" y="337" type="line" smooth="yes"/>
      <point x="457" y="143"/>
      <point x="383" y="78"/>
      <point x="282" y="78" type="curve" smooth="yes"/>
      <point x="236" y="78"/>
      <point x="195" y="90"/>
      <point x="161" y="114" type="curve"/>
      <point x="119" y="74"/>
      <point x="188" y="-20"/>
    </contour>
    <contour>
      <point x="404" y="94" type="line"/>
      <point x="338" y="62"/>
      <point x="319" y="37"/>
      <point x="324" y="19" type="curve" smooth="yes"/>
      <point x="360" y="-78" type="line" smooth="yes"/>
      <point x="383" y="-139"/>
      <point x="410" y="-170"/>
      <point x="455" y="-170" type="curve" smooth="yes"/>
      <point x="459" y="-170" type="line" smooth="yes"/>
      <point x="502" y="-170"/>
      <point x="532" y="-142"/>
      <point x="546" y="-90" type="curve" smooth="yes"/>
      <point x="551" y="-68"/>
      <point x="553" y="-54"/>
      <point x="553" y="-39" type="curve"/>
      <point x="549" y="-39" type="line"/>
      <point x="536" y="-48"/>
      <point x="523" y="-52"/>
      <point x="506" y="-52" type="curve" smooth="yes"/>
      <point x="477" y="-52"/>
      <point x="462" y="-41"/>
      <point x="448" y="-12" type="curve" smooth="yes"/>
    </contour>
  </outline>
</glyph>
<glyph name="R" format="1">
  <advance width="600"/>
  <unicode hex="0052"/>
  <outline>
    <contour>
      <point x="133" y="-5" type="curve"/>
      <point x="134" y="30"/>
      <point x="141" y="66"/>
      <point x="151" y="105" type="curve" smooth="yes"/>
      <point x="264" y="558" type="line" smooth="yes"/>
      <point x="280" y="624"/>
      <point x="254" y="650"/>
      <point x="184" y="650" type="curve"/>
      <point x="35" y="55" type="line" smooth="yes"/>
      <point x="29" y="31"/>
      <point x="28" y="16"/>
      <point x="36" y="5" type="curve" smooth="yes"/>
      <point x="44" y="-6"/>
      <point x="58" y="-10"/>
      <point x="90" y="-10" type="curve" smooth="yes"/>
      <point x="105" y="-10"/>
      <point x="118" y="-9"/>
    </contour>
    <contour>
      <point x="146" y="700" type="curve"/>
      <point x="142" y="690"/>
      <point x="138" y="679"/>
      <point x="136" y="667" type="curve"/>
      <point x="129" y="640"/>
      <point x="129" y="623"/>
      <point x="137" y="612" type="curve" smooth="yes"/>
      <point x="141" y="606"/>
      <point x="147" y="605"/>
      <point x="154" y="605" type="curve" smooth="yes"/>
      <point x="163" y="605"/>
      <point x="176" y="607"/>
      <point x="201" y="611" type="curve" smooth="yes"/>
      <point x="255" y="619"/>
      <point x="317" y="625"/>
      <point x="369" y="625" type="curve" smooth="yes"/>
      <point x="450" y="625"/>
      <point x="493" y="610"/>
      <point x="536" y="558" type="curve"/>
      <point x="581" y="613"/>
      <point x="520" y="720"/>
      <point x="398" y="720" type="curve" smooth="yes"/>
      <point x="319" y="720"/>
      <point x="239" y="715"/>
    </contour>
    <contour>
      <point x="582" y="468" type="curve" smooth="yes"/>
      <point x="592" y="510" type="line" smooth="yes"/>
      <point x="618" y="615"/>
      <point x="570" y="720"/>
      <point x="398" y="720" type="curve"/>
      <point x="374" y="720"/>
      <point x="357" y="701"/>
      <point x="351" y="676" type="curve"/>
      <point x="474" y="660"/>
      <point x="517" y="615"/>
      <point x="489" y="506" type="curve" smooth="yes"/>
      <point x="481" y="474" type="line" smooth="yes"/>
      <point x="452" y="354"/>
      <point x="346" y="285"/>
      <point x="228" y="285" type="curve" smooth="yes"/>
      <point x="191" y="285"/>
      <point x="182" y="287"/>
      <point x="169" y="294" type="curve"/>
      <point x="159" y="286"/>
      <point x="153" y="273"/>
      <point x="150" y="262" type="curve" smooth="yes"/>
      <point x="141" y="227"/>
      <point x="175" y="194"/>
      <point x="214" y="194" type="curve" smooth="yes"/>
      <point x="219" y="194" type="line" smooth="yes"/>
      <point x="392" y="194"/>
      <point x="540" y="300"/>
    </contour>
    <contour>
      <point x="339" y="276" type="line"/>
      <point x="278" y="246"/>
      <point x="254" y="223"/>
      <point x="260" y="206" type="curve" smooth="yes"/>
      <point x="326" y="62" type="line" smooth="yes"/>
      <point x="351" y="2"/>
      <point x="381" y="-20"/>
      <point x="427" y="-20" type="curve" smooth="yes"/>
      <point x="431" y="-20" type="line" smooth="yes"/>
      <point x="469" y="-20"/>
      <point x="493" y="2"/>
      <point x="505" y="52" type="curve" smooth="yes"/>
      <point x="509" y="67"/>
      <point x="511" y="81"/>
      <point x="511" y="96" type="curve"/>
      <point x="507" y="96" type="line"/>
      <point x="493" y="86"/>
      <point x="481" y="81"/>
      <point x="464" y="81" type="curve" smooth="yes"/>
      <point x="438" y="81"/>
      <point x="420" y="95"/>
      <point x="406" y="130" type="curve" smooth="yes"/>
    </contour>
    <contour>
      <point x="410" y="711" type="move" name="top"/>
    </contour>
    <contour>
      <point x="232" y="-1" type="move" name="bottom"/>
    </contour>
  </outline>
</glyph>
<glyph name="S" format="1">
  <advance width="600"/>
  <unicode hex="0053"/>
  <outline>
    <contour>
      <point x="484" y="720" type="curve" smooth="yes"/>
      <point x="329" y="720"/>
      <point x="164" y="602"/>
      <point x="131" y="470" type="curve" smooth="yes"/>
      <point x="128" y="456" type="line" smooth="yes"/>
      <point x="120" y="428"/>
      <point x="160" y="383"/>
      <point x="211" y="380" type="curve"/>
      <point x="211" y="403"/>
      <point x="217" y="426"/>
      <point x="222" y="449" type="curve" smooth="yes"/>
      <point x="245" y="537"/>
      <point x="370" y="625"/>
      <point x="462" y="625" type="curve" smooth="yes"/>
      <point x="525" y="625"/>
      <point x="545" y="595"/>
      <point x="530" y="536" type="curve"/>
      <point x="561" y="536"/>
      <point x="583" y="559"/>
      <point x="587" y="573" type="curve" smooth="yes"/>
      <point x="599" y="620"/>
      <point x="596" y="651"/>
      <point x="575" y="678" type="curve" smooth="yes"/>
      <point x="557" y="702"/>
      <point x="533" y="720"/>
    </contour>
    <contour>
      <point x="388" y="309" type="curve" smooth="yes"/>
      <point x="307" y="341" type="line" smooth="yes"/>
      <point x="218" y="377"/>
      <point x="213" y="411"/>
      <point x="222" y="449" type="curve" smooth="yes"/>
      <point x="229" y="473"/>
      <point x="235" y="491"/>
      <point x="246" y="516" type="curve"/>
      <point x="190" y="511"/>
      <point x="140" y="507"/>
      <point x="128" y="456" type="curve" smooth="yes"/>
      <point x="111" y="391"/>
      <point x="130" y="321"/>
      <point x="261" y="268" type="curve" smooth="yes"/>
      <point x="342" y="235" type="line" smooth="yes"/>
      <point x="414" y="205"/>
      <point x="426" y="172"/>
      <point x="407" y="104" type="curve" smooth="yes"/>
      <point x="406" y="100"/>
      <point x="404" y="95"/>
      <point x="402" y="90" type="curve"/>
      <point x="440" y="93"/>
      <point x="495" y="114"/>
      <point x="502" y="142" type="curve"/>
      <point x="516" y="198"/>
      <point x="494" y="266"/>
    </contour>
    <contour>
      <point x="242" y="-16" type="curve" smooth="yes"/>
      <point x="380" y="-16"/>
      <point x="474" y="29"/>
      <point x="499" y="130" type="curve" smooth="yes"/>
      <point x="502" y="142" type="line" smooth="yes"/>
      <point x="508" y="163"/>
      <point x="479" y="203"/>
      <point x="453" y="205" type="curve"/>
      <point x="452" y="201"/>
      <point x="451" y="196"/>
      <point x="449" y="188" type="curve" smooth="yes"/>
      <point x="432" y="118"/>
      <point x="358" y="79"/>
      <point x="263" y="79" type="curve" smooth="yes"/>
      <point x="148" y="79"/>
      <point x="90" y="107"/>
      <point x="50" y="165" type="curve"/>
      <point x="46" y="165" type="line"/>
      <point x="38" y="153"/>
      <point x="31" y="139"/>
      <point x="27" y="119" type="curve" smooth="yes"/>
      <point x="18" y="85"/>
      <point x="22" y="66"/>
      <point x="35" y="50" type="curve" smooth="yes"/>
      <point x="64" y="13"/>
      <point x="134" y="-16"/>
    </contour>
    <contour>
      <point x="555" y="445" type="curve"/>
      <point x="587" y="573" type="line" smooth="yes"/>
      <point x="606" y="652"/>
      <point x="567" y="667"/>
      <point x="519" y="657" type="curve"/>
      <point x="505" y="619"/>
      <point x="491" y="583"/>
      <point x="482" y="547" type="curve" smooth="yes"/>
      <point x="469" y="493" type="line" smooth="yes"/>
      <point x="465" y="476"/>
      <point x="465" y="464"/>
      <point x="472" y="455" type="curve" smooth="yes"/>
      <point x="479" y="445"/>
      <point x="493" y="440"/>
      <point x="519" y="440" type="curve" smooth="yes"/>
      <point x="533" y="440"/>
      <point x="545" y="442"/>
    </contour>
    <contour>
      <point x="441" y="711" type="move" name="top"/>
    </contour>
    <contour>
      <point x="233" y="-1" type="move" name="bottom"/>
    </contour>
  </outline>
</glyph>
<glyph name="T" format="1">
  <advance width="600"/>
  <unicode hex="0054"/>
  <outline>
    <contour>
      <point x="151" y="700" type="line"/>
      <point x="147" y="694"/>
      <point x="144" y="686"/>
      <point x="141" y="675" type="curve" smooth="yes"/>
      <point x="136" y="652"/>
      <point x="137" y="635"/>
      <point x="147" y="621" type="curve" smooth="yes"/>
      <point x="157" y="608"/>
      <point x="175" y="605"/>
      <point x="218" y="605" type="curve" smooth="yes"/>
      <point x="637" y="605" type="line"/>
      <point x="642" y="614"/>
      <point x="647" y="627"/>
      <point x="651" y="640" type="curve" smooth="yes"/>
      <point x="659" y="675"/>
      <point x="657" y="700"/>
      <point x="623" y="700" type="curve" smooth="yes"/>
    </contour>
    <contour>
      <point x="293" y="-5" type="curve"/>
      <point x="295" y="30"/>
      <point x="302" y="66"/>
      <point x="311" y="105" type="curve" smooth="yes"/>
      <point x="422" y="547" type="line" smooth="yes"/>
      <point x="438" y="614"/>
      <point x="418" y="637"/>
      <point x="341" y="637" type="curve"/>
      <point x="195" y="55" type="line" smooth="yes"/>
      <point x="189" y="31"/>
      <point x="189" y="16"/>
      <point x="197" y="5" type="curve" smooth="yes"/>
      <point x="205" y="-6"/>
      <point x="219" y="-10"/>
      <point x="250" y="-10" type="curve" smooth="yes"/>
      <point x="266" y="-10"/>
      <point x="278" y="-9"/>
    </contour>
    <contour>
      <point x="409" y="711" type="move" name="top"/>
    </contour>
    <contour>
      <point x="233" y="-1" type="move" name="bottom"/>
    </contour>
  </outline>
</glyph>
<glyph name="U" format="1">
  <advance width="650"/>
  <unicode hex="0055"/>
  <outline>
    <contour>
      <point x="176" y="704" type="curve"/>
      <point x="177" y="669"/>
      <point x="171" y="629"/>
      <point x="159" y="579" type="curve" smooth="yes"/>
      <point x="51" y="149" type="line"/>
      <point x="41" y="109"/>
      <point x="67" y="92"/>
      <point x="121" y="102" type="curve"/>
      <point x="187" y="288"/>
      <point x="228" y="399"/>
      <point x="265" y="546" type="curve"/>
      <point x="267" y="552" type="line"/>
      <point x="297" y="673"/>
      <point x="273" y="710"/>
      <point x="219" y="710" type="curve"/>
      <point x="203" y="710"/>
      <point x="191" y="708"/>
    </contour>
    <contour>
      <point x="160" y="-15" type="curve" smooth="yes"/>
      <point x="243" y="-15"/>
      <point x="343" y="31"/>
      <point x="432" y="127" type="curve" smooth="yes"/>
      <point x="470" y="172"/>
      <point x="485" y="192"/>
      <point x="471" y="245" type="curve"/>
      <point x="361" y="131"/>
      <point x="278" y="93"/>
      <point x="197" y="93" type="curve" smooth="yes"/>
      <point x="148" y="93"/>
      <point x="124" y="118"/>
      <point x="135" y="203" type="curve"/>
      <point x="101" y="193"/>
      <point x="57" y="172"/>
      <point x="51" y="149" type="curve" smooth="yes"/>
      <point x="30" y="67"/>
      <point x="75" y="-15"/>
    </contour>
    <contour>
      <point x="506" y="-7" type="curve"/>
      <point x="508" y="28"/>
      <point x="516" y="63"/>
      <point x="525" y="100" type="curve" smooth="yes"/>
      <point x="667" y="669" type="line" smooth="yes"/>
      <point x="674" y="698"/>
      <point x="650" y="710"/>
      <point x="601" y="710" type="curve" smooth="yes"/>
      <point x="592" y="710"/>
      <point x="582" y="709"/>
      <point x="574" y="707" type="curve"/>
      <point x="414" y="68" type="line" smooth="yes"/>
      <point x="407" y="41"/>
      <point x="407" y="23"/>
      <point x="418" y="8" type="curve" smooth="yes"/>
      <point x="427" y="-4"/>
      <point x="448" y="-10"/>
      <point x="475" y="-10" type="curve" smooth="yes"/>
      <point x="486" y="-10"/>
      <point x="495" y="-9"/>
    </contour>
    <contour>
      <point x="431" y="711" type="move" name="top"/>
    </contour>
    <contour>
      <point x="505" y="-8" type="move" name="ogonek"/>
    </contour>
    <contour>
      <point x="430" y="706" type="move" name="ring"/>
    </contour>
    <contour>
      <point x="253" y="-1" type="move" name="bottom"/>
    </contour>
  </outline>
</glyph>
<glyph name="V" format="1">
  <advance width="650"/>
  <unicode hex="0056"/>
  <outline>
    <contour>
      <point x="185" y="710" type="curve"/>
      <point x="168" y="710" type="line"/>
      <point x="88" y="329"/>
      <point x="102" y="153"/>
      <point x="198" y="25" type="curve"/>
      <point x="220" y="-3"/>
      <point x="241" y="-10"/>
      <point x="265" y="-10" type="curve"/>
      <point x="296" y="-10"/>
      <point x="315" y="7"/>
      <point x="337" y="46" type="curve"/>
      <point x="332" y="46"/>
      <point x="329" y="46"/>
      <point x="325" y="46" type="curve" smooth="yes"/>
      <point x="319" y="46"/>
      <point x="314" y="48"/>
      <point x="307" y="53" type="curve"/>
      <point x="204" y="169"/>
      <point x="181" y="287"/>
      <point x="261" y="676" type="curve"/>
      <point x="265" y="696"/>
      <point x="244" y="710"/>
    </contour>
    <contour>
      <point x="618" y="710" type="curve"/>
      <point x="601" y="710" type="line"/>
      <point x="478" y="314"/>
      <point x="407" y="183"/>
      <point x="245" y="67" type="curve"/>
      <point x="221" y="51"/>
      <point x="221" y="-10"/>
      <point x="265" y="-10" type="curve"/>
      <point x="299" y="-10" type="line"/>
      <point x="474" y="113"/>
      <point x="585" y="311"/>
      <point x="691" y="660" type="curve"/>
      <point x="700" y="688"/>
      <point x="666" y="710"/>
    </contour>
  </outline>
</glyph>
<glyph name="W" format="1">
  <advance width="900"/>
  <unicode hex="0057"/>
  <outline>
    <contour>
      <point x="162" y="710" type="curve"/>
      <point x="77" y="344"/>
      <point x="65" y="161"/>
      <point x="137" y="34" type="curve"/>
      <point x="153" y="5"/>
      <point x="173" y="-10"/>
      <point x="195" y="-10" type="curve"/>
      <point x="216" y="-10" type="line" smooth="yes"/>
      <point x="230" y="-10"/>
      <point x="238" y="13"/>
      <point x="245" y="44" type="curve"/>
      <point x="168" y="139"/>
      <point x="170" y="274"/>
      <point x="254" y="670" type="curve"/>
      <point x="256" y="682"/>
      <point x="255" y="685"/>
      <point x="251" y="690" type="curve" smooth="yes"/>
      <point x="241" y="704"/>
      <point x="211" y="710"/>
      <point x="179" y="710" type="curve"/>
      <point x="173" y="710"/>
      <point x="167" y="710"/>
    </contour>
    <contour>
      <point x="857" y="710" type="curve"/>
      <point x="751" y="339"/>
      <point x="683" y="184"/>
      <point x="548" y="67" type="curve"/>
      <point x="522" y="45"/>
      <point x="531" y="-10"/>
      <point x="570" y="-10" type="curve"/>
      <point x="604" y="-10" type="line"/>
      <point x="752" y="112"/>
      <point x="865" y="353"/>
      <point x="948" y="659" type="curve" smooth="yes"/>
      <point x="950" y="669"/>
      <point x="951" y="675"/>
      <point x="948" y="680" type="curve" smooth="yes"/>
      <point x="935" y="697"/>
      <point x="905" y="710"/>
      <point x="874" y="710" type="curve"/>
      <point x="868" y="710"/>
      <point x="862" y="710"/>
    </contour>
    <contour>
      <point x="520" y="617" type="curve"/>
      <point x="488" y="617" type="line"/>
      <point x="384" y="335"/>
      <point x="300" y="175"/>
      <point x="182" y="61" type="curve"/>
      <point x="157" y="40"/>
      <point x="168" y="-10"/>
      <point x="195" y="-10" type="curve"/>
      <point x="231" y="-10" type="line"/>
      <point x="352" y="106"/>
      <point x="454" y="287"/>
      <point x="549" y="553" type="curve" smooth="yes"/>
      <point x="562" y="588"/>
      <point x="547" y="617"/>
    </contour>
    <contour>
      <point x="525" y="617" type="curve"/>
      <point x="511" y="617" type="line"/>
      <point x="465" y="314"/>
      <point x="461" y="138"/>
      <point x="512" y="25" type="curve" smooth="yes"/>
      <point x="527" y="0"/>
      <point x="544" y="-10"/>
      <point x="570" y="-10" type="curve"/>
      <point x="589" y="-10" type="line"/>
      <point x="598" y="-10"/>
      <point x="606" y="14"/>
      <point x="609" y="44" type="curve"/>
      <point x="540" y="159"/>
      <point x="543" y="286"/>
      <point x="583" y="581" type="curve" smooth="yes"/>
      <point x="585" y="600"/>
      <point x="560" y="617"/>
    </contour>
    <contour>
      <point x="561" y="711" type="move" name="top"/>
    </contour>
  </outline>
</glyph>
<glyph name="X" format="1">
  <advance width="650"/>
  <unicode hex="0058"/>
  <outline>
    <contour>
      <point x="493" y="-8" type="curve" smooth="yes"/>
      <point x="514" y="-8"/>
      <point x="531" y="-5"/>
      <point x="546" y="0" type="curve"/>
      <point x="484" y="77"/>
      <point x="419" y="198"/>
      <point x="365" y="323" type="curve" smooth="yes"/>
      <point x="361" y="334"/>
      <point x="357" y="345"/>
      <point x="353" y="356" type="curve" smooth="yes"/>
      <point x="303" y="473"/>
      <point x="265" y="590"/>
      <point x="251" y="674" type="curve" smooth="yes"/>
      <point x="246" y="699"/>
      <point x="225" y="708"/>
      <point x="154" y="708" type="curve" smooth="yes"/>
      <point x="136" y="708" type="line"/>
      <point x="159" y="588"/>
      <point x="212" y="435"/>
      <point x="272" y="298" type="curve" smooth="yes"/>
      <point x="276" y="288"/>
      <point x="280" y="277"/>
      <point x="285" y="267" type="curve" smooth="yes"/>
      <point x="331" y="168"/>
      <point x="379" y="80"/>
      <point x="420" y="25" type="curve" smooth="yes"/>
      <point x="435" y="1"/>
      <point x="452" y="-8"/>
    </contour>
    <contour>
      <point x="624" y="708" type="curve" smooth="yes"/>
      <point x="610" y="708" type="line"/>
      <point x="527" y="553"/>
      <point x="444" y="449"/>
      <point x="322" y="352" type="curve"/>
      <point x="285" y="321"/>
      <point x="319" y="281"/>
      <point x="367" y="284" type="curve"/>
      <point x="523" y="399"/>
      <point x="617" y="506"/>
      <point x="708" y="661" type="curve"/>
      <point x="714" y="671"/>
      <point x="715" y="681"/>
      <point x="710" y="686" type="curve" smooth="yes"/>
      <point x="694" y="703"/>
      <point x="655" y="708"/>
    </contour>
    <contour>
      <point x="51" y="-8" type="curve"/>
      <point x="66" y="-8" type="line"/>
      <point x="133" y="98"/>
      <point x="216" y="184"/>
      <point x="313" y="258" type="curve"/>
      <point x="345" y="284"/>
      <point x="318" y="336"/>
      <point x="278" y="339" type="curve"/>
      <point x="139" y="234"/>
      <point x="40" y="143"/>
      <point x="-35" y="44" type="curve" smooth="yes"/>
      <point x="-43" y="32"/>
      <point x="-42" y="22"/>
      <point x="-37" y="15" type="curve" smooth="yes"/>
      <point x="-20" y="-1"/>
      <point x="9" y="-8"/>
    </contour>
  </outline>
</glyph>
<glyph name="Z" format="1">
  <advance width="600"/>
  <unicode hex="005A"/>
  <outline>
    <contour>
      <point x="220" y="700" type="line"/>
      <point x="216" y="694"/>
      <point x="212" y="684"/>
      <point x="210" y="674" type="curve" smooth="yes"/>
      <point x="203" y="648"/>
      <point x="204" y="629"/>
      <point x="215" y="615" type="curve" smooth="yes"/>
      <point x="221" y="607"/>
      <point x="226" y="605"/>
      <point x="239" y="605" type="curve" smooth="yes"/>
      <point x="489" y="605" type="line" smooth="yes"/>
      <point x="549" y="605"/>
      <point x="576" y="594"/>
      <point x="599" y="569" type="curve" smooth="yes"/>
      <point x="619" y="576"/>
      <point x="626" y="581"/>
      <point x="630" y="594" type="curve"/>
      <point x="632" y="602" type="line" smooth="yes"/>
      <point x="646" y="659"/>
      <point x="617" y="700"/>
      <point x="555" y="700" type="curve" smooth="yes"/>
    </contour>
    <contour>
      <point x="553" y="641" type="curve"/>
      <point x="433" y="430"/>
      <point x="280" y="282"/>
      <point x="11" y="90" type="curve"/>
      <point x="2" y="56"/>
      <point x="55" y="47"/>
      <point x="97" y="66" type="curve" smooth="yes"/>
      <point x="354" y="218"/>
      <point x="608" y="507"/>
      <point x="630" y="594" type="curve"/>
      <point x="639" y="632"/>
      <point x="609" y="640"/>
    </contour>
    <contour>
      <point x="480" y="0" type="line"/>
      <point x="482" y="5"/>
      <point x="484" y="12"/>
      <point x="486" y="20" type="curve" smooth="yes"/>
      <point x="493" y="49"/>
      <point x="492" y="66"/>
      <point x="479" y="83" type="curve" smooth="yes"/>
      <point x="472" y="92"/>
      <point x="463" y="95"/>
      <point x="449" y="95" type="curve" smooth="yes"/>
      <point x="274" y="95" type="line" smooth="yes"/>
      <point x="197" y="95"/>
      <point x="88" y="93"/>
      <point x="11" y="90" type="curve"/>
      <point x="8" y="78" type="line" smooth="yes"/>
      <point x="-3" y="30"/>
      <point x="1" y="0"/>
      <point x="27" y="0" type="curve" smooth="yes"/>
    </contour>
    <contour>
      <point x="227" y="491" type="curve"/>
      <point x="251" y="588"/>
      <point x="283" y="649"/>
      <point x="291" y="682" type="curve"/>
      <point x="297" y="705"/>
      <point x="263" y="720"/>
      <point x="218" y="720" type="curve" smooth="yes"/>
      <point x="210" y="720" type="line"/>
      <point x="180" y="660"/>
      <point x="155" y="596"/>
      <point x="139" y="530" type="curve"/>
      <point x="131" y="498"/>
      <point x="149" y="488"/>
      <point x="193" y="488" type="curve" smooth="yes"/>
      <point x="206" y="488"/>
      <point x="217" y="489"/>
    </contour>
    <contour>
      <point x="411" y="711" type="move" name="top"/>
    </contour>
  </outline>
</glyph>
<glyph name="bracketleft" format="1">
  <advance width="400"/>
  <unicode hex="005B"/>
  <outline>
    <contour>
      <point x="144" y="645" type="curve" smooth="yes"/>
      <point x="-33" y="-64" type="line" smooth="yes"/>
      <point x="-41" y="-95"/>
      <point x="14" y="-101"/>
      <point x="61" y="-101" type="curve"/>
      <point x="263" y="705" type="line" smooth="yes"/>
      <point x="272" y="745"/>
      <point x="263" y="760"/>
      <point x="209" y="760" type="curve" smooth="yes"/>
      <point x="192" y="760"/>
      <point x="178" y="759"/>
      <point x="162" y="755" type="curve"/>
      <point x="160" y="719"/>
      <point x="154" y="684"/>
    </contour>
    <contour>
      <point x="454" y="662" type="line"/>
      <point x="460" y="671"/>
      <point x="464" y="683"/>
      <point x="467" y="696" type="curve" smooth="yes"/>
      <point x="471" y="711"/>
      <point x="474" y="738"/>
      <point x="464" y="752" type="curve" smooth="yes"/>
      <point x="460" y="758"/>
      <point x="455" y="760"/>
      <point x="444" y="760" type="curve" smooth="yes"/>
      <point x="209" y="760" type="line"/>
      <point x="194" y="698"/>
      <point x="214" y="662"/>
      <point x="300" y="662" type="curve"/>
    </contour>
    <contour>
      <point x="251" y="-161" type="line"/>
      <point x="255" y="-152"/>
      <point x="259" y="-140"/>
      <point x="262" y="-128" type="curve" smooth="yes"/>
      <point x="273" y="-82"/>
      <point x="265" y="-63"/>
      <point x="236" y="-63" type="curve" smooth="yes"/>
      <point x="-33" y="-63" type="line"/>
      <point x="-36" y="-76" type="line" smooth="yes"/>
      <point x="-46" y="-115"/>
      <point x="-21" y="-161"/>
      <point x="10" y="-161" type="curve" smooth="yes"/>
    </contour>
  </outline>
</glyph>
<glyph name="bracketright" format="1">
  <advance width="400"/>
  <unicode hex="005D"/>
  <outline>
    <contour>
      <point x="272" y="-46" type="curve" smooth="yes"/>
      <point x="450" y="663" type="line" smooth="yes"/>
      <point x="457" y="694"/>
      <point x="403" y="700"/>
      <point x="356" y="700" type="curve"/>
      <point x="154" y="-106" type="line" smooth="yes"/>
      <point x="144" y="-146"/>
      <point x="154" y="-161"/>
      <point x="207" y="-161" type="curve" smooth="yes"/>
      <point x="224" y="-161"/>
      <point x="238" y="-160"/>
      <point x="255" y="-156" type="curve"/>
      <point x="256" y="-120"/>
      <point x="263" y="-85"/>
    </contour>
    <contour>
      <point x="-37" y="-63" type="line"/>
      <point x="-43" y="-72"/>
      <point x="-48" y="-84"/>
      <point x="-51" y="-97" type="curve" smooth="yes"/>
      <point x="-55" y="-112"/>
      <point x="-58" y="-139"/>
      <point x="-48" y="-153" type="curve" smooth="yes"/>
      <point x="-43" y="-159"/>
      <point x="-38" y="-161"/>
      <point x="-27" y="-161" type="curve" smooth="yes"/>
      <point x="207" y="-161" type="line"/>
      <point x="223" y="-99"/>
      <point x="203" y="-63"/>
      <point x="117" y="-63" type="curve"/>
    </contour>
    <contour>
      <point x="166" y="760" type="line"/>
      <point x="162" y="751"/>
      <point x="158" y="739"/>
      <point x="155" y="727" type="curve" smooth="yes"/>
      <point x="143" y="681"/>
      <point x="151" y="662"/>
      <point x="180" y="662" type="curve" smooth="yes"/>
      <point x="449" y="662" type="line"/>
      <point x="453" y="675" type="line" smooth="yes"/>
      <point x="462" y="714"/>
      <point x="438" y="760"/>
      <point x="406" y="760" type="curve" smooth="yes"/>
    </contour>
  </outline>
</glyph>
<glyph name="asciicircum" format="1">
  <advance width="600"/>
  <unicode hex="005E"/>
  <outline>
    <contour>
      <point x="171" y="366" type="line"/>
      <point x="245" y="521"/>
      <point x="318" y="599"/>
      <point x="435" y="694" type="curve"/>
      <point x="450" y="737"/>
      <point x="442" y="756"/>
      <point x="420" y="760" type="curve"/>
      <point x="392" y="760" type="line"/>
      <point x="299" y="695"/>
      <point x="205" y="596"/>
      <point x="129" y="476" type="curve" smooth="yes"/>
      <point x="106" y="439"/>
      <point x="93" y="413"/>
      <point x="90" y="402" type="curve" smooth="yes"/>
      <point x="85" y="381"/>
      <point x="116" y="366"/>
      <point x="157" y="366" type="curve"/>
    </contour>
    <contour>
      <point x="566" y="373" type="curve"/>
      <point x="565" y="545"/>
      <point x="531" y="639"/>
      <point x="473" y="727" type="curve" smooth="yes"/>
      <point x="454" y="754"/>
      <point x="443" y="760"/>
      <point x="424" y="760" type="curve" smooth="yes"/>
      <point x="416" y="760" type="line" smooth="yes"/>
      <point x="400" y="760"/>
      <point x="364" y="725"/>
      <point x="346" y="697" type="curve"/>
      <point x="351" y="697"/>
      <point x="355" y="697"/>
      <point x="358" y="697" type="curve" smooth="yes"/>
      <point x="362" y="697"/>
      <point x="368" y="694"/>
      <point x="372" y="688" type="curve" smooth="yes"/>
      <point x="437" y="602"/>
      <point x="459" y="539"/>
      <point x="465" y="396" type="curve" smooth="yes"/>
      <point x="467" y="380"/>
      <point x="487" y="367"/>
      <point x="525" y="367" type="curve" smooth="yes"/>
      <point x="540" y="367"/>
      <point x="552" y="369"/>
    </contour>
  </outline>
</glyph>
<glyph name="underscore" format="1">
  <advance width="600"/>
  <unicode hex="005F"/>
  <outline>
    <contour>
      <point x="-30" y="-76" type="line"/>
      <point x="-32" y="-80"/>
      <point x="-33" y="-85"/>
      <point x="-34" y="-90" type="curve" smooth="yes"/>
      <point x="-43" y="-127"/>
      <point x="-43" y="-149"/>
      <point x="-34" y="-162" type="curve" smooth="yes"/>
      <point x="-27" y="-171"/>
      <point x="-16" y="-174"/>
      <point x="9" y="-174" type="curve"/>
      <point x="437" y="-174" type="line"/>
      <point x="442" y="-163"/>
      <point x="447" y="-149"/>
      <point x="449" y="-139" type="curve" smooth="yes"/>
      <point x="460" y="-95"/>
      <point x="454" y="-76"/>
      <point x="418" y="-76" type="curve"/>
    </contour>
  </outline>
</glyph>
<glyph name="grave" format="1">
  <advance width="350"/>
  <unicode hex="0060"/>
  <outline>
    <contour>
      <point x="314" y="402" type="curve"/>
      <point x="282" y="490"/>
      <point x="282" y="571"/>
      <point x="317" y="712" type="curve"/>
      <point x="300" y="718"/>
      <point x="287" y="720"/>
      <point x="267" y="720" type="curve" smooth="yes"/>
      <point x="219" y="720"/>
      <point x="181" y="709"/>
      <point x="170" y="664" type="curve" smooth="yes"/>
      <point x="142" y="554"/>
      <point x="164" y="444"/>
      <point x="204" y="390" type="curve" smooth="yes"/>
      <point x="211" y="382"/>
      <point x="219" y="379"/>
      <point x="235" y="379" type="curve" smooth="yes"/>
      <point x="266" y="379"/>
      <point x="288" y="385"/>
    </contour>
  </outline>
</glyph>
<glyph name="a" format="1">
  <advance width="600"/>
  <unicode hex="0061"/>
  <outline>
    <contour>
      <point x="349" y="543" type="curve" smooth="yes"/>
      <point x="262" y="543"/>
      <point x="207" y="533"/>
      <point x="181" y="512" type="curve" smooth="yes"/>
      <point x="163" y="499"/>
      <point x="153" y="477"/>
      <point x="147" y="456" type="curve" smooth="yes"/>
      <point x="144" y="443"/>
      <point x="142" y="433"/>
      <point x="143" y="425" type="curve"/>
      <point x="147" y="425" type="line"/>
      <point x="197" y="441"/>
      <point x="242" y="450"/>
      <point x="306" y="450" type="curve" smooth="yes"/>
      <point x="425" y="450"/>
      <point x="457" y="415"/>
      <point x="463" y="321" type="curve"/>
      <point x="492" y="321"/>
      <point x="505" y="324"/>
      <point x="512" y="352" type="curve"/>
      <point x="537" y="452"/>
      <point x="465" y="543"/>
    </contour>
    <contour>
      <point x="404" y="469" type="curve"/>
      <point x="424" y="430"/>
      <point x="426" y="398"/>
      <point x="412" y="345" type="curve" smooth="yes"/>
      <point x="388" y="251"/>
      <point x="375" y="199"/>
      <point x="356" y="127" type="curve" smooth="yes"/>
      <point x="338" y="57"/>
      <point x="386" y="31"/>
      <point x="448" y="48" type="curve"/>
      <point x="442" y="68"/>
      <point x="443" y="82"/>
      <point x="450" y="110" type="curve" smooth="yes"/>
      <point x="474" y="202"/>
      <point x="487" y="252"/>
      <point x="512" y="352" type="curve" smooth="yes"/>
      <point x="527" y="410"/>
      <point x="477" y="489"/>
    </contour>
    <contour>
      <point x="515" y="90" type="line"/>
      <point x="512" y="90" type="line"/>
      <point x="503" y="87"/>
      <point x="494" y="85"/>
      <point x="485" y="85" type="curve" smooth="yes"/>
      <point x="459" y="85"/>
      <point x="435" y="95"/>
      <point x="438" y="160" type="curve"/>
      <point x="386" y="161"/>
      <point x="363" y="152"/>
      <point x="356" y="127" type="curve" smooth="yes"/>
      <point x="337" y="50"/>
      <point x="372" y="-10"/>
      <point x="438" y="-10" type="curve" smooth="yes"/>
      <point x="440" y="-10" type="line" smooth="yes"/>
      <point x="477" y="-10"/>
      <point x="502" y="40"/>
      <point x="512" y="78" type="curve"/>
    </contour>
    <contour>
      <point x="136" y="150" type="curve" smooth="yes"/>
      <point x="138" y="155" type="line" smooth="yes"/>
      <point x="151" y="204"/>
      <point x="172" y="223"/>
      <point x="196" y="244" type="curve"/>
      <point x="146" y="260"/>
      <point x="52" y="201"/>
      <point x="41" y="156" type="curve" smooth="yes"/>
      <point x="36" y="139" type="line" smooth="yes"/>
      <point x="14" y="54"/>
      <point x="60" y="-10"/>
      <point x="150" y="-10" type="curve" smooth="yes"/>
      <point x="233" y="-10"/>
      <point x="310" y="25"/>
      <point x="365" y="87" type="curve" smooth="yes"/>
      <point x="388" y="113"/>
      <point x="390" y="140"/>
      <point x="390" y="168" type="curve"/>
      <point x="314" y="102"/>
      <point x="248" y="78"/>
      <point x="201" y="78" type="curve" smooth="yes"/>
      <point x="198" y="78" type="line" smooth="yes"/>
      <point x="141" y="78"/>
      <point x="123" y="102"/>
    </contour>
    <contour>
      <point x="425" y="266" type="curve" smooth="yes"/>
      <point x="412" y="284"/>
      <point x="352" y="301"/>
      <point x="251" y="301" type="curve" smooth="yes"/>
      <point x="151" y="301"/>
      <point x="61" y="237"/>
      <point x="41" y="156" type="curve" smooth="yes"/>
      <point x="33" y="129"/>
      <point x="43" y="113"/>
      <point x="66" y="113" type="curve"/>
      <point x="119" y="195"/>
      <point x="176" y="230"/>
      <point x="269" y="230" type="curve" smooth="yes"/>
      <point x="326" y="230"/>
      <point x="375" y="224"/>
      <point x="426" y="211" type="curve"/>
      <point x="434" y="241"/>
      <point x="433" y="256"/>
    </contour>
    <contour>
      <point x="356" y="544" type="move" name="top"/>
    </contour>
    <contour>
      <point x="440" y="-1" type="move" name="ogonek"/>
    </contour>
    <contour>
      <point x="246" y="-1" type="move" name="bottom"/>
    </contour>
  </outline>
</glyph>
<glyph name="b" format="1">
  <advance width="600"/>
  <unicode hex="0062"/>
  <outline>
    <contour>
      <point x="16" y="0" type="line"/>
      <point x="24" y="-3"/>
      <point x="36" y="-5"/>
      <point x="52" y="-5" type="curve" smooth="yes"/>
      <point x="96" y="-5"/>
      <point x="119" y="16"/>
      <point x="129" y="55" type="curve" smooth="yes"/>
      <point x="293" y="686" type="line"/>
      <point x="304" y="736"/>
      <point x="289" y="758"/>
      <point x="241" y="758" type="curve" smooth="yes"/>
      <point x="226" y="758"/>
      <point x="211" y="757"/>
      <point x="196" y="752" type="curve"/>
      <point x="199" y="723"/>
      <point x="195" y="698"/>
      <point x="184" y="654" type="curve" smooth="yes"/>
    </contour>
    <contour>
      <point x="445" y="544" type="curve" smooth="yes"/>
      <point x="357" y="544"/>
      <point x="248" y="461"/>
      <point x="190" y="356" type="curve" smooth="yes"/>
      <point x="167" y="314"/>
      <point x="159" y="261"/>
      <point x="165" y="230" type="curve"/>
      <point x="263" y="388"/>
      <point x="340" y="443"/>
      <point x="415" y="443" type="curve" smooth="yes"/>
      <point x="468" y="443"/>
      <point x="501" y="403"/>
      <point x="506" y="315" type="curve"/>
      <point x="539" y="317"/>
      <point x="552" y="322"/>
      <point x="554" y="330" type="curve" smooth="yes"/>
      <point x="584" y="449"/>
      <point x="539" y="544"/>
    </contour>
    <contour>
      <point x="265" y="-11" type="curve" smooth="yes"/>
      <point x="396" y="-11"/>
      <point x="493" y="77"/>
      <point x="548" y="307" type="curve" smooth="yes"/>
      <point x="554" y="330" type="line" smooth="yes"/>
      <point x="566" y="383"/>
      <point x="555" y="471"/>
      <point x="499" y="471" type="curve"/>
      <point x="482" y="471"/>
      <point x="467" y="463"/>
      <point x="460" y="447" type="curve"/>
      <point x="468" y="404"/>
      <point x="466" y="375"/>
      <point x="450" y="317" type="curve" smooth="yes"/>
      <point x="446" y="301" type="line" smooth="yes"/>
      <point x="408" y="156"/>
      <point x="345" y="81"/>
      <point x="253" y="81" type="curve" smooth="yes"/>
      <point x="195" y="81"/>
      <point x="164" y="102"/>
      <point x="139" y="150" type="curve"/>
      <point x="126" y="136"/>
      <point x="118" y="110"/>
      <point x="124" y="92" type="curve" smooth="yes"/>
      <point x="124" y="49"/>
      <point x="184" y="-11"/>
    </contour>
  </outline>
</glyph>
<glyph name="c" format="1">
  <advance width="500"/>
  <unicode hex="0063"/>
  <outline>
    <contour>
      <point x="371" y="544" type="curve" smooth="yes"/>
      <point x="225" y="544"/>
      <point x="108" y="453"/>
      <point x="59" y="262" type="curve" smooth="yes"/>
      <point x="55" y="245" type="line" smooth="yes"/>
      <point x="11" y="73"/>
      <point x="96" y="-11"/>
      <point x="230" y="-11" type="curve" smooth="yes"/>
      <point x="251" y="-11"/>
      <point x="262" y="2"/>
      <point x="266" y="38" type="curve"/>
      <point x="160" y="47"/>
      <point x="126" y="132"/>
      <point x="150" y="228" type="curve" smooth="yes"/>
      <point x="153" y="242" type="line" smooth="yes"/>
      <point x="183" y="363"/>
      <point x="255" y="443"/>
      <point x="354" y="443" type="curve" smooth="yes"/>
      <point x="408" y="443"/>
      <point x="441" y="432"/>
      <point x="470" y="400" type="curve"/>
      <point x="474" y="400" type="line"/>
      <point x="485" y="415"/>
      <point x="491" y="427"/>
      <point x="496" y="449" type="curve"/>
      <point x="503" y="478"/>
      <point x="501" y="490"/>
      <point x="491" y="504" type="curve" smooth="yes"/>
      <point x="476" y="524"/>
      <point x="436" y="544"/>
    </contour>
    <contour>
      <point x="230" y="-11" type="curve" smooth="yes"/>
      <point x="301" y="-11"/>
      <point x="346" y="4"/>
      <point x="372" y="25" type="curve" smooth="yes"/>
      <point x="394" y="42"/>
      <point x="404" y="59"/>
      <point x="414" y="99" type="curve"/>
      <point x="417" y="114"/>
      <point x="418" y="131"/>
      <point x="418" y="142" type="curve"/>
      <point x="414" y="142" type="line"/>
      <point x="364" y="104"/>
      <point x="317" y="85"/>
      <point x="252" y="85" type="curve" smooth="yes"/>
      <point x="186" y="85"/>
      <point x="151" y="103"/>
      <point x="100" y="155" type="curve"/>
      <point x="51" y="81"/>
      <point x="110" y="-11"/>
    </contour>
    <contour>
      <point x="353" y="544" type="move" name="top"/>
    </contour>
    <contour>
      <point x="219" y="-1" type="move" name="bottom"/>
    </contour>
  </outline>
</glyph>
<glyph name="d" format="1">
  <advance width="600"/>
  <unicode hex="0064"/>
  <outline>
    <contour>
      <point x="332" y="544" type="curve" smooth="yes"/>
      <point x="201" y="544"/>
      <point x="103" y="453"/>
      <point x="47" y="224" type="curve" smooth="yes"/>
      <point x="42" y="203" type="line" smooth="yes"/>
      <point x="29" y="149"/>
      <point x="42" y="61"/>
      <point x="98" y="61" type="curve" smooth="yes"/>
      <point x="115" y="61"/>
      <point x="131" y="69"/>
      <point x="137" y="84" type="curve"/>
      <point x="129" y="128"/>
      <point x="131" y="157"/>
      <point x="146" y="216" type="curve" smooth="yes"/>
      <point x="150" y="231" type="line" smooth="yes"/>
      <point x="186" y="373"/>
      <point x="251" y="452"/>
      <point x="344" y="452" type="curve" smooth="yes"/>
      <point x="401" y="452"/>
      <point x="433" y="431"/>
      <point x="457" y="383" type="curve"/>
      <point x="470" y="397"/>
      <point x="478" y="421"/>
      <point x="472" y="440" type="curve" smooth="yes"/>
      <point x="471" y="484"/>
      <point x="415" y="544"/>
    </contour>
    <contour>
      <point x="151" y="-11" type="curve" smooth="yes"/>
      <point x="239" y="-11"/>
      <point x="348" y="71"/>
      <point x="406" y="177" type="curve" smooth="yes"/>
      <point x="429" y="219"/>
      <point x="437" y="272"/>
      <point x="432" y="303" type="curve"/>
      <point x="337" y="145"/>
      <point x="257" y="89"/>
      <point x="181" y="89" type="curve" smooth="yes"/>
      <point x="126" y="89"/>
      <point x="95" y="129"/>
      <point x="90" y="218" type="curve"/>
      <point x="57" y="216"/>
      <point x="44" y="211"/>
      <point x="42" y="203" type="curve" smooth="yes"/>
      <point x="12" y="86"/>
      <point x="57" y="-11"/>
    </contour>
    <contour>
      <point x="527" y="753" type="curve"/>
      <point x="528" y="721"/>
      <point x="525" y="700"/>
      <point x="514" y="657" type="curve" smooth="yes"/>
      <point x="381" y="139" type="line"/>
      <point x="363" y="73"/>
      <point x="359" y="35"/>
      <point x="373" y="16" type="curve" smooth="yes"/>
      <point x="384" y="0"/>
      <point x="407" y="-4"/>
      <point x="426" y="-4" type="curve" smooth="yes"/>
      <point x="436" y="-4"/>
      <point x="445" y="-3"/>
      <point x="455" y="-1" type="curve"/>
      <point x="454" y="31"/>
      <point x="456" y="53"/>
      <point x="468" y="96" type="curve" smooth="yes"/>
      <point x="620" y="689" type="line"/>
      <point x="626" y="712"/>
      <point x="627" y="729"/>
      <point x="619" y="740" type="curve" smooth="yes"/>
      <point x="609" y="754"/>
      <point x="591" y="757"/>
      <point x="567" y="757" type="curve" smooth="yes"/>
      <point x="553" y="757"/>
      <point x="539" y="756"/>
    </contour>
    <contour>
      <point x="615" y="711" type="move" name="caronslovak"/>
    </contour>
  </outline>
</glyph>
<glyph name="e" format="1">
  <advance width="600"/>
  <unicode hex="0065"/>
  <outline>
    <contour>
      <point x="379" y="455" type="curve" smooth="yes"/>
      <point x="418" y="455"/>
      <point x="442" y="446"/>
      <point x="469" y="423" type="curve"/>
      <point x="486" y="436"/>
      <point x="497" y="452"/>
      <point x="501" y="466" type="curve"/>
      <point x="510" y="506"/>
      <point x="449" y="544"/>
      <point x="385" y="544" type="curve"/>
      <point x="245" y="544"/>
      <point x="120" y="465"/>
      <point x="73" y="286" type="curve" smooth="yes"/>
      <point x="70" y="274" type="line" smooth="yes"/>
      <point x="25" y="110"/>
      <point x="115" y="-11"/>
      <point x="277" y="-11" type="curve" smooth="yes"/>
      <point x="309" y="-11"/>
      <point x="324" y="19"/>
      <point x="332" y="47" type="curve"/>
      <point x="163" y="47"/>
      <point x="139" y="157"/>
      <point x="161" y="240" type="curve" smooth="yes"/>
      <point x="164" y="251" type="line" smooth="yes"/>
      <point x="200" y="391"/>
      <point x="279" y="455"/>
    </contour>
    <contour>
      <point x="444" y="33" type="curve" smooth="yes"/>
      <point x="462" y="49"/>
      <point x="475" y="71"/>
      <point x="484" y="105" type="curve" smooth="yes"/>
      <point x="486" y="115"/>
      <point x="488" y="127"/>
      <point x="487" y="140" type="curve"/>
      <point x="483" y="140" type="line"/>
      <point x="419" y="97"/>
      <point x="364" y="80"/>
      <point x="280" y="80" type="curve" smooth="yes"/>
      <point x="184" y="80"/>
      <point x="152" y="106"/>
      <point x="106" y="163" type="curve"/>
      <point x="51" y="78"/>
      <point x="166" y="-11"/>
      <point x="277" y="-11" type="curve" smooth="yes"/>
      <point x="363" y="-11"/>
      <point x="412" y="6"/>
    </contour>
    <contour>
      <point x="305" y="209" type="line" smooth="yes"/>
      <point x="453" y="209"/>
      <point x="532" y="261"/>
      <point x="555" y="352" type="curve" smooth="yes"/>
      <point x="557" y="360" type="line" smooth="yes"/>
      <point x="580" y="453"/>
      <point x="511" y="544"/>
      <point x="385" y="544" type="curve" smooth="yes"/>
      <point x="364" y="544"/>
      <point x="345" y="519"/>
      <point x="336" y="481" type="curve"/>
      <point x="422" y="481"/>
      <point x="474" y="433"/>
      <point x="458" y="367" type="curve" smooth="yes"/>
      <point x="456" y="358" type="line" smooth="yes"/>
      <point x="444" y="307"/>
      <point x="392" y="277"/>
      <point x="301" y="277" type="curve" smooth="yes"/>
      <point x="222" y="277"/>
      <point x="182" y="286"/>
      <point x="153" y="303" type="curve"/>
      <point x="140" y="277"/>
      <point x="138" y="261"/>
      <point x="149" y="247" type="curve" smooth="yes"/>
      <point x="165" y="226"/>
      <point x="219" y="209"/>
      <point x="299" y="209" type="curve" smooth="yes"/>
    </contour>
    <contour>
      <point x="391" y="544" type="move" name="top"/>
    </contour>
    <contour>
      <point x="419" y="33" type="move" name="ogonek"/>
    </contour>
    <contour>
      <point x="233" y="-1" type="move" name="bottom"/>
    </contour>
  </outline>
</glyph>
<glyph name="f" format="1">
  <advance width="450"/>
  <unicode hex="0066"/>
  <outline>
    <contour>
      <point x="186" y="-6" type="curve"/>
      <point x="186" y="28"/>
      <point x="190" y="55"/>
      <point x="200" y="98" type="curve" smooth="yes"/>
      <point x="305" y="516" type="line" smooth="yes"/>
      <point x="307" y="549"/>
      <point x="311" y="576"/>
      <point x="320" y="613" type="curve" smooth="yes"/>
      <point x="339" y="689"/>
      <point x="391" y="728"/>
      <point x="462" y="727" type="curve"/>
      <point x="468" y="750"/>
      <point x="460" y="764"/>
      <point x="440" y="764" type="curve" smooth="yes"/>
      <point x="328" y="764"/>
      <point x="251" y="711"/>
      <point x="222" y="600" type="curve" smooth="yes"/>
      <point x="87" y="60" type="line" smooth="yes"/>
      <point x="74" y="6"/>
      <point x="101" y="-8"/>
      <point x="166" y="-8" type="curve" smooth="yes"/>
      <point x="173" y="-8"/>
      <point x="179" y="-8"/>
    </contour>
    <contour>
      <point x="286" y="630" type="curve"/>
      <point x="332" y="662"/>
      <point x="369" y="673"/>
      <point x="413" y="673" type="curve" smooth="yes"/>
      <point x="465" y="673"/>
      <point x="502" y="662"/>
      <point x="526" y="646" type="curve"/>
      <point x="530" y="646" type="line"/>
      <point x="536" y="656"/>
      <point x="540" y="668"/>
      <point x="542" y="679" type="curve"/>
      <point x="548" y="703"/>
      <point x="548" y="726"/>
      <point x="539" y="738" type="curve" smooth="yes"/>
      <point x="529" y="751"/>
      <point x="497" y="764"/>
      <point x="440" y="764" type="curve" smooth="yes"/>
      <point x="343" y="764"/>
      <point x="269" y="692"/>
    </contour>
    <contour>
      <point x="105" y="523" type="curve"/>
      <point x="104" y="519"/>
      <point x="103" y="514"/>
      <point x="101" y="509" type="curve" smooth="yes"/>
      <point x="93" y="476"/>
      <point x="94" y="456"/>
      <point x="104" y="443" type="curve" smooth="yes"/>
      <point x="113" y="431"/>
      <point x="123" y="425"/>
      <point x="158" y="425" type="curve" smooth="yes"/>
      <point x="289" y="425"/>
      <point x="336" y="425"/>
      <point x="454" y="425" type="curve"/>
      <point x="458" y="434"/>
      <point x="463" y="448"/>
      <point x="466" y="460" type="curve" smooth="yes"/>
      <point x="477" y="504"/>
      <point x="471" y="523"/>
      <point x="435" y="523" type="curve" smooth="yes"/>
      <point x="348" y="523"/>
      <point x="234" y="523"/>
    </contour>
  </outline>
</glyph>
<glyph name="g" format="1">
  <advance width="600"/>
  <unicode hex="0067"/>
  <outline>
    <contour>
      <point x="362" y="459" type="curve" smooth="yes"/>
      <point x="502" y="459"/>
      <point x="547" y="446"/>
      <point x="579" y="446" type="curve" smooth="yes"/>
      <point x="605" y="446"/>
      <point x="620" y="470"/>
      <point x="629" y="504" type="curve" smooth="yes"/>
      <point x="632" y="516"/>
      <point x="634" y="527"/>
      <point x="633" y="534" type="curve"/>
      <point x="557" y="541"/>
      <point x="488" y="547"/>
      <point x="386" y="547" type="curve" smooth="yes"/>
      <point x="223" y="547"/>
      <point x="136" y="486"/>
      <point x="106" y="367" type="curve" smooth="yes"/>
      <point x="104" y="360" type="line" smooth="yes"/>
      <point x="74" y="241"/>
      <point x="155" y="155"/>
      <point x="283" y="156" type="curve"/>
      <point x="316" y="156"/>
      <point x="323" y="168"/>
      <point x="331" y="202" type="curve"/>
      <point x="204" y="204"/>
      <point x="177" y="287"/>
      <point x="190" y="344" type="curve" smooth="yes"/>
      <point x="192" y="350" type="line" smooth="yes"/>
      <point x="213" y="431"/>
      <point x="269" y="459"/>
    </contour>
    <contour>
      <point x="292" y="241" type="curve" smooth="yes"/>
      <point x="234" y="241"/>
      <point x="200" y="252"/>
      <point x="163" y="281" type="curve"/>
      <point x="130" y="229"/>
      <point x="190" y="156"/>
      <point x="283" y="156" type="curve" smooth="yes"/>
      <point x="417" y="156"/>
      <point x="495" y="208"/>
      <point x="520" y="306" type="curve" smooth="yes"/>
      <point x="522" y="314" type="line" smooth="yes"/>
      <point x="540" y="390"/>
      <point x="507" y="456"/>
      <point x="448" y="475" type="curve" smooth="yes"/>
      <point x="427" y="484"/>
      <point x="394" y="480"/>
      <point x="384" y="471" type="curve"/>
      <point x="445" y="444"/>
      <point x="449" y="381"/>
      <point x="439" y="342" type="curve" smooth="yes"/>
      <point x="437" y="334" type="line" smooth="yes"/>
      <point x="421" y="268"/>
      <point x="373" y="241"/>
    </contour>
    <contour>
      <point x="122" y="76" type="curve" smooth="yes"/>
      <point x="121" y="71" type="line" smooth="yes"/>
      <point x="106" y="11"/>
      <point x="140" y="-26"/>
      <point x="215" y="-31" type="curve" smooth="yes"/>
      <point x="321" y="-38" type="line" smooth="yes"/>
      <point x="363" y="-41"/>
      <point x="377" y="-58"/>
      <point x="369" y="-93" type="curve" smooth="yes"/>
      <point x="367" y="-102" type="line" smooth="yes"/>
      <point x="352" y="-162"/>
      <point x="291" y="-210"/>
      <point x="147" y="-210" type="curve"/>
      <point x="140" y="-239"/>
      <point x="143" y="-250"/>
      <point x="163" y="-250" type="curve" smooth="yes"/>
      <point x="341" y="-250"/>
      <point x="433" y="-213"/>
      <point x="465" y="-89" type="curve" smooth="yes"/>
      <point x="468" y="-80" type="line" smooth="yes"/>
      <point x="486" y="-9"/>
      <point x="450" y="47"/>
      <point x="370" y="53" type="curve" smooth="yes"/>
      <point x="254" y="61" type="line" smooth="yes"/>
      <point x="225" y="63"/>
      <point x="216" y="76"/>
      <point x="222" y="99" type="curve" smooth="yes"/>
      <point x="223" y="102" type="line" smooth="yes"/>
      <point x="229" y="128"/>
      <point x="244" y="151"/>
      <point x="275" y="175" type="curve"/>
      <point x="276" y="188"/>
      <point x="270" y="192"/>
      <point x="254" y="192" type="curve" smooth="yes"/>
      <point x="209" y="192"/>
      <point x="138" y="136"/>
    </contour>
    <contour>
      <point x="400" y="-127" type="curve"/>
      <point x="337" y="-165"/>
      <point x="285" y="-176"/>
      <point x="181" y="-176" type="curve" smooth="yes"/>
      <point x="149" y="-176" type="line" smooth="yes"/>
      <point x="73" y="-176"/>
      <point x="46" y="-148"/>
      <point x="59" y="-99" type="curve" smooth="yes"/>
      <point x="60" y="-92" type="line" smooth="yes"/>
      <point x="74" y="-38"/>
      <point x="106" y="-13"/>
      <point x="173" y="4" type="curve"/>
      <point x="175" y="24"/>
      <point x="159" y="36"/>
      <point x="137" y="35" type="curve" smooth="yes"/>
      <point x="45" y="30"/>
      <point x="-19" y="-10"/>
      <point x="-40" y="-93" type="curve" smooth="yes"/>
      <point x="-42" y="-101" type="line" smooth="yes"/>
      <point x="-62" y="-181"/>
      <point x="-4" y="-250"/>
      <point x="135" y="-250" type="curve" smooth="yes"/>
      <point x="163" y="-250" type="line" smooth="yes"/>
      <point x="312" y="-250"/>
      <point x="403" y="-185"/>
    </contour>
  </outline>
</glyph>
<glyph name="h" format="1">
  <advance width="600"/>
  <unicode hex="0068"/>
  <outline>
    <contour>
      <point x="115" y="-3" type="curve"/>
      <point x="287" y="665" type="line" smooth="yes"/>
      <point x="296" y="699"/>
      <point x="296" y="720"/>
      <point x="286" y="733" type="curve" smooth="yes"/>
      <point x="273" y="750"/>
      <point x="253" y="756"/>
      <point x="224" y="756" type="curve" smooth="yes"/>
      <point x="214" y="756"/>
      <point x="204" y="755"/>
      <point x="195" y="753" type="curve"/>
      <point x="195" y="721"/>
      <point x="193" y="699"/>
      <point x="182" y="656" type="curve" smooth="yes"/>
      <point x="22" y="36" type="line" smooth="yes"/>
      <point x="13" y="1"/>
      <point x="42" y="-5"/>
      <point x="81" y="-5" type="curve" smooth="yes"/>
      <point x="94" y="-5"/>
      <point x="106" y="-5"/>
    </contour>
    <contour>
      <point x="452" y="544" type="curve" smooth="yes"/>
      <point x="365" y="544"/>
      <point x="256" y="453"/>
      <point x="187" y="336" type="curve" smooth="yes"/>
      <point x="155" y="278"/>
      <point x="141" y="215"/>
      <point x="148" y="160" type="curve"/>
      <point x="238" y="342"/>
      <point x="335" y="441"/>
      <point x="410" y="441" type="curve" smooth="yes"/>
      <point x="449" y="441"/>
      <point x="467" y="411"/>
      <point x="464" y="348" type="curve"/>
      <point x="508" y="349"/>
      <point x="535" y="365"/>
      <point x="540" y="384" type="curve" smooth="yes"/>
      <point x="560" y="462"/>
      <point x="530" y="544"/>
    </contour>
    <contour>
      <point x="458" y="0" type="curve"/>
      <point x="458" y="51"/>
      <point x="464" y="86"/>
      <point x="478" y="140" type="curve" smooth="yes"/>
      <point x="540" y="384" type="line"/>
      <point x="550" y="418"/>
      <point x="533" y="439"/>
      <point x="474" y="437" type="curve"/>
      <point x="422" y="305"/>
      <point x="392" y="231"/>
      <point x="370" y="141" type="curve" smooth="yes"/>
      <point x="366" y="131" type="line" smooth="yes"/>
      <point x="338" y="25"/>
      <point x="368" y="-4"/>
      <point x="422" y="-4" type="curve" smooth="yes"/>
      <point x="435" y="-4"/>
      <point x="446" y="-2"/>
    </contour>
    <contour>
      <point x="247" y="730" type="move" name="top"/>
    </contour>
  </outline>
</glyph>
<glyph name="i" format="1">
  <advance width="350"/>
  <unicode hex="0069"/>
  <outline>
    <contour>
      <point x="111" y="536" type="curve"/>
      <point x="106" y="527"/>
      <point x="102" y="515"/>
      <point x="99" y="502" type="curve" smooth="yes"/>
      <point x="88" y="458"/>
      <point x="98" y="441"/>
      <point x="117" y="441" type="curve" smooth="yes"/>
      <point x="134" y="441"/>
      <point x="168" y="452"/>
      <point x="233" y="452" type="curve"/>
      <point x="247" y="505"/>
      <point x="256" y="543"/>
      <point x="223" y="543" type="curve" smooth="yes"/>
      <point x="190" y="543"/>
      <point x="154" y="541"/>
    </contour>
    <contour>
      <point x="194" y="-5" type="curve"/>
      <point x="193" y="28"/>
      <point x="198" y="56"/>
      <point x="209" y="99" type="curve" smooth="yes"/>
      <point x="311" y="503" type="line" smooth="yes"/>
      <point x="318" y="530"/>
      <point x="295" y="543"/>
      <point x="232" y="543" type="curve" smooth="yes"/>
      <point x="223" y="543" type="line"/>
      <point x="100" y="58" type="line" smooth="yes"/>
      <point x="86" y="6"/>
      <point x="109" y="-8"/>
      <point x="171" y="-8" type="curve" smooth="yes"/>
      <point x="179" y="-8"/>
      <point x="186" y="-7"/>
    </contour>
    <contour>
      <point x="357" y="630" type="curve"/>
      <point x="374" y="697" type="line" smooth="yes"/>
      <point x="384" y="734"/>
      <point x="355" y="745"/>
      <point x="311" y="745" type="curve" smooth="yes"/>
      <point x="294" y="745"/>
      <point x="274" y="743"/>
      <point x="257" y="740" type="curve"/>
      <point x="240" y="673" type="line" smooth="yes"/>
      <point x="231" y="636"/>
      <point x="259" y="625"/>
      <point x="303" y="625" type="curve" smooth="yes"/>
      <point x="320" y="625"/>
      <point x="341" y="627"/>
    </contour>
    <contour>
      <point x="382" y="-1" type="move" name="ogonek"/>
    </contour>
    <contour>
      <point x="232" y="-1" type="move" name="bottom"/>
    </contour>
  </outline>
</glyph>
<glyph name="j" format="1">
  <advance width="350"/>
  <unicode hex="006A"/>
  <outline>
    <contour>
      <point x="118" y="535" type="curve"/>
      <point x="114" y="526"/>
      <point x="110" y="514"/>
      <point x="106" y="501" type="curve" smooth="yes"/>
      <point x="95" y="457"/>
      <point x="105" y="440"/>
      <point x="124" y="440" type="curve" smooth="yes"/>
      <point x="141" y="440"/>
      <point x="188" y="452"/>
      <point x="253" y="452" type="curve"/>
      <point x="268" y="514"/>
      <point x="268" y="543"/>
      <point x="243" y="543" type="curve" smooth="yes"/>
      <point x="213" y="543"/>
      <point x="155" y="538"/>
    </contour>
    <contour>
      <point x="191" y="-47" type="curve" smooth="yes"/>
      <point x="329" y="497" type="line" smooth="yes"/>
      <point x="332" y="508"/>
      <point x="331" y="514"/>
      <point x="325" y="522" type="curve" smooth="yes"/>
      <point x="315" y="536"/>
      <point x="284" y="543"/>
      <point x="250" y="543" type="curve" smooth="yes"/>
      <point x="243" y="543" type="line"/>
      <point x="97" y="-30" type="line" smooth="yes"/>
      <point x="77" y="-110"/>
      <point x="56" y="-150"/>
      <point x="9" y="-193" type="curve"/>
      <point x="56" y="-211"/>
      <point x="169" y="-133"/>
    </contour>
    <contour>
      <point x="-6" y="-155" type="curve" smooth="yes"/>
      <point x="-39" y="-155"/>
      <point x="-56" y="-151"/>
      <point x="-79" y="-135" type="curve"/>
      <point x="-83" y="-135" type="line"/>
      <point x="-89" y="-144"/>
      <point x="-92" y="-151"/>
      <point x="-95" y="-162" type="curve" smooth="yes"/>
      <point x="-102" y="-188"/>
      <point x="-100" y="-213"/>
      <point x="-90" y="-227" type="curve" smooth="yes"/>
      <point x="-80" y="-241"/>
      <point x="-59" y="-250"/>
      <point x="-22" y="-250" type="curve" smooth="yes"/>
      <point x="88" y="-250"/>
      <point x="153" y="-188"/>
      <point x="192" y="-47" type="curve" smooth="yes"/>
      <point x="199" y="-17"/>
      <point x="185" y="-14"/>
      <point x="171" y="-14" type="curve"/>
      <point x="127" y="-107"/>
      <point x="61" y="-155"/>
    </contour>
    <contour>
      <point x="373" y="630" type="curve"/>
      <point x="390" y="697" type="line" smooth="yes"/>
      <point x="400" y="734"/>
      <point x="371" y="745"/>
      <point x="327" y="745" type="curve" smooth="yes"/>
      <point x="310" y="745"/>
      <point x="290" y="743"/>
      <point x="273" y="740" type="curve"/>
      <point x="256" y="673" type="line" smooth="yes"/>
      <point x="246" y="636"/>
      <point x="275" y="625"/>
      <point x="319" y="625" type="curve" smooth="yes"/>
      <point x="336" y="625"/>
      <point x="356" y="627"/>
    </contour>
  </outline>
</glyph>
<glyph name="l" format="1">
  <advance width="300"/>
  <unicode hex="006C"/>
  <outline>
    <contour>
      <point x="177" y="657" type="curve"/>
      <point x="45" y="129" type="line" smooth="yes"/>
      <point x="26" y="55"/>
      <point x="85" y="10"/>
      <point x="139" y="23" type="curve"/>
      <point x="133" y="66"/>
      <point x="139" y="103"/>
      <point x="154" y="165" type="curve" smooth="yes"/>
      <point x="279" y="663" type="line" smooth="yes"/>
      <point x="289" y="701"/>
      <point x="291" y="720"/>
      <point x="278" y="736" type="curve" smooth="yes"/>
      <point x="266" y="753"/>
      <point x="246" y="757"/>
      <point x="218" y="757" type="curve" smooth="yes"/>
      <point x="209" y="757"/>
      <point x="199" y="756"/>
      <point x="189" y="754" type="curve"/>
      <point x="190" y="722"/>
      <point x="187" y="701"/>
    </contour>
    <contour>
      <point x="241" y="109" type="curve"/>
      <point x="237" y="109" type="line"/>
      <point x="218" y="98"/>
      <point x="197" y="88"/>
      <point x="172" y="88" type="curve" smooth="yes"/>
      <point x="129" y="88"/>
      <point x="116" y="111"/>
      <point x="121" y="168" type="curve"/>
      <point x="74" y="168"/>
      <point x="50" y="152"/>
      <point x="45" y="129" type="curve" smooth="yes"/>
      <point x="23" y="43"/>
      <point x="66" y="-10"/>
      <point x="136" y="-10" type="curve" smooth="yes"/>
      <point x="143" y="-10" type="line" smooth="yes"/>
      <point x="169" y="-10"/>
      <point x="189" y="-5"/>
      <point x="205" y="8" type="curve" smooth="yes"/>
      <point x="219" y="20"/>
      <point x="228" y="38"/>
      <point x="236" y="77" type="curve" smooth="yes"/>
      <point x="239" y="88"/>
      <point x="240" y="100"/>
    </contour>
    <contour>
      <point x="436" y="711" type="move" name="caronslovak"/>
    </contour>
    <contour>
      <point x="246" y="737" type="move" name="top"/>
    </contour>
    <contour>
      <point x="358" y="400" type="move" name="dot"/>
    </contour>
    <contour>
      <point x="108" y="-1" type="move" name="bottom"/>
    </contour>
  </outline>
</glyph>
<glyph name="m" format="1">
  <advance width="850"/>
  <unicode hex="006D"/>
  <outline>
    <contour>
      <point x="124" y="-3" type="curve"/>
      <point x="238" y="444" type="line" smooth="yes"/>
      <point x="248" y="483"/>
      <point x="248" y="502"/>
      <point x="236" y="518" type="curve" smooth="yes"/>
      <point x="225" y="534"/>
      <point x="196" y="538"/>
      <point x="175" y="538" type="curve" smooth="yes"/>
      <point x="166" y="538"/>
      <point x="156" y="537"/>
      <point x="146" y="535" type="curve"/>
      <point x="147" y="503"/>
      <point x="144" y="482"/>
      <point x="133" y="439" type="curve" smooth="yes"/>
      <point x="31" y="36" type="line" smooth="yes"/>
      <point x="22" y="0"/>
      <point x="51" y="-6"/>
      <point x="90" y="-6" type="curve" smooth="yes"/>
      <point x="103" y="-6"/>
      <point x="115" y="-5"/>
    </contour>
    <contour>
      <point x="429" y="544" type="curve" smooth="yes"/>
      <point x="336" y="544"/>
      <point x="251" y="456"/>
      <point x="197" y="358" type="curve" smooth="yes"/>
      <point x="170" y="306"/>
      <point x="155" y="248"/>
      <point x="168" y="203" type="curve"/>
      <point x="246" y="371"/>
      <point x="321" y="441"/>
      <point x="379" y="441" type="curve" smooth="yes"/>
      <point x="421" y="441"/>
      <point x="441" y="413"/>
      <point x="435" y="349" type="curve"/>
      <point x="483" y="350"/>
      <point x="509" y="369"/>
      <point x="515" y="390" type="curve" smooth="yes"/>
      <point x="534" y="463"/>
      <point x="498" y="544"/>
    </contour>
    <contour>
      <point x="415" y="0" type="curve"/>
      <point x="515" y="390" type="line"/>
      <point x="522" y="419"/>
      <point x="506" y="440"/>
      <point x="446" y="439" type="curve"/>
      <point x="399" y="314"/>
      <point x="365" y="221"/>
      <point x="342" y="131" type="curve" smooth="yes"/>
      <point x="340" y="125" type="line" smooth="yes"/>
      <point x="312" y="19"/>
      <point x="335" y="-4"/>
      <point x="386" y="-4" type="curve" smooth="yes"/>
      <point x="398" y="-4"/>
      <point x="406" y="-3"/>
    </contour>
    <contour>
      <point x="719" y="544" type="curve" smooth="yes"/>
      <point x="626" y="544"/>
      <point x="540" y="458"/>
      <point x="487" y="360" type="curve" smooth="yes"/>
      <point x="460" y="307"/>
      <point x="443" y="248"/>
      <point x="457" y="203" type="curve"/>
      <point x="534" y="371"/>
      <point x="611" y="441"/>
      <point x="670" y="441" type="curve" smooth="yes"/>
      <point x="711" y="441"/>
      <point x="732" y="413"/>
      <point x="725" y="349" type="curve"/>
      <point x="773" y="350"/>
      <point x="800" y="369"/>
      <point x="805" y="390" type="curve" smooth="yes"/>
      <point x="824" y="464"/>
      <point x="788" y="544"/>
    </contour>
    <contour>
      <point x="722" y="0" type="curve"/>
      <point x="722" y="51"/>
      <point x="728" y="86"/>
      <point x="742" y="141" type="curve" smooth="yes"/>
      <point x="805" y="390" type="line"/>
      <point x="813" y="422"/>
      <point x="797" y="443"/>
      <point x="737" y="441" type="curve"/>
      <point x="687" y="307"/>
      <point x="657" y="229"/>
      <point x="633" y="135" type="curve" smooth="yes"/>
      <point x="631" y="130" type="line" smooth="yes"/>
      <point x="605" y="24"/>
      <point x="632" y="-4"/>
      <point x="686" y="-4" type="curve" smooth="yes"/>
      <point x="699" y="-4"/>
      <point x="710" y="-2"/>
    </contour>
  </outline>
</glyph>
<glyph name="n" format="1">
  <advance width="600"/>
  <unicode hex="006E"/>
  <outline>
    <contour>
      <point x="116" y="-4" type="curve"/>
      <point x="219" y="395" type="line" smooth="yes"/>
      <point x="236" y="458"/>
      <point x="233" y="495"/>
      <point x="219" y="515" type="curve" smooth="yes"/>
      <point x="209" y="530"/>
      <point x="193" y="537"/>
      <point x="169" y="537" type="curve" smooth="yes"/>
      <point x="160" y="537"/>
      <point x="149" y="536"/>
      <point x="139" y="534" type="curve"/>
      <point x="140" y="502"/>
      <point x="137" y="477"/>
      <point x="126" y="434" type="curve" smooth="yes"/>
      <point x="23" y="35" type="line" smooth="yes"/>
      <point x="14" y="0"/>
      <point x="43" y="-7"/>
      <point x="82" y="-7" type="curve" smooth="yes"/>
      <point x="94" y="-7"/>
      <point x="107" y="-6"/>
    </contour>
    <contour>
      <point x="450" y="543" type="curve" smooth="yes"/>
      <point x="364" y="543"/>
      <point x="259" y="449"/>
      <point x="189" y="332" type="curve" smooth="yes"/>
      <point x="157" y="273"/>
      <point x="143" y="213"/>
      <point x="149" y="163" type="curve"/>
      <point x="241" y="348"/>
      <point x="339" y="440"/>
      <point x="413" y="440" type="curve" smooth="yes"/>
      <point x="453" y="440"/>
      <point x="472" y="413"/>
      <point x="468" y="356" type="curve"/>
      <point x="515" y="357"/>
      <point x="540" y="374"/>
      <point x="546" y="395" type="curve" smooth="yes"/>
      <point x="563" y="459"/>
      <point x="529" y="543"/>
    </contour>
    <contour>
      <point x="459" y="-1" type="curve"/>
      <point x="459" y="49"/>
      <point x="465" y="84"/>
      <point x="479" y="139" type="curve" smooth="yes"/>
      <point x="546" y="395" type="line"/>
      <point x="553" y="423"/>
      <point x="538" y="437"/>
      <point x="476" y="436" type="curve"/>
      <point x="423" y="305"/>
      <point x="390" y="229"/>
      <point x="368" y="140" type="curve" smooth="yes"/>
      <point x="365" y="129" type="line" smooth="yes"/>
      <point x="337" y="23"/>
      <point x="366" y="-5"/>
      <point x="423" y="-5" type="curve" smooth="yes"/>
      <point x="436" y="-5"/>
      <point x="447" y="-4"/>
    </contour>
    <contour>
      <point x="318" y="684" type="move" name="caronslovak"/>
    </contour>
    <contour>
      <point x="369" y="544" type="move" name="top"/>
    </contour>
    <contour>
      <point x="234" y="-1" type="move" name="bottom"/>
    </contour>
  </outline>
</glyph>
<glyph name="p" format="1">
  <advance width="600"/>
  <unicode hex="0070"/>
  <outline>
    <contour>
      <point x="62" y="-210" type="curve"/>
      <point x="217" y="395" type="line" smooth="yes"/>
      <point x="235" y="464"/>
      <point x="241" y="498"/>
      <point x="227" y="518" type="curve" smooth="yes"/>
      <point x="215" y="533"/>
      <point x="192" y="538"/>
      <point x="172" y="538" type="curve"/>
      <point x="163" y="538"/>
      <point x="153" y="537"/>
      <point x="143" y="535" type="curve"/>
      <point x="144" y="503"/>
      <point x="141" y="482"/>
      <point x="130" y="439" type="curve" smooth="yes"/>
      <point x="-27" y="-172" type="line" smooth="yes"/>
      <point x="-36" y="-208"/>
      <point x="-10" y="-214"/>
      <point x="25" y="-214" type="curve"/>
      <point x="39" y="-214"/>
      <point x="52" y="-213"/>
    </contour>
    <contour>
      <point x="449" y="544" type="curve" smooth="yes"/>
      <point x="356" y="544"/>
      <point x="249" y="461"/>
      <point x="192" y="356" type="curve" smooth="yes"/>
      <point x="169" y="314"/>
      <point x="160" y="261"/>
      <point x="166" y="230" type="curve"/>
      <point x="264" y="391"/>
      <point x="346" y="443"/>
      <point x="420" y="443" type="curve" smooth="yes"/>
      <point x="468" y="443"/>
      <point x="496" y="403"/>
      <point x="509" y="320" type="curve"/>
      <point x="542" y="318"/>
      <point x="555" y="328"/>
      <point x="558" y="337" type="curve" smooth="yes"/>
      <point x="590" y="459"/>
      <point x="543" y="544"/>
    </contour>
    <contour>
      <point x="258" y="-11" type="curve" smooth="yes"/>
      <point x="376" y="-11"/>
      <point x="492" y="77"/>
      <point x="552" y="316" type="curve" smooth="yes"/>
      <point x="558" y="337" type="line" smooth="yes"/>
      <point x="572" y="390"/>
      <point x="556" y="474"/>
      <point x="499" y="474" type="curve" smooth="yes"/>
      <point x="482" y="474"/>
      <point x="467" y="466"/>
      <point x="459" y="442" type="curve"/>
      <point x="469" y="406"/>
      <point x="467" y="373"/>
      <point x="452" y="317" type="curve" smooth="yes"/>
      <point x="448" y="302" type="line" smooth="yes"/>
      <point x="411" y="156"/>
      <point x="347" y="81"/>
      <point x="254" y="81" type="curve" smooth="yes"/>
      <point x="197" y="81"/>
      <point x="166" y="104"/>
      <point x="142" y="152" type="curve"/>
      <point x="128" y="138"/>
      <point x="118" y="108"/>
      <point x="123" y="89" type="curve" smooth="yes"/>
      <point x="124" y="46"/>
      <point x="179" y="-11"/>
    </contour>
  </outline>
</glyph>
<glyph name="s" format="1">
  <advance width="550"/>
  <unicode hex="0073"/>
  <outline>
    <contour>
      <point x="391" y="545" type="curve" smooth="yes"/>
      <point x="386" y="545" type="line" smooth="yes"/>
      <point x="258" y="545"/>
      <point x="151" y="496"/>
      <point x="125" y="393" type="curve" smooth="yes"/>
      <point x="116" y="360"/>
      <point x="152" y="324"/>
      <point x="214" y="324" type="curve"/>
      <point x="211" y="346"/>
      <point x="213" y="361"/>
      <point x="218" y="379" type="curve" smooth="yes"/>
      <point x="228" y="421"/>
      <point x="285" y="450"/>
      <point x="372" y="450" type="curve" smooth="yes"/>
      <point x="434" y="450"/>
      <point x="467" y="439"/>
      <point x="501" y="418" type="curve"/>
      <point x="505" y="418" type="line"/>
      <point x="510" y="427"/>
      <point x="515" y="436"/>
      <point x="517" y="445" type="curve"/>
      <point x="525" y="479"/>
      <point x="523" y="500"/>
      <point x="512" y="514" type="curve" smooth="yes"/>
      <point x="499" y="531"/>
      <point x="459" y="545"/>
    </contour>
    <contour>
      <point x="358" y="293" type="curve" smooth="yes"/>
      <point x="291" y="307" type="line" smooth="yes"/>
      <point x="223" y="323"/>
      <point x="209" y="344"/>
      <point x="218" y="379" type="curve" smooth="yes"/>
      <point x="222" y="397"/>
      <point x="229" y="416"/>
      <point x="243" y="438" type="curve"/>
      <point x="171" y="425"/>
      <point x="132" y="419"/>
      <point x="125" y="393" type="curve"/>
      <point x="106" y="318"/>
      <point x="139" y="256"/>
      <point x="233" y="235" type="curve" smooth="yes"/>
      <point x="310" y="217" type="line" smooth="yes"/>
      <point x="368" y="205"/>
      <point x="380" y="174"/>
      <point x="368" y="127" type="curve" smooth="yes"/>
      <point x="364" y="113"/>
      <point x="358" y="101"/>
      <point x="349" y="91" type="curve"/>
      <point x="416" y="94"/>
      <point x="455" y="111"/>
      <point x="462" y="136" type="curve" smooth="yes"/>
      <point x="480" y="208"/>
      <point x="446" y="273"/>
    </contour>
    <contour>
      <point x="245" y="84" type="curve" smooth="yes"/>
      <point x="141" y="84"/>
      <point x="99" y="100"/>
      <point x="48" y="142" type="curve"/>
      <point x="44" y="142" type="line"/>
      <point x="38" y="133"/>
      <point x="35" y="123"/>
      <point x="31" y="110" type="curve" smooth="yes"/>
      <point x="22" y="73"/>
      <point x="27" y="54"/>
      <point x="38" y="40" type="curve" smooth="yes"/>
      <point x="58" y="13"/>
      <point x="117" y="-11"/>
      <point x="216" y="-11" type="curve" smooth="yes"/>
      <point x="224" y="-11" type="line" smooth="yes"/>
      <point x="358" y="-11"/>
      <point x="436" y="33"/>
      <point x="462" y="136" type="curve" smooth="yes"/>
      <point x="471" y="170"/>
      <point x="446" y="184"/>
      <point x="411" y="190" type="curve"/>
      <point x="410" y="177"/>
      <point x="408" y="170"/>
      <point x="406" y="164" type="curve" smooth="yes"/>
      <point x="393" y="111"/>
      <point x="337" y="84"/>
    </contour>
    <contour>
      <point x="274" y="544" type="move" name="top"/>
    </contour>
    <contour>
      <point x="274" y="-1" type="move" name="bottom"/>
    </contour>
  </outline>
</glyph>
<glyph name="t" format="1">
  <advance width="500"/>
  <unicode hex="0074"/>
  <outline>
    <contour>
      <point x="247" y="700" type="curve"/>
      <point x="108" y="146" type="line" smooth="yes"/>
      <point x="87" y="58"/>
      <point x="158" y="1"/>
      <point x="221" y="26" type="curve"/>
      <point x="199" y="61"/>
      <point x="197" y="106"/>
      <point x="212" y="168" type="curve" smooth="yes"/>
      <point x="336" y="663" type="line" smooth="yes"/>
      <point x="345" y="697"/>
      <point x="317" y="704"/>
      <point x="284" y="704" type="curve" smooth="yes"/>
      <point x="270" y="704"/>
      <point x="258" y="703"/>
    </contour>
    <contour>
      <point x="399" y="127" type="curve"/>
      <point x="395" y="127" type="line"/>
      <point x="350" y="100"/>
      <point x="311" y="82"/>
      <point x="258" y="82" type="curve" smooth="yes"/>
      <point x="199" y="82"/>
      <point x="165" y="105"/>
      <point x="148" y="178" type="curve"/>
      <point x="126" y="177"/>
      <point x="113" y="164"/>
      <point x="108" y="146" type="curve" smooth="yes"/>
      <point x="84" y="48"/>
      <point x="136" y="-16"/>
      <point x="236" y="-16" type="curve" smooth="yes"/>
      <point x="246" y="-16" type="line" smooth="yes"/>
      <point x="298" y="-16"/>
      <point x="329" y="-5"/>
      <point x="350" y="13" type="curve" smooth="yes"/>
      <point x="372" y="30"/>
      <point x="385" y="52"/>
      <point x="395" y="95" type="curve" smooth="yes"/>
      <point x="398" y="108"/>
      <point x="399" y="117"/>
    </contour>
    <contour>
      <point x="108" y="533" type="line"/>
      <point x="107" y="528"/>
      <point x="106" y="523"/>
      <point x="104" y="518" type="curve" smooth="yes"/>
      <point x="96" y="485"/>
      <point x="97" y="465"/>
      <point x="107" y="452" type="curve" smooth="yes"/>
      <point x="117" y="439"/>
      <point x="134" y="434"/>
      <point x="180" y="434" type="curve"/>
      <point x="476" y="434" type="line"/>
      <point x="481" y="444"/>
      <point x="485" y="457"/>
      <point x="489" y="470" type="curve" smooth="yes"/>
      <point x="499" y="513"/>
      <point x="494" y="533"/>
      <point x="457" y="533" type="curve"/>
    </contour>
    <contour>
      <point x="501" y="711" type="move" name="caronslovak"/>
    </contour>
    <contour>
      <point x="208" y="-1" type="move" name="bottom"/>
    </contour>
  </outline>
</glyph>
<glyph name="u" format="1">
  <advance width="600"/>
  <unicode hex="0075"/>
  <outline>
    <contour>
      <point x="483" y="537" type="curve"/>
      <point x="379" y="138" type="line" smooth="yes"/>
      <point x="362" y="75"/>
      <point x="366" y="38"/>
      <point x="380" y="18" type="curve" smooth="yes"/>
      <point x="390" y="3"/>
      <point x="405" y="-5"/>
      <point x="430" y="-5" type="curve" smooth="yes"/>
      <point x="439" y="-5"/>
      <point x="449" y="-4"/>
      <point x="459" y="-1" type="curve"/>
      <point x="458" y="30"/>
      <point x="460" y="52"/>
      <point x="472" y="95" type="curve" smooth="yes"/>
      <point x="575" y="498" type="line" smooth="yes"/>
      <point x="585" y="533"/>
      <point x="556" y="540"/>
      <point x="517" y="540" type="curve" smooth="yes"/>
      <point x="504" y="540"/>
      <point x="492" y="539"/>
    </contour>
    <contour>
      <point x="148" y="-10" type="curve" smooth="yes"/>
      <point x="234" y="-10"/>
      <point x="340" y="83"/>
      <point x="410" y="201" type="curve" smooth="yes"/>
      <point x="442" y="259"/>
      <point x="455" y="320"/>
      <point x="450" y="369" type="curve"/>
      <point x="358" y="184"/>
      <point x="260" y="93"/>
      <point x="185" y="93" type="curve" smooth="yes"/>
      <point x="146" y="93"/>
      <point x="127" y="120"/>
      <point x="130" y="177" type="curve"/>
      <point x="83" y="176"/>
      <point x="58" y="157"/>
      <point x="52" y="136" type="curve" smooth="yes"/>
      <point x="35" y="71"/>
      <point x="70" y="-10"/>
    </contour>
    <contour>
      <point x="140" y="534" type="curve"/>
      <point x="139" y="483"/>
      <point x="133" y="449"/>
      <point x="119" y="393" type="curve" smooth="yes"/>
      <point x="52" y="136" type="line"/>
      <point x="45" y="108"/>
      <point x="60" y="96"/>
      <point x="123" y="97" type="curve"/>
      <point x="175" y="227"/>
      <point x="206" y="306"/>
      <point x="230" y="396" type="curve" smooth="yes"/>
      <point x="232" y="405" type="line" smooth="yes"/>
      <point x="260" y="512"/>
      <point x="232" y="538"/>
      <point x="175" y="538" type="curve" smooth="yes"/>
      <point x="162" y="538"/>
      <point x="152" y="537"/>
    </contour>
    <contour>
      <point x="369" y="544" type="move" name="top"/>
    </contour>
    <contour>
      <point x="462" y="-1" type="move" name="ogonek"/>
    </contour>
    <contour>
      <point x="234" y="-1" type="move" name="bottom"/>
    </contour>
  </outline>
</glyph>
<glyph name="v" format="1">
  <advance width="600"/>
  <unicode hex="0076"/>
  <outline>
    <contour>
      <point x="518" y="541" type="curve" smooth="yes"/>
      <point x="501" y="541" type="line"/>
      <point x="409" y="260"/>
      <point x="346" y="154"/>
      <point x="214" y="68" type="curve"/>
      <point x="189" y="51"/>
      <point x="199" y="-10"/>
      <point x="235" y="-10" type="curve"/>
      <point x="269" y="-10" type="line"/>
      <point x="405" y="81"/>
      <point x="502" y="231"/>
      <point x="589" y="490" type="curve"/>
      <point x="599" y="518"/>
      <point x="563" y="541"/>
    </contour>
    <contour>
      <point x="148" y="541" type="curve" smooth="yes"/>
      <point x="131" y="541" type="line"/>
      <point x="86" y="275"/>
      <point x="94" y="122"/>
      <point x="166" y="25" type="curve"/>
      <point x="187" y="-3"/>
      <point x="208" y="-10"/>
      <point x="232" y="-10" type="curve" smooth="yes"/>
      <point x="240" y="-10" type="line" smooth="yes"/>
      <point x="268" y="-10"/>
      <point x="289" y="10"/>
      <point x="311" y="44" type="curve"/>
      <point x="303" y="44"/>
      <point x="298" y="44"/>
      <point x="293" y="44" type="curve" smooth="yes"/>
      <point x="286" y="44"/>
      <point x="279" y="46"/>
      <point x="272" y="53" type="curve"/>
      <point x="196" y="139"/>
      <point x="189" y="263"/>
      <point x="228" y="504" type="curve"/>
      <point x="233" y="527"/>
      <point x="193" y="541"/>
    </contour>
  </outline>
</glyph>
<glyph name="w" format="1">
  <advance width="800"/>
  <unicode hex="0077"/>
  <outline>
    <contour>
      <point x="132" y="540" type="curve"/>
      <point x="71" y="235"/>
      <point x="75" y="114"/>
      <point x="119" y="33" type="curve"/>
      <point x="137" y="2"/>
      <point x="153" y="-10"/>
      <point x="175" y="-10" type="curve"/>
      <point x="192" y="-10" type="line" smooth="yes"/>
      <point x="202" y="-10"/>
      <point x="216" y="20"/>
      <point x="221" y="43" type="curve"/>
      <point x="173" y="112"/>
      <point x="162" y="188"/>
      <point x="221" y="499" type="curve"/>
      <point x="224" y="514"/>
      <point x="223" y="520"/>
      <point x="219" y="526" type="curve" smooth="yes"/>
      <point x="210" y="537"/>
      <point x="190" y="543"/>
      <point x="158" y="543" type="curve"/>
      <point x="150" y="543"/>
      <point x="140" y="542"/>
    </contour>
    <contour>
      <point x="414" y="514" type="curve"/>
      <point x="325" y="261"/>
      <point x="256" y="141"/>
      <point x="171" y="56" type="curve"/>
      <point x="153" y="39"/>
      <point x="170" y="-10"/>
      <point x="187" y="-10" type="curve"/>
      <point x="211" y="-10" type="line"/>
      <point x="309" y="84"/>
      <point x="398" y="245"/>
      <point x="470" y="464" type="curve"/>
      <point x="478" y="492"/>
      <point x="483" y="517"/>
      <point x="449" y="517" type="curve" smooth="yes"/>
      <point x="440" y="517"/>
      <point x="424" y="516"/>
    </contour>
    <contour>
      <point x="438" y="512" type="curve"/>
      <point x="407" y="292"/>
      <point x="401" y="101"/>
      <point x="447" y="14" type="curve"/>
      <point x="459" y="-7"/>
      <point x="478" y="-10"/>
      <point x="497" y="-10" type="curve"/>
      <point x="520" y="-10" type="line" smooth="yes"/>
      <point x="524" y="-10"/>
      <point x="529" y="19"/>
      <point x="522" y="42" type="curve"/>
      <point x="476" y="122"/>
      <point x="484" y="259"/>
      <point x="513" y="476" type="curve"/>
      <point x="517" y="508"/>
      <point x="492" y="517"/>
      <point x="449" y="517" type="curve" smooth="yes"/>
      <point x="443" y="517"/>
      <point x="441" y="516"/>
    </contour>
    <contour>
      <point x="717" y="540" type="curve"/>
      <point x="610" y="216"/>
      <point x="574" y="154"/>
      <point x="483" y="65" type="curve"/>
      <point x="462" y="47"/>
      <point x="481" y="-10"/>
      <point x="513" y="-10" type="curve"/>
      <point x="532" y="-10" type="line"/>
      <point x="659" y="101"/>
      <point x="728" y="248"/>
      <point x="811" y="488" type="curve"/>
      <point x="816" y="501"/>
      <point x="816" y="511"/>
      <point x="810" y="519" type="curve" smooth="yes"/>
      <point x="800" y="532"/>
      <point x="783" y="543"/>
      <point x="752" y="543" type="curve"/>
      <point x="743" y="543"/>
      <point x="725" y="542"/>
    </contour>
    <contour>
      <point x="450" y="544" type="move" name="top"/>
    </contour>
  </outline>
</glyph>
<glyph name="z" format="1">
  <advance width="550"/>
  <unicode hex="007A"/>
  <outline>
    <contour>
      <point x="134" y="533" type="line"/>
      <point x="130" y="525"/>
      <point x="127" y="517"/>
      <point x="125" y="508" type="curve" smooth="yes"/>
      <point x="118" y="481"/>
      <point x="121" y="461"/>
      <point x="130" y="449" type="curve" smooth="yes"/>
      <point x="135" y="442"/>
      <point x="141" y="438"/>
      <point x="154" y="438" type="curve" smooth="yes"/>
      <point x="364" y="438" type="line" smooth="yes"/>
      <point x="419" y="438"/>
      <point x="489" y="441"/>
      <point x="545" y="451" type="curve"/>
      <point x="546" y="456" type="line" smooth="yes"/>
      <point x="553" y="484"/>
      <point x="545" y="505"/>
      <point x="533" y="522" type="curve" smooth="yes"/>
      <point x="527" y="530"/>
      <point x="520" y="533"/>
      <point x="506" y="533" type="curve" smooth="yes"/>
    </contour>
    <contour>
      <point x="449" y="486" type="curve"/>
      <point x="357" y="347"/>
      <point x="204" y="199"/>
      <point x="17" y="86" type="curve"/>
      <point x="10" y="57"/>
      <point x="86" y="56"/>
      <point x="128" y="74" type="curve" smooth="yes"/>
      <point x="331" y="181"/>
      <point x="534" y="409"/>
      <point x="545" y="451" type="curve"/>
      <point x="551" y="476"/>
      <point x="523" y="486"/>
    </contour>
    <contour>
      <point x="426" y="0" type="line"/>
      <point x="431" y="10"/>
      <point x="436" y="23"/>
      <point x="439" y="36" type="curve"/>
      <point x="449" y="78"/>
      <point x="443" y="95"/>
      <point x="405" y="95" type="curve" smooth="yes"/>
      <point x="209" y="95" type="line" smooth="yes"/>
      <point x="143" y="95"/>
      <point x="80" y="92"/>
      <point x="17" y="86" type="curve"/>
      <point x="15" y="77" type="line" smooth="yes"/>
      <point x="7" y="46"/>
      <point x="9" y="23"/>
      <point x="20" y="8" type="curve" smooth="yes"/>
      <point x="25" y="2"/>
      <point x="30" y="0"/>
      <point x="39" y="0" type="curve" smooth="yes"/>
    </contour>
    <contour>
      <point x="279" y="544" type="move" name="top"/>
    </contour>
  </outline>
</glyph>
<glyph name="braceleft" format="1">
  <advance width="500"/>
  <unicode hex="007B"/>
  <outline>
    <contour>
      <point x="487" y="672" type="curve" smooth="yes"/>
      <point x="514" y="672"/>
      <point x="533" y="670"/>
      <point x="550" y="664" type="curve"/>
      <point x="554" y="664" type="line"/>
      <point x="559" y="674"/>
      <point x="563" y="683"/>
      <point x="567" y="698" type="curve"/>
      <point x="576" y="737"/>
      <point x="560" y="770"/>
      <point x="522" y="770" type="curve" smooth="yes"/>
      <point x="518" y="770" type="line" smooth="yes"/>
      <point x="395" y="770"/>
      <point x="294" y="727"/>
      <point x="275" y="653" type="curve" smooth="yes"/>
      <point x="274" y="650" type="line" smooth="yes"/>
      <point x="269" y="627"/>
      <point x="289" y="604"/>
      <point x="318" y="602" type="curve"/>
      <point x="355" y="655"/>
      <point x="414" y="672"/>
    </contour>
    <contour>
      <point x="364" y="450" type="curve" smooth="yes"/>
      <point x="388" y="546"/>
      <point x="341" y="605"/>
      <point x="350" y="643" type="curve" smooth="yes"/>
      <point x="355" y="662"/>
      <point x="363" y="676"/>
      <point x="378" y="694" type="curve"/>
      <point x="335" y="702"/>
      <point x="285" y="694"/>
      <point x="275" y="652" type="curve" smooth="yes"/>
      <point x="274" y="647" type="line" smooth="yes"/>
      <point x="260" y="593"/>
      <point x="293" y="543"/>
      <point x="273" y="463" type="curve" smooth="yes"/>
      <point x="255" y="391"/>
      <point x="195" y="345"/>
      <point x="81" y="345" type="curve" smooth="yes"/>
      <point x="75" y="345" type="line"/>
      <point x="72" y="335" type="line" smooth="yes"/>
      <point x="65" y="308"/>
      <point x="67" y="285"/>
      <point x="91" y="285" type="curve" smooth="yes"/>
      <point x="106" y="285" type="line" smooth="yes"/>
      <point x="227" y="285"/>
      <point x="338" y="345"/>
    </contour>
    <contour>
      <point x="289" y="149" type="curve" smooth="yes"/>
      <point x="316" y="258"/>
      <point x="238" y="315"/>
      <point x="116" y="315" type="curve" smooth="yes"/>
      <point x="88" y="315"/>
      <point x="81" y="328"/>
      <point x="73" y="338" type="curve"/>
      <point x="71" y="330" type="line" smooth="yes"/>
      <point x="61" y="289"/>
      <point x="66" y="253"/>
      <point x="93" y="253" type="curve" smooth="yes"/>
      <point x="95" y="253" type="line" smooth="yes"/>
      <point x="172" y="253"/>
      <point x="209" y="206"/>
      <point x="191" y="136" type="curve" smooth="yes"/>
      <point x="171" y="56"/>
      <point x="112" y="1"/>
      <point x="99" y="-53" type="curve" smooth="yes"/>
      <point x="98" y="-57" type="line" smooth="yes"/>
      <point x="86" y="-104"/>
      <point x="135" y="-110"/>
      <point x="182" y="-102" type="curve"/>
      <point x="172" y="-83"/>
      <point x="172" y="-68"/>
      <point x="178" y="-47" type="curve" smooth="yes"/>
      <point x="187" y="-8"/>
      <point x="265" y="56"/>
    </contour>
    <contour>
      <point x="293" y="-73" type="curve" smooth="yes"/>
      <point x="211" y="-73"/>
      <point x="170" y="-58"/>
      <point x="163" y="-4" type="curve"/>
      <point x="130" y="-9"/>
      <point x="103" y="-34"/>
      <point x="98" y="-54" type="curve" smooth="yes"/>
      <point x="97" y="-58" type="line" smooth="yes"/>
      <point x="78" y="-136"/>
      <point x="145" y="-172"/>
      <point x="283" y="-172" type="curve" smooth="yes"/>
      <point x="289" y="-172" type="line" smooth="yes"/>
      <point x="327" y="-172"/>
      <point x="358" y="-132"/>
      <point x="373" y="-71" type="curve"/>
      <point x="375" y="-63" type="line"/>
      <point x="371" y="-63" type="line"/>
      <point x="344" y="-70"/>
      <point x="324" y="-73"/>
    </contour>
  </outline>
</glyph>
<glyph name="bar" format="1">
  <advance width="300"/>
  <unicode hex="007C"/>
  <outline>
    <contour>
      <point x="217" y="759" type="curve"/>
      <point x="215" y="724"/>
      <point x="209" y="688"/>
      <point x="199" y="649" type="curve" smooth="yes"/>
      <point x="7" y="-118" type="line" smooth="yes"/>
      <point x="0" y="-149"/>
      <point x="25" y="-162"/>
      <point x="76" y="-162" type="curve" smooth="yes"/>
      <point x="86" y="-162"/>
      <point x="94" y="-161"/>
      <point x="100" y="-160" type="curve"/>
      <point x="315" y="699" type="line" smooth="yes"/>
      <point x="321" y="723"/>
      <point x="321" y="738"/>
      <point x="313" y="749" type="curve" smooth="yes"/>
      <point x="305" y="760"/>
      <point x="290" y="764"/>
      <point x="259" y="764" type="curve" smooth="yes"/>
      <point x="244" y="764"/>
      <point x="232" y="762"/>
    </contour>
  </outline>
</glyph>
<glyph name="braceright" format="1">
  <advance width="500"/>
  <unicode hex="007D"/>
  <outline>
    <contour>
      <point x="29" y="-74" type="curve" smooth="yes"/>
      <point x="3" y="-74"/>
      <point x="-17" y="-72"/>
      <point x="-34" y="-66" type="curve"/>
      <point x="-38" y="-66" type="line"/>
      <point x="-43" y="-76"/>
      <point x="-46" y="-85"/>
      <point x="-50" y="-100" type="curve"/>
      <point x="-60" y="-139"/>
      <point x="-44" y="-172"/>
      <point x="-6" y="-172" type="curve" smooth="yes"/>
      <point x="-2" y="-172" type="line" smooth="yes"/>
      <point x="121" y="-172"/>
      <point x="223" y="-129"/>
      <point x="241" y="-55" type="curve" smooth="yes"/>
      <point x="242" y="-52" type="line" smooth="yes"/>
      <point x="248" y="-29"/>
      <point x="227" y="-6"/>
      <point x="199" y="-4" type="curve"/>
      <point x="162" y="-57"/>
      <point x="103" y="-74"/>
    </contour>
    <contour>
      <point x="152" y="148" type="curve" smooth="yes"/>
      <point x="128" y="52"/>
      <point x="176" y="-7"/>
      <point x="166" y="-45" type="curve" smooth="yes"/>
      <point x="161" y="-64"/>
      <point x="153" y="-78"/>
      <point x="138" y="-96" type="curve"/>
      <point x="182" y="-104"/>
      <point x="231" y="-96"/>
      <point x="241" y="-54" type="curve" smooth="yes"/>
      <point x="243" y="-49" type="line" smooth="yes"/>
      <point x="256" y="5"/>
      <point x="223" y="55"/>
      <point x="243" y="135" type="curve" smooth="yes"/>
      <point x="261" y="207"/>
      <point x="321" y="253"/>
      <point x="436" y="253" type="curve" smooth="yes"/>
      <point x="442" y="253" type="line"/>
      <point x="444" y="263" type="line" smooth="yes"/>
      <point x="451" y="290"/>
      <point x="449" y="313"/>
      <point x="425" y="313" type="curve" smooth="yes"/>
      <point x="410" y="313" type="line" smooth="yes"/>
      <point x="290" y="313"/>
      <point x="179" y="253"/>
    </contour>
    <contour>
      <point x="228" y="449" type="curve" smooth="yes"/>
      <point x="200" y="340"/>
      <point x="279" y="283"/>
      <point x="401" y="283" type="curve" smooth="yes"/>
      <point x="429" y="283"/>
      <point x="436" y="270"/>
      <point x="443" y="260" type="curve"/>
      <point x="445" y="268" type="line" smooth="yes"/>
      <point x="456" y="309"/>
      <point x="450" y="345"/>
      <point x="424" y="345" type="curve" smooth="yes"/>
      <point x="421" y="345" type="line" smooth="yes"/>
      <point x="344" y="345"/>
      <point x="308" y="392"/>
      <point x="325" y="462" type="curve" smooth="yes"/>
      <point x="345" y="542"/>
      <point x="404" y="597"/>
      <point x="418" y="651" type="curve" smooth="yes"/>
      <point x="419" y="655" type="line" smooth="yes"/>
      <point x="430" y="702"/>
      <point x="381" y="708"/>
      <point x="335" y="700" type="curve"/>
      <point x="344" y="681"/>
      <point x="344" y="666"/>
      <point x="339" y="645" type="curve" smooth="yes"/>
      <point x="329" y="606"/>
      <point x="251" y="542"/>
    </contour>
    <contour>
      <point x="223" y="671" type="curve" smooth="yes"/>
      <point x="305" y="671"/>
      <point x="346" y="656"/>
      <point x="354" y="602" type="curve"/>
      <point x="386" y="607"/>
      <point x="413" y="632"/>
      <point x="418" y="652" type="curve" smooth="yes"/>
      <point x="419" y="656" type="line" smooth="yes"/>
      <point x="439" y="734"/>
      <point x="371" y="770"/>
      <point x="233" y="770" type="curve" smooth="yes"/>
      <point x="228" y="770" type="line" smooth="yes"/>
      <point x="189" y="770"/>
      <point x="159" y="730"/>
      <point x="143" y="669" type="curve"/>
      <point x="141" y="661" type="line"/>
      <point x="145" y="661" type="line"/>
      <point x="172" y="668"/>
      <point x="192" y="671"/>
    </contour>
  </outline>
</glyph>
<glyph name="asciitilde" format="1">
  <advance width="600"/>
  <unicode hex="007E"/>
  <outline>
    <contour>
      <point x="432" y="299" type="curve" smooth="yes"/>
      <point x="343" y="299"/>
      <point x="293" y="411"/>
      <point x="203" y="411" type="curve" smooth="yes"/>
      <point x="150" y="411"/>
      <point x="111" y="386"/>
      <point x="85" y="352" type="curve" smooth="yes"/>
      <point x="75" y="338"/>
      <point x="65" y="318"/>
      <point x="58" y="288" type="curve" smooth="yes"/>
      <point x="54" y="274"/>
      <point x="52" y="256"/>
      <point x="54" y="244" type="curve"/>
      <point x="58" y="244" type="line"/>
      <point x="105" y="284"/>
      <point x="140" y="301"/>
      <point x="184" y="301" type="curve" smooth="yes"/>
      <point x="274" y="301"/>
      <point x="324" y="189"/>
      <point x="414" y="189" type="curve" smooth="yes"/>
      <point x="467" y="189"/>
      <point x="506" y="214"/>
      <point x="531" y="248" type="curve" smooth="yes"/>
      <point x="541" y="262"/>
      <point x="552" y="282"/>
      <point x="559" y="312" type="curve" smooth="yes"/>
      <point x="563" y="326"/>
      <point x="565" y="344"/>
      <point x="563" y="356" type="curve"/>
      <point x="559" y="356" type="line"/>
      <point x="512" y="316"/>
      <point x="477" y="299"/>
    </contour>
  </outline>
</glyph>
<glyph name="exclamdown" format="1">
  <advance width="376"/>
  <unicode hex="00A1"/>
  <outline>
    <contour>
      <point x="148" y="271" type="line"/>
      <point x="118" y="199"/>
      <point x="87" y="108"/>
      <point x="69" y="36" type="curve"/>
      <point x="29" y="-121" type="line" smooth="yes"/>
      <point x="20" y="-160"/>
      <point x="49" y="-175"/>
      <point x="105" y="-175" type="curve" smooth="yes"/>
      <point x="122" y="-175"/>
      <point x="135" y="-174"/>
      <point x="150" y="-170" type="curve"/>
      <point x="152" y="-135"/>
      <point x="158" y="-99"/>
      <point x="168" y="-60" type="curve" smooth="yes"/>
      <point x="191" y="34" type="line"/>
      <point x="217" y="135"/>
      <point x="233" y="232"/>
      <point x="219" y="250" type="curve" smooth="yes"/>
      <point x="209" y="264"/>
      <point x="187" y="271"/>
      <point x="157" y="271" type="curve"/>
    </contour>
    <contour>
      <point x="172" y="533" type="curve"/>
      <point x="147" y="434" type="line" smooth="yes"/>
      <point x="135" y="386"/>
      <point x="177" y="371"/>
      <point x="232" y="371" type="curve" smooth="yes"/>
      <point x="255" y="371"/>
      <point x="278" y="374"/>
      <point x="299" y="381" type="curve"/>
      <point x="324" y="480" type="line" smooth="yes"/>
      <point x="336" y="528"/>
      <point x="294" y="543"/>
      <point x="239" y="543" type="curve" smooth="yes"/>
      <point x="216" y="543"/>
      <point x="193" y="539"/>
    </contour>
  </outline>
</glyph>
